ISO-10303-21;
HEADER;
FILE_DESCRIPTION(('FreeCAD Model'),'2;1');
FILE_NAME('Open CASCADE Shape Model','2026-08-25T13:43:16',(''),(''),
  'Open CASCADE STEP processor 7.8','FreeCAD','Unknown');
FILE_SCHEMA(('AUTOMOTIVE_DESIGN { 1 0 10303 214 1 1 1 1 }'));
ENDSEC;
DATA;
#1 = APPLICATION_PROTOCOL_DEFINITION('international standard',
  'automotive_design',2000,#2);
#2 = APPLICATION_CONTEXT(
  'core data for automotive mechanical design processes');
#3 = SHAPE_DEFINITION_REPRESENTATION(#4,#10);
#4 = PRODUCT_DEFINITION_SHAPE('','',#5);
#5 = PRODUCT_DEFINITION('design','',#6,#9);
#6 = PRODUCT_DEFINITION_FORMATION('','',#7);
#7 = PRODUCT('Hole001','Hole001','',(#8));
#8 = PRODUCT_CONTEXT('',#2,'mechanical');
#9 = PRODUCT_DEFINITION_CONTEXT('part definition',#2,'design');
#10 = ADVANCED_BREP_SHAPE_REPRESENTATION('',(#11,#15),#1917);
#11 = AXIS2_PLACEMENT_3D('',#12,#13,#14);
#12 = CARTESIAN_POINT('',(0.,0.,0.));
#13 = DIRECTION('',(0.,0.,1.));
#14 = DIRECTION('',(1.,0.,-0.));
#15 = MANIFOLD_SOLID_BREP('',#16);
#16 = CLOSED_SHELL('',(#17,#341,#372,#407,#431,#455,#479,#535,#559,#590,
    #614,#654,#678,#711,#735,#759,#794,#834,#858,#882,#914,#938,#969,
    #993,#1017,#1073,#1097,#1128,#1152,#1192,#1216,#1249,#1288,#1312,
    #1336,#1369,#1394,#1419,#1479,#1503,#1551,#1575,#1599,#1618,#1635,
    #1647,#1664,#1675,#1686,#1719,#1743,#1767,#1801,#1825,#1842,#1854,
    #1865,#1882,#1893,#1905));
#17 = ADVANCED_FACE('',(#18,#314,#325),#336,.T.);
#18 = FACE_BOUND('',#19,.T.);
#19 = EDGE_LOOP('',(#20,#30,#39,#48,#56,#64,#72,#80,#88,#97,#106,#114,
    #122,#130,#138,#146,#154,#163,#171,#179,#187,#195,#203,#211,#219,
    #227,#235,#243,#251,#259,#267,#276,#284,#292,#300,#308));
#20 = ORIENTED_EDGE('',*,*,#21,.F.);
#21 = EDGE_CURVE('',#22,#24,#26,.T.);
#22 = VERTEX_POINT('',#23);
#23 = CARTESIAN_POINT('',(0.151647873507,3.121318298806,1.825));
#24 = VERTEX_POINT('',#25);
#25 = CARTESIAN_POINT('',(5.,7.,1.825));
#26 = LINE('',#27,#28);
#27 = CARTESIAN_POINT('',(0.,3.,1.825));
#28 = VECTOR('',#29,1.);
#29 = DIRECTION('',(0.780868809443,0.624695047554,0.));
#30 = ORIENTED_EDGE('',*,*,#31,.T.);
#31 = EDGE_CURVE('',#22,#32,#34,.T.);
#32 = VERTEX_POINT('',#33);
#33 = CARTESIAN_POINT('',(3.125,0.,1.825));
#34 = CIRCLE('',#35,3.125);
#35 = AXIS2_PLACEMENT_3D('',#36,#37,#38);
#36 = CARTESIAN_POINT('',(0.,0.,1.825));
#37 = DIRECTION('',(0.,0.,1.));
#38 = DIRECTION('',(1.,0.,0.));
#39 = ORIENTED_EDGE('',*,*,#40,.T.);
#40 = EDGE_CURVE('',#32,#41,#43,.T.);
#41 = VERTEX_POINT('',#42);
#42 = CARTESIAN_POINT('',(3.122594373218,0.122594373218,1.825));
#43 = CIRCLE('',#44,3.125);
#44 = AXIS2_PLACEMENT_3D('',#45,#46,#47);
#45 = CARTESIAN_POINT('',(0.,0.,1.825));
#46 = DIRECTION('',(0.,0.,1.));
#47 = DIRECTION('',(1.,0.,0.));
#48 = ORIENTED_EDGE('',*,*,#49,.T.);
#49 = EDGE_CURVE('',#41,#50,#52,.T.);
#50 = VERTEX_POINT('',#51);
#51 = CARTESIAN_POINT('',(5.,2.,1.825));
#52 = LINE('',#53,#54);
#53 = CARTESIAN_POINT('',(3.,0.,1.825));
#54 = VECTOR('',#55,1.);
#55 = DIRECTION('',(0.707106781187,0.707106781187,0.));
#56 = ORIENTED_EDGE('',*,*,#57,.T.);
#57 = EDGE_CURVE('',#50,#58,#60,.T.);
#58 = VERTEX_POINT('',#59);
#59 = CARTESIAN_POINT('',(6.0775,3.,1.825));
#60 = LINE('',#61,#62);
#61 = CARTESIAN_POINT('',(5.,2.,1.825));
#62 = VECTOR('',#63,1.);
#63 = DIRECTION('',(0.732975177552,0.680255385199,0.));
#64 = ORIENTED_EDGE('',*,*,#65,.T.);
#65 = EDGE_CURVE('',#58,#66,#68,.T.);
#66 = VERTEX_POINT('',#67);
#67 = CARTESIAN_POINT('',(55.6425,3.,1.825));
#68 = LINE('',#69,#70);
#69 = CARTESIAN_POINT('',(6.0775,3.,1.825));
#70 = VECTOR('',#71,1.);
#71 = DIRECTION('',(1.,0.,0.));
#72 = ORIENTED_EDGE('',*,*,#73,.T.);
#73 = EDGE_CURVE('',#66,#74,#76,.T.);
#74 = VERTEX_POINT('',#75);
#75 = CARTESIAN_POINT('',(56.72,2.,1.825));
#76 = LINE('',#77,#78);
#77 = CARTESIAN_POINT('',(55.6425,3.,1.825));
#78 = VECTOR('',#79,1.);
#79 = DIRECTION('',(0.732975177552,-0.680255385199,0.));
#80 = ORIENTED_EDGE('',*,*,#81,.F.);
#81 = EDGE_CURVE('',#82,#74,#84,.T.);
#82 = VERTEX_POINT('',#83);
#83 = CARTESIAN_POINT('',(58.597405626782,0.122594373218,1.825));
#84 = LINE('',#85,#86);
#85 = CARTESIAN_POINT('',(58.72,0.,1.825));
#86 = VECTOR('',#87,1.);
#87 = DIRECTION('',(-0.707106781187,0.707106781187,0.));
#88 = ORIENTED_EDGE('',*,*,#89,.T.);
#89 = EDGE_CURVE('',#82,#90,#92,.T.);
#90 = VERTEX_POINT('',#91);
#91 = CARTESIAN_POINT('',(64.845,0.,1.825));
#92 = CIRCLE('',#93,3.125);
#93 = AXIS2_PLACEMENT_3D('',#94,#95,#96);
#94 = CARTESIAN_POINT('',(61.72,0.,1.825));
#95 = DIRECTION('',(0.,0.,1.));
#96 = DIRECTION('',(1.,0.,0.));
#97 = ORIENTED_EDGE('',*,*,#98,.T.);
#98 = EDGE_CURVE('',#90,#99,#101,.T.);
#99 = VERTEX_POINT('',#100);
#100 = CARTESIAN_POINT('',(61.568352126493,3.121318298806,1.825));
#101 = CIRCLE('',#102,3.125);
#102 = AXIS2_PLACEMENT_3D('',#103,#104,#105);
#103 = CARTESIAN_POINT('',(61.72,0.,1.825));
#104 = DIRECTION('',(0.,0.,1.));
#105 = DIRECTION('',(1.,0.,0.));
#106 = ORIENTED_EDGE('',*,*,#107,.T.);
#107 = EDGE_CURVE('',#99,#108,#110,.T.);
#108 = VERTEX_POINT('',#109);
#109 = CARTESIAN_POINT('',(56.72,7.,1.825));
#110 = LINE('',#111,#112);
#111 = CARTESIAN_POINT('',(61.72,3.,1.825));
#112 = VECTOR('',#113,1.);
#113 = DIRECTION('',(-0.780868809443,0.624695047554,0.));
#114 = ORIENTED_EDGE('',*,*,#115,.T.);
#115 = EDGE_CURVE('',#108,#116,#118,.T.);
#116 = VERTEX_POINT('',#117);
#117 = CARTESIAN_POINT('',(56.72,14.,1.825));
#118 = LINE('',#119,#120);
#119 = CARTESIAN_POINT('',(56.72,7.,1.825));
#120 = VECTOR('',#121,1.);
#121 = DIRECTION('',(0.,1.,0.));
#122 = ORIENTED_EDGE('',*,*,#123,.T.);
#123 = EDGE_CURVE('',#116,#124,#126,.T.);
#124 = VERTEX_POINT('',#125);
#125 = CARTESIAN_POINT('',(64.06,16.75,1.825));
#126 = LINE('',#127,#128);
#127 = CARTESIAN_POINT('',(56.72,14.,1.825));
#128 = VECTOR('',#129,1.);
#129 = DIRECTION('',(0.93643399573,0.35084379949,0.));
#130 = ORIENTED_EDGE('',*,*,#131,.T.);
#131 = EDGE_CURVE('',#124,#132,#134,.T.);
#132 = VERTEX_POINT('',#133);
#133 = CARTESIAN_POINT('',(64.06,23.700000506532,1.825));
#134 = LINE('',#135,#136);
#135 = CARTESIAN_POINT('',(64.06,16.75,1.825));
#136 = VECTOR('',#137,1.);
#137 = DIRECTION('',(0.,1.,0.));
#138 = ORIENTED_EDGE('',*,*,#139,.T.);
#139 = EDGE_CURVE('',#132,#140,#142,.T.);
#140 = VERTEX_POINT('',#141);
#141 = CARTESIAN_POINT('',(62.215,23.700000506532,1.825));
#142 = LINE('',#143,#144);
#143 = CARTESIAN_POINT('',(64.06,23.700000506532,1.825));
#144 = VECTOR('',#145,1.);
#145 = DIRECTION('',(-1.,-2.08E-15,2.39E-15));
#146 = ORIENTED_EDGE('',*,*,#147,.T.);
#147 = EDGE_CURVE('',#140,#148,#150,.T.);
#148 = VERTEX_POINT('',#149);
#149 = CARTESIAN_POINT('',(62.215,21.25,1.825));
#150 = LINE('',#151,#152);
#151 = CARTESIAN_POINT('',(62.215,24.954999892022,1.825));
#152 = VECTOR('',#153,1.);
#153 = DIRECTION('',(1.92E-15,-1.,0.));
#154 = ORIENTED_EDGE('',*,*,#155,.F.);
#155 = EDGE_CURVE('',#156,#148,#158,.T.);
#156 = VERTEX_POINT('',#157);
#157 = CARTESIAN_POINT('',(61.215000018661,20.25,1.825));
#158 = CIRCLE('',#159,1.);
#159 = AXIS2_PLACEMENT_3D('',#160,#161,#162);
#160 = CARTESIAN_POINT('',(61.215,21.25,1.825));
#161 = DIRECTION('',(0.,0.,1.));
#162 = DIRECTION('',(1.,0.,0.));
#163 = ORIENTED_EDGE('',*,*,#164,.T.);
#164 = EDGE_CURVE('',#156,#165,#167,.T.);
#165 = VERTEX_POINT('',#166);
#166 = CARTESIAN_POINT('',(59.01,20.25,1.825));
#167 = LINE('',#168,#169);
#168 = CARTESIAN_POINT('',(61.215000018661,20.25,1.825));
#169 = VECTOR('',#170,1.);
#170 = DIRECTION('',(-1.,-5.04E-15,0.));
#171 = ORIENTED_EDGE('',*,*,#172,.T.);
#172 = EDGE_CURVE('',#165,#173,#175,.T.);
#173 = VERTEX_POINT('',#174);
#174 = CARTESIAN_POINT('',(59.01,25.25,1.825));
#175 = LINE('',#176,#177);
#176 = CARTESIAN_POINT('',(59.01,20.25,1.825));
#177 = VECTOR('',#178,1.);
#178 = DIRECTION('',(0.,1.,-2.2E-16));
#179 = ORIENTED_EDGE('',*,*,#180,.T.);
#180 = EDGE_CURVE('',#173,#181,#183,.T.);
#181 = VERTEX_POINT('',#182);
#182 = CARTESIAN_POINT('',(57.51,25.25,1.825));
#183 = LINE('',#184,#185);
#184 = CARTESIAN_POINT('',(59.01,25.25,1.825));
#185 = VECTOR('',#186,1.);
#186 = DIRECTION('',(-1.,0.,0.));
#187 = ORIENTED_EDGE('',*,*,#188,.F.);
#188 = EDGE_CURVE('',#189,#181,#191,.T.);
#189 = VERTEX_POINT('',#190);
#190 = CARTESIAN_POINT('',(57.51,18.75,1.825));
#191 = LINE('',#192,#193);
#192 = CARTESIAN_POINT('',(57.51,20.25,1.825));
#193 = VECTOR('',#194,1.);
#194 = DIRECTION('',(0.,1.,-2.2E-16));
#195 = ORIENTED_EDGE('',*,*,#196,.T.);
#196 = EDGE_CURVE('',#189,#197,#199,.T.);
#197 = VERTEX_POINT('',#198);
#198 = CARTESIAN_POINT('',(57.51,18.362403100775,1.825));
#199 = LINE('',#200,#201);
#200 = CARTESIAN_POINT('',(57.51,20.25,1.825));
#201 = VECTOR('',#202,1.);
#202 = DIRECTION('',(0.,-1.,0.));
#203 = ORIENTED_EDGE('',*,*,#204,.T.);
#204 = EDGE_CURVE('',#197,#205,#207,.T.);
#205 = VERTEX_POINT('',#206);
#206 = CARTESIAN_POINT('',(56.72,17.75,1.825));
#207 = LINE('',#208,#209);
#208 = CARTESIAN_POINT('',(57.51,18.362403100775,1.825));
#209 = VECTOR('',#210,1.);
#210 = DIRECTION('',(-0.790340885165,-0.612667352841,0.));
#211 = ORIENTED_EDGE('',*,*,#212,.F.);
#212 = EDGE_CURVE('',#213,#205,#215,.T.);
#213 = VERTEX_POINT('',#214);
#214 = CARTESIAN_POINT('',(5.,17.75,1.825));
#215 = LINE('',#216,#217);
#216 = CARTESIAN_POINT('',(5.,17.75,1.825));
#217 = VECTOR('',#218,1.);
#218 = DIRECTION('',(1.,0.,0.));
#219 = ORIENTED_EDGE('',*,*,#220,.F.);
#220 = EDGE_CURVE('',#221,#213,#223,.T.);
#221 = VERTEX_POINT('',#222);
#222 = CARTESIAN_POINT('',(4.2,18.365384615385,1.825));
#223 = LINE('',#224,#225);
#224 = CARTESIAN_POINT('',(4.2,18.365384615385,1.825));
#225 = VECTOR('',#226,1.);
#226 = DIRECTION('',(0.792623989105,-0.60971076085,0.));
#227 = ORIENTED_EDGE('',*,*,#228,.F.);
#228 = EDGE_CURVE('',#229,#221,#231,.T.);
#229 = VERTEX_POINT('',#230);
#230 = CARTESIAN_POINT('',(4.2,18.75,1.825));
#231 = LINE('',#232,#233);
#232 = CARTESIAN_POINT('',(4.2,20.25,1.825));
#233 = VECTOR('',#234,1.);
#234 = DIRECTION('',(0.,-1.,0.));
#235 = ORIENTED_EDGE('',*,*,#236,.F.);
#236 = EDGE_CURVE('',#237,#229,#239,.T.);
#237 = VERTEX_POINT('',#238);
#238 = CARTESIAN_POINT('',(4.2,25.25,1.825));
#239 = LINE('',#240,#241);
#240 = CARTESIAN_POINT('',(4.2,20.25,1.825));
#241 = VECTOR('',#242,1.);
#242 = DIRECTION('',(0.,-1.,0.));
#243 = ORIENTED_EDGE('',*,*,#244,.T.);
#244 = EDGE_CURVE('',#237,#245,#247,.T.);
#245 = VERTEX_POINT('',#246);
#246 = CARTESIAN_POINT('',(2.7,25.25,1.825));
#247 = LINE('',#248,#249);
#248 = CARTESIAN_POINT('',(4.2,25.25,1.825));
#249 = VECTOR('',#250,1.);
#250 = DIRECTION('',(-1.,0.,0.));
#251 = ORIENTED_EDGE('',*,*,#252,.F.);
#252 = EDGE_CURVE('',#253,#245,#255,.T.);
#253 = VERTEX_POINT('',#254);
#254 = CARTESIAN_POINT('',(2.7,20.25,1.825));
#255 = LINE('',#256,#257);
#256 = CARTESIAN_POINT('',(2.7,20.25,1.825));
#257 = VECTOR('',#258,1.);
#258 = DIRECTION('',(0.,1.,-2.2E-16));
#259 = ORIENTED_EDGE('',*,*,#260,.F.);
#260 = EDGE_CURVE('',#261,#253,#263,.T.);
#261 = VERTEX_POINT('',#262);
#262 = CARTESIAN_POINT('',(0.505000058071,20.25,1.825));
#263 = LINE('',#264,#265);
#264 = CARTESIAN_POINT('',(3.7,20.25,1.825));
#265 = VECTOR('',#266,1.);
#266 = DIRECTION('',(1.,0.,0.));
#267 = ORIENTED_EDGE('',*,*,#268,.F.);
#268 = EDGE_CURVE('',#269,#261,#271,.T.);
#269 = VERTEX_POINT('',#270);
#270 = CARTESIAN_POINT('',(-0.495,21.25,1.825));
#271 = CIRCLE('',#272,1.);
#272 = AXIS2_PLACEMENT_3D('',#273,#274,#275);
#273 = CARTESIAN_POINT('',(0.505,21.25,1.825));
#274 = DIRECTION('',(0.,0.,1.));
#275 = DIRECTION('',(1.,0.,0.));
#276 = ORIENTED_EDGE('',*,*,#277,.T.);
#277 = EDGE_CURVE('',#269,#278,#280,.T.);
#278 = VERTEX_POINT('',#279);
#279 = CARTESIAN_POINT('',(-0.495,23.69999943266,1.825));
#280 = LINE('',#281,#282);
#281 = CARTESIAN_POINT('',(-0.495,21.25,1.825));
#282 = VECTOR('',#283,1.);
#283 = DIRECTION('',(0.,1.,0.));
#284 = ORIENTED_EDGE('',*,*,#285,.F.);
#285 = EDGE_CURVE('',#286,#278,#288,.T.);
#286 = VERTEX_POINT('',#287);
#287 = CARTESIAN_POINT('',(-2.34,23.69999943266,1.825));
#288 = LINE('',#289,#290);
#289 = CARTESIAN_POINT('',(-2.34,23.69999943266,1.825));
#290 = VECTOR('',#291,1.);
#291 = DIRECTION('',(1.,0.,-2.2E-16));
#292 = ORIENTED_EDGE('',*,*,#293,.T.);
#293 = EDGE_CURVE('',#286,#294,#296,.T.);
#294 = VERTEX_POINT('',#295);
#295 = CARTESIAN_POINT('',(-2.34,16.75,1.825));
#296 = LINE('',#297,#298);
#297 = CARTESIAN_POINT('',(-2.34,23.69999943266,1.825));
#298 = VECTOR('',#299,1.);
#299 = DIRECTION('',(-2.6E-16,-1.,0.));
#300 = ORIENTED_EDGE('',*,*,#301,.F.);
#301 = EDGE_CURVE('',#302,#294,#304,.T.);
#302 = VERTEX_POINT('',#303);
#303 = CARTESIAN_POINT('',(5.,14.,1.825));
#304 = LINE('',#305,#306);
#305 = CARTESIAN_POINT('',(5.,14.,1.825));
#306 = VECTOR('',#307,1.);
#307 = DIRECTION('',(-0.93643399573,0.35084379949,0.));
#308 = ORIENTED_EDGE('',*,*,#309,.F.);
#309 = EDGE_CURVE('',#24,#302,#310,.T.);
#310 = LINE('',#311,#312);
#311 = CARTESIAN_POINT('',(5.,7.,1.825));
#312 = VECTOR('',#313,1.);
#313 = DIRECTION('',(0.,1.,0.));
#314 = FACE_BOUND('',#315,.T.);
#315 = EDGE_LOOP('',(#316));
#316 = ORIENTED_EDGE('',*,*,#317,.F.);
#317 = EDGE_CURVE('',#318,#318,#320,.T.);
#318 = VERTEX_POINT('',#319);
#319 = CARTESIAN_POINT('',(-1.7,0.,1.825));
#320 = CIRCLE('',#321,1.7);
#321 = AXIS2_PLACEMENT_3D('',#322,#323,#324);
#322 = CARTESIAN_POINT('',(0.,0.,1.825));
#323 = DIRECTION('',(0.,0.,1.));
#324 = DIRECTION('',(-1.,0.,0.));
#325 = FACE_BOUND('',#326,.T.);
#326 = EDGE_LOOP('',(#327));
#327 = ORIENTED_EDGE('',*,*,#328,.F.);
#328 = EDGE_CURVE('',#329,#329,#331,.T.);
#329 = VERTEX_POINT('',#330);
#330 = CARTESIAN_POINT('',(60.02,0.,1.825));
#331 = CIRCLE('',#332,1.7);
#332 = AXIS2_PLACEMENT_3D('',#333,#334,#335);
#333 = CARTESIAN_POINT('',(61.72,0.,1.825));
#334 = DIRECTION('',(0.,0.,1.));
#335 = DIRECTION('',(-1.,0.,0.));
#336 = PLANE('',#337);
#337 = AXIS2_PLACEMENT_3D('',#338,#339,#340);
#338 = CARTESIAN_POINT('',(30.99931021457,11.699345036629,1.825));
#339 = DIRECTION('',(0.,0.,1.));
#340 = DIRECTION('',(1.,0.,0.));
#341 = ADVANCED_FACE('',(#342),#367,.T.);
#342 = FACE_BOUND('',#343,.T.);
#343 = EDGE_LOOP('',(#344,#354,#360,#361));
#344 = ORIENTED_EDGE('',*,*,#345,.F.);
#345 = EDGE_CURVE('',#346,#348,#350,.T.);
#346 = VERTEX_POINT('',#347);
#347 = CARTESIAN_POINT('',(0.151647873507,3.121318298806,0.));
#348 = VERTEX_POINT('',#349);
#349 = CARTESIAN_POINT('',(5.,7.,0.));
#350 = LINE('',#351,#352);
#351 = CARTESIAN_POINT('',(0.,3.,0.));
#352 = VECTOR('',#353,1.);
#353 = DIRECTION('',(0.780868809443,0.624695047554,0.));
#354 = ORIENTED_EDGE('',*,*,#355,.F.);
#355 = EDGE_CURVE('',#22,#346,#356,.T.);
#356 = LINE('',#357,#358);
#357 = CARTESIAN_POINT('',(0.151647873507,3.121318298806,0.));
#358 = VECTOR('',#359,1.);
#359 = DIRECTION('',(-0.,-0.,-1.));
#360 = ORIENTED_EDGE('',*,*,#21,.T.);
#361 = ORIENTED_EDGE('',*,*,#362,.F.);
#362 = EDGE_CURVE('',#348,#24,#363,.T.);
#363 = LINE('',#364,#365);
#364 = CARTESIAN_POINT('',(5.,7.,0.));
#365 = VECTOR('',#366,1.);
#366 = DIRECTION('',(0.,0.,1.));
#367 = PLANE('',#368);
#368 = AXIS2_PLACEMENT_3D('',#369,#370,#371);
#369 = CARTESIAN_POINT('',(0.,3.,0.));
#370 = DIRECTION('',(-0.624695047554,0.780868809443,0.));
#371 = DIRECTION('',(0.780868809443,0.624695047554,0.));
#372 = ADVANCED_FACE('',(#373),#402,.T.);
#373 = FACE_BOUND('',#374,.F.);
#374 = EDGE_LOOP('',(#375,#383,#392,#399,#400,#401));
#375 = ORIENTED_EDGE('',*,*,#376,.T.);
#376 = EDGE_CURVE('',#41,#377,#379,.T.);
#377 = VERTEX_POINT('',#378);
#378 = CARTESIAN_POINT('',(3.122594373218,0.122594373218,0.));
#379 = LINE('',#380,#381);
#380 = CARTESIAN_POINT('',(3.122594373218,0.122594373218,0.));
#381 = VECTOR('',#382,1.);
#382 = DIRECTION('',(-0.,-0.,-1.));
#383 = ORIENTED_EDGE('',*,*,#384,.F.);
#384 = EDGE_CURVE('',#385,#377,#387,.T.);
#385 = VERTEX_POINT('',#386);
#386 = CARTESIAN_POINT('',(3.125,0.,0.));
#387 = CIRCLE('',#388,3.125);
#388 = AXIS2_PLACEMENT_3D('',#389,#390,#391);
#389 = CARTESIAN_POINT('',(0.,0.,0.));
#390 = DIRECTION('',(0.,0.,1.));
#391 = DIRECTION('',(1.,0.,0.));
#392 = ORIENTED_EDGE('',*,*,#393,.F.);
#393 = EDGE_CURVE('',#346,#385,#394,.T.);
#394 = CIRCLE('',#395,3.125);
#395 = AXIS2_PLACEMENT_3D('',#396,#397,#398);
#396 = CARTESIAN_POINT('',(0.,0.,0.));
#397 = DIRECTION('',(0.,0.,1.));
#398 = DIRECTION('',(1.,0.,0.));
#399 = ORIENTED_EDGE('',*,*,#355,.F.);
#400 = ORIENTED_EDGE('',*,*,#31,.T.);
#401 = ORIENTED_EDGE('',*,*,#40,.T.);
#402 = CYLINDRICAL_SURFACE('',#403,3.125);
#403 = AXIS2_PLACEMENT_3D('',#404,#405,#406);
#404 = CARTESIAN_POINT('',(0.,0.,0.));
#405 = DIRECTION('',(-0.,-0.,-1.));
#406 = DIRECTION('',(1.,0.,0.));
#407 = ADVANCED_FACE('',(#408),#426,.T.);
#408 = FACE_BOUND('',#409,.T.);
#409 = EDGE_LOOP('',(#410,#411,#412,#420));
#410 = ORIENTED_EDGE('',*,*,#362,.T.);
#411 = ORIENTED_EDGE('',*,*,#309,.T.);
#412 = ORIENTED_EDGE('',*,*,#413,.F.);
#413 = EDGE_CURVE('',#414,#302,#416,.T.);
#414 = VERTEX_POINT('',#415);
#415 = CARTESIAN_POINT('',(5.,14.,0.));
#416 = LINE('',#417,#418);
#417 = CARTESIAN_POINT('',(5.,14.,0.));
#418 = VECTOR('',#419,1.);
#419 = DIRECTION('',(0.,0.,1.));
#420 = ORIENTED_EDGE('',*,*,#421,.F.);
#421 = EDGE_CURVE('',#348,#414,#422,.T.);
#422 = LINE('',#423,#424);
#423 = CARTESIAN_POINT('',(5.,7.,0.));
#424 = VECTOR('',#425,1.);
#425 = DIRECTION('',(0.,1.,0.));
#426 = PLANE('',#427);
#427 = AXIS2_PLACEMENT_3D('',#428,#429,#430);
#428 = CARTESIAN_POINT('',(5.,7.,0.));
#429 = DIRECTION('',(-1.,0.,0.));
#430 = DIRECTION('',(0.,1.,0.));
#431 = ADVANCED_FACE('',(#432),#450,.T.);
#432 = FACE_BOUND('',#433,.T.);
#433 = EDGE_LOOP('',(#434,#435,#436,#444));
#434 = ORIENTED_EDGE('',*,*,#413,.T.);
#435 = ORIENTED_EDGE('',*,*,#301,.T.);
#436 = ORIENTED_EDGE('',*,*,#437,.F.);
#437 = EDGE_CURVE('',#438,#294,#440,.T.);
#438 = VERTEX_POINT('',#439);
#439 = CARTESIAN_POINT('',(-2.34,16.75,0.));
#440 = LINE('',#441,#442);
#441 = CARTESIAN_POINT('',(-2.34,16.75,0.));
#442 = VECTOR('',#443,1.);
#443 = DIRECTION('',(0.,0.,1.));
#444 = ORIENTED_EDGE('',*,*,#445,.F.);
#445 = EDGE_CURVE('',#414,#438,#446,.T.);
#446 = LINE('',#447,#448);
#447 = CARTESIAN_POINT('',(5.,14.,0.));
#448 = VECTOR('',#449,1.);
#449 = DIRECTION('',(-0.93643399573,0.35084379949,0.));
#450 = PLANE('',#451);
#451 = AXIS2_PLACEMENT_3D('',#452,#453,#454);
#452 = CARTESIAN_POINT('',(5.,14.,0.));
#453 = DIRECTION('',(-0.35084379949,-0.93643399573,0.));
#454 = DIRECTION('',(-0.93643399573,0.35084379949,0.));
#455 = ADVANCED_FACE('',(#456),#474,.F.);
#456 = FACE_BOUND('',#457,.F.);
#457 = EDGE_LOOP('',(#458,#466,#467,#468));
#458 = ORIENTED_EDGE('',*,*,#459,.F.);
#459 = EDGE_CURVE('',#377,#460,#462,.T.);
#460 = VERTEX_POINT('',#461);
#461 = CARTESIAN_POINT('',(5.,2.,0.));
#462 = LINE('',#463,#464);
#463 = CARTESIAN_POINT('',(3.,0.,0.));
#464 = VECTOR('',#465,1.);
#465 = DIRECTION('',(0.707106781187,0.707106781187,0.));
#466 = ORIENTED_EDGE('',*,*,#376,.F.);
#467 = ORIENTED_EDGE('',*,*,#49,.T.);
#468 = ORIENTED_EDGE('',*,*,#469,.F.);
#469 = EDGE_CURVE('',#460,#50,#470,.T.);
#470 = LINE('',#471,#472);
#471 = CARTESIAN_POINT('',(5.,2.,0.));
#472 = VECTOR('',#473,1.);
#473 = DIRECTION('',(0.,0.,1.));
#474 = PLANE('',#475);
#475 = AXIS2_PLACEMENT_3D('',#476,#477,#478);
#476 = CARTESIAN_POINT('',(3.,0.,0.));
#477 = DIRECTION('',(-0.707106781187,0.707106781187,0.));
#478 = DIRECTION('',(0.707106781187,0.707106781187,0.));
#479 = ADVANCED_FACE('',(#480),#530,.T.);
#480 = FACE_BOUND('',#481,.T.);
#481 = EDGE_LOOP('',(#482,#490,#498,#506,#514,#522,#528,#529));
#482 = ORIENTED_EDGE('',*,*,#483,.F.);
#483 = EDGE_CURVE('',#484,#286,#486,.T.);
#484 = VERTEX_POINT('',#485);
#485 = CARTESIAN_POINT('',(-2.34,23.69999943266,-3.175));
#486 = LINE('',#487,#488);
#487 = CARTESIAN_POINT('',(-2.34,23.69999943266,0.));
#488 = VECTOR('',#489,1.);
#489 = DIRECTION('',(0.,0.,1.));
#490 = ORIENTED_EDGE('',*,*,#491,.T.);
#491 = EDGE_CURVE('',#484,#492,#494,.T.);
#492 = VERTEX_POINT('',#493);
#493 = CARTESIAN_POINT('',(-2.34,17.75,-3.175));
#494 = LINE('',#495,#496);
#495 = CARTESIAN_POINT('',(-2.34,23.69999943266,-3.175));
#496 = VECTOR('',#497,1.);
#497 = DIRECTION('',(-1.8E-16,-1.,0.));
#498 = ORIENTED_EDGE('',*,*,#499,.T.);
#499 = EDGE_CURVE('',#492,#500,#502,.T.);
#500 = VERTEX_POINT('',#501);
#501 = CARTESIAN_POINT('',(-2.34,17.75,-1.925));
#502 = LINE('',#503,#504);
#503 = CARTESIAN_POINT('',(-2.34,17.75,-3.175));
#504 = VECTOR('',#505,1.);
#505 = DIRECTION('',(0.,0.,1.));
#506 = ORIENTED_EDGE('',*,*,#507,.F.);
#507 = EDGE_CURVE('',#508,#500,#510,.T.);
#508 = VERTEX_POINT('',#509);
#509 = CARTESIAN_POINT('',(-2.34,18.75,-1.925));
#510 = LINE('',#511,#512);
#511 = CARTESIAN_POINT('',(-2.34,18.75,-1.925));
#512 = VECTOR('',#513,1.);
#513 = DIRECTION('',(7.66E-15,-1.,2.2E-16));
#514 = ORIENTED_EDGE('',*,*,#515,.F.);
#515 = EDGE_CURVE('',#516,#508,#518,.T.);
#516 = VERTEX_POINT('',#517);
#517 = CARTESIAN_POINT('',(-2.34,18.75,0.));
#518 = LINE('',#519,#520);
#519 = CARTESIAN_POINT('',(-2.34,18.75,0.));
#520 = VECTOR('',#521,1.);
#521 = DIRECTION('',(-0.,-0.,-1.));
#522 = ORIENTED_EDGE('',*,*,#523,.T.);
#523 = EDGE_CURVE('',#516,#438,#524,.T.);
#524 = LINE('',#525,#526);
#525 = CARTESIAN_POINT('',(-2.34,23.69999943266,0.));
#526 = VECTOR('',#527,1.);
#527 = DIRECTION('',(-2.6E-16,-1.,0.));
#528 = ORIENTED_EDGE('',*,*,#437,.T.);
#529 = ORIENTED_EDGE('',*,*,#293,.F.);
#530 = PLANE('',#531);
#531 = AXIS2_PLACEMENT_3D('',#532,#533,#534);
#532 = CARTESIAN_POINT('',(-2.34,20.269401284582,-0.574613895216));
#533 = DIRECTION('',(-1.,-0.,-0.));
#534 = DIRECTION('',(0.,0.,-1.));
#535 = ADVANCED_FACE('',(#536),#554,.F.);
#536 = FACE_BOUND('',#537,.F.);
#537 = EDGE_LOOP('',(#538,#539,#540,#548));
#538 = ORIENTED_EDGE('',*,*,#469,.T.);
#539 = ORIENTED_EDGE('',*,*,#57,.T.);
#540 = ORIENTED_EDGE('',*,*,#541,.F.);
#541 = EDGE_CURVE('',#542,#58,#544,.T.);
#542 = VERTEX_POINT('',#543);
#543 = CARTESIAN_POINT('',(6.0775,3.,0.));
#544 = LINE('',#545,#546);
#545 = CARTESIAN_POINT('',(6.0775,3.,0.));
#546 = VECTOR('',#547,1.);
#547 = DIRECTION('',(0.,0.,1.));
#548 = ORIENTED_EDGE('',*,*,#549,.F.);
#549 = EDGE_CURVE('',#460,#542,#550,.T.);
#550 = LINE('',#551,#552);
#551 = CARTESIAN_POINT('',(5.,2.,0.));
#552 = VECTOR('',#553,1.);
#553 = DIRECTION('',(0.732975177552,0.680255385199,0.));
#554 = PLANE('',#555);
#555 = AXIS2_PLACEMENT_3D('',#556,#557,#558);
#556 = CARTESIAN_POINT('',(5.,2.,0.));
#557 = DIRECTION('',(-0.680255385199,0.732975177552,0.));
#558 = DIRECTION('',(0.732975177552,0.680255385199,0.));
#559 = ADVANCED_FACE('',(#560),#585,.F.);
#560 = FACE_BOUND('',#561,.F.);
#561 = EDGE_LOOP('',(#562,#570,#578,#584));
#562 = ORIENTED_EDGE('',*,*,#563,.F.);
#563 = EDGE_CURVE('',#564,#286,#566,.T.);
#564 = VERTEX_POINT('',#565);
#565 = CARTESIAN_POINT('',(-0.79,25.24999971633,0.275));
#566 = LINE('',#567,#568);
#567 = CARTESIAN_POINT('',(-1.148333478727,24.891666390114,
    0.633333042546));
#568 = VECTOR('',#569,1.);
#569 = DIRECTION('',(-0.577350128306,-0.577350339631,0.577350339631));
#570 = ORIENTED_EDGE('',*,*,#571,.F.);
#571 = EDGE_CURVE('',#572,#564,#574,.T.);
#572 = VERTEX_POINT('',#573);
#573 = CARTESIAN_POINT('',(-0.495,24.955000096404,0.569999336256));
#574 = LINE('',#575,#576);
#575 = CARTESIAN_POINT('',(-1.157499840785,25.617499720687,
    -9.250028802713E-02));
#576 = VECTOR('',#577,1.);
#577 = DIRECTION('',(-0.577350394973,0.577350206298,-0.577350206298));
#578 = ORIENTED_EDGE('',*,*,#579,.F.);
#579 = EDGE_CURVE('',#278,#572,#580,.T.);
#580 = LINE('',#581,#582);
#581 = CARTESIAN_POINT('',(-0.495,24.950624586546,0.574374846115));
#582 = VECTOR('',#583,1.);
#583 = DIRECTION('',(0.,0.707106781187,-0.707106781187));
#584 = ORIENTED_EDGE('',*,*,#285,.F.);
#585 = PLANE('',#586);
#586 = AXIS2_PLACEMENT_3D('',#587,#588,#589);
#587 = CARTESIAN_POINT('',(-2.34,25.24999943266,0.275));
#588 = DIRECTION('',(-1.6E-16,-0.707106781187,-0.707106781187));
#589 = DIRECTION('',(1.6E-16,-0.707106781187,0.707106781187));
#590 = ADVANCED_FACE('',(#591),#609,.F.);
#591 = FACE_BOUND('',#592,.F.);
#592 = EDGE_LOOP('',(#593,#594,#595,#603));
#593 = ORIENTED_EDGE('',*,*,#541,.T.);
#594 = ORIENTED_EDGE('',*,*,#65,.T.);
#595 = ORIENTED_EDGE('',*,*,#596,.F.);
#596 = EDGE_CURVE('',#597,#66,#599,.T.);
#597 = VERTEX_POINT('',#598);
#598 = CARTESIAN_POINT('',(55.6425,3.,0.));
#599 = LINE('',#600,#601);
#600 = CARTESIAN_POINT('',(55.6425,3.,0.));
#601 = VECTOR('',#602,1.);
#602 = DIRECTION('',(0.,0.,1.));
#603 = ORIENTED_EDGE('',*,*,#604,.F.);
#604 = EDGE_CURVE('',#542,#597,#605,.T.);
#605 = LINE('',#606,#607);
#606 = CARTESIAN_POINT('',(6.0775,3.,0.));
#607 = VECTOR('',#608,1.);
#608 = DIRECTION('',(1.,0.,0.));
#609 = PLANE('',#610);
#610 = AXIS2_PLACEMENT_3D('',#611,#612,#613);
#611 = CARTESIAN_POINT('',(6.0775,3.,0.));
#612 = DIRECTION('',(0.,1.,0.));
#613 = DIRECTION('',(1.,0.,0.));
#614 = ADVANCED_FACE('',(#615),#649,.T.);
#615 = FACE_BOUND('',#616,.T.);
#616 = EDGE_LOOP('',(#617,#625,#633,#641,#647,#648));
#617 = ORIENTED_EDGE('',*,*,#618,.F.);
#618 = EDGE_CURVE('',#619,#269,#621,.T.);
#619 = VERTEX_POINT('',#620);
#620 = CARTESIAN_POINT('',(-0.495,21.25,-3.175));
#621 = LINE('',#622,#623);
#622 = CARTESIAN_POINT('',(-0.495,21.25,0.));
#623 = VECTOR('',#624,1.);
#624 = DIRECTION('',(0.,0.,1.));
#625 = ORIENTED_EDGE('',*,*,#626,.F.);
#626 = EDGE_CURVE('',#627,#619,#629,.T.);
#627 = VERTEX_POINT('',#628);
#628 = CARTESIAN_POINT('',(-0.495,23.69999943266,-3.175));
#629 = LINE('',#630,#631);
#630 = CARTESIAN_POINT('',(-0.495,24.955000096404,-3.175));
#631 = VECTOR('',#632,1.);
#632 = DIRECTION('',(-6.E-17,-1.,0.));
#633 = ORIENTED_EDGE('',*,*,#634,.T.);
#634 = EDGE_CURVE('',#627,#635,#637,.T.);
#635 = VERTEX_POINT('',#636);
#636 = CARTESIAN_POINT('',(-0.495,24.955000096404,-1.919999336256));
#637 = LINE('',#638,#639);
#638 = CARTESIAN_POINT('',(-0.495,24.950624586546,-1.924374846115));
#639 = VECTOR('',#640,1.);
#640 = DIRECTION('',(0.,0.707106781187,0.707106781187));
#641 = ORIENTED_EDGE('',*,*,#642,.F.);
#642 = EDGE_CURVE('',#572,#635,#643,.T.);
#643 = LINE('',#644,#645);
#644 = CARTESIAN_POINT('',(-0.495,24.955000096404,0.));
#645 = VECTOR('',#646,1.);
#646 = DIRECTION('',(-0.,-0.,-1.));
#647 = ORIENTED_EDGE('',*,*,#579,.F.);
#648 = ORIENTED_EDGE('',*,*,#277,.F.);
#649 = PLANE('',#650);
#650 = AXIS2_PLACEMENT_3D('',#651,#652,#653);
#651 = CARTESIAN_POINT('',(-0.495,23.102500048202,-0.675));
#652 = DIRECTION('',(1.,0.,0.));
#653 = DIRECTION('',(0.,0.,1.));
#654 = ADVANCED_FACE('',(#655),#673,.F.);
#655 = FACE_BOUND('',#656,.F.);
#656 = EDGE_LOOP('',(#657,#658,#659,#667));
#657 = ORIENTED_EDGE('',*,*,#596,.T.);
#658 = ORIENTED_EDGE('',*,*,#73,.T.);
#659 = ORIENTED_EDGE('',*,*,#660,.F.);
#660 = EDGE_CURVE('',#661,#74,#663,.T.);
#661 = VERTEX_POINT('',#662);
#662 = CARTESIAN_POINT('',(56.72,2.,0.));
#663 = LINE('',#664,#665);
#664 = CARTESIAN_POINT('',(56.72,2.,0.));
#665 = VECTOR('',#666,1.);
#666 = DIRECTION('',(0.,0.,1.));
#667 = ORIENTED_EDGE('',*,*,#668,.F.);
#668 = EDGE_CURVE('',#597,#661,#669,.T.);
#669 = LINE('',#670,#671);
#670 = CARTESIAN_POINT('',(55.6425,3.,0.));
#671 = VECTOR('',#672,1.);
#672 = DIRECTION('',(0.732975177552,-0.680255385199,0.));
#673 = PLANE('',#674);
#674 = AXIS2_PLACEMENT_3D('',#675,#676,#677);
#675 = CARTESIAN_POINT('',(55.6425,3.,0.));
#676 = DIRECTION('',(0.680255385199,0.732975177552,0.));
#677 = DIRECTION('',(0.732975177552,-0.680255385199,0.));
#678 = ADVANCED_FACE('',(#679),#706,.F.);
#679 = FACE_BOUND('',#680,.T.);
#680 = EDGE_LOOP('',(#681,#690,#691,#692,#700));
#681 = ORIENTED_EDGE('',*,*,#682,.F.);
#682 = EDGE_CURVE('',#619,#683,#685,.T.);
#683 = VERTEX_POINT('',#684);
#684 = CARTESIAN_POINT('',(0.504999673205,20.25,-3.175));
#685 = CIRCLE('',#686,1.);
#686 = AXIS2_PLACEMENT_3D('',#687,#688,#689);
#687 = CARTESIAN_POINT('',(0.505,21.25,-3.175));
#688 = DIRECTION('',(0.,0.,1.));
#689 = DIRECTION('',(1.,0.,0.));
#690 = ORIENTED_EDGE('',*,*,#618,.T.);
#691 = ORIENTED_EDGE('',*,*,#268,.T.);
#692 = ORIENTED_EDGE('',*,*,#693,.F.);
#693 = EDGE_CURVE('',#694,#261,#696,.T.);
#694 = VERTEX_POINT('',#695);
#695 = CARTESIAN_POINT('',(0.504999865638,20.25,0.));
#696 = LINE('',#697,#698);
#697 = CARTESIAN_POINT('',(0.505000058071,20.25,0.));
#698 = VECTOR('',#699,1.);
#699 = DIRECTION('',(0.,0.,1.));
#700 = ORIENTED_EDGE('',*,*,#701,.T.);
#701 = EDGE_CURVE('',#694,#683,#702,.T.);
#702 = LINE('',#703,#704);
#703 = CARTESIAN_POINT('',(0.504999673205,20.25,0.));
#704 = VECTOR('',#705,1.);
#705 = DIRECTION('',(-0.,-0.,-1.));
#706 = CYLINDRICAL_SURFACE('',#707,1.);
#707 = AXIS2_PLACEMENT_3D('',#708,#709,#710);
#708 = CARTESIAN_POINT('',(0.505,21.25,0.));
#709 = DIRECTION('',(-0.,-0.,-1.));
#710 = DIRECTION('',(1.,0.,0.));
#711 = ADVANCED_FACE('',(#712),#730,.T.);
#712 = FACE_BOUND('',#713,.T.);
#713 = EDGE_LOOP('',(#714,#722,#728,#729));
#714 = ORIENTED_EDGE('',*,*,#715,.F.);
#715 = EDGE_CURVE('',#716,#661,#718,.T.);
#716 = VERTEX_POINT('',#717);
#717 = CARTESIAN_POINT('',(58.597405626782,0.122594373218,0.));
#718 = LINE('',#719,#720);
#719 = CARTESIAN_POINT('',(58.72,0.,0.));
#720 = VECTOR('',#721,1.);
#721 = DIRECTION('',(-0.707106781187,0.707106781187,0.));
#722 = ORIENTED_EDGE('',*,*,#723,.F.);
#723 = EDGE_CURVE('',#82,#716,#724,.T.);
#724 = LINE('',#725,#726);
#725 = CARTESIAN_POINT('',(58.597405626782,0.122594373218,0.));
#726 = VECTOR('',#727,1.);
#727 = DIRECTION('',(-0.,-0.,-1.));
#728 = ORIENTED_EDGE('',*,*,#81,.T.);
#729 = ORIENTED_EDGE('',*,*,#660,.F.);
#730 = PLANE('',#731);
#731 = AXIS2_PLACEMENT_3D('',#732,#733,#734);
#732 = CARTESIAN_POINT('',(58.72,0.,0.));
#733 = DIRECTION('',(-0.707106781187,-0.707106781187,0.));
#734 = DIRECTION('',(-0.707106781187,0.707106781187,0.));
#735 = ADVANCED_FACE('',(#736),#754,.T.);
#736 = FACE_BOUND('',#737,.T.);
#737 = EDGE_LOOP('',(#738,#739,#747,#753));
#738 = ORIENTED_EDGE('',*,*,#260,.T.);
#739 = ORIENTED_EDGE('',*,*,#740,.T.);
#740 = EDGE_CURVE('',#253,#741,#743,.T.);
#741 = VERTEX_POINT('',#742);
#742 = CARTESIAN_POINT('',(2.210992843139,20.25,0.));
#743 = LINE('',#744,#745);
#744 = CARTESIAN_POINT('',(2.7,20.25,1.825));
#745 = VECTOR('',#746,1.);
#746 = DIRECTION('',(-0.258818986177,0.,-0.965925842078));
#747 = ORIENTED_EDGE('',*,*,#748,.T.);
#748 = EDGE_CURVE('',#741,#694,#749,.T.);
#749 = LINE('',#750,#751);
#750 = CARTESIAN_POINT('',(1.200000049212,20.25,0.));
#751 = VECTOR('',#752,1.);
#752 = DIRECTION('',(-1.,0.,0.));
#753 = ORIENTED_EDGE('',*,*,#693,.T.);
#754 = PLANE('',#755);
#755 = AXIS2_PLACEMENT_3D('',#756,#757,#758);
#756 = CARTESIAN_POINT('',(2.352500029036,20.25,0.9125));
#757 = DIRECTION('',(0.,1.,0.));
#758 = DIRECTION('',(0.,0.,1.));
#759 = ADVANCED_FACE('',(#760),#789,.T.);
#760 = FACE_BOUND('',#761,.F.);
#761 = EDGE_LOOP('',(#762,#763,#764,#765,#773,#782));
#762 = ORIENTED_EDGE('',*,*,#723,.F.);
#763 = ORIENTED_EDGE('',*,*,#89,.T.);
#764 = ORIENTED_EDGE('',*,*,#98,.T.);
#765 = ORIENTED_EDGE('',*,*,#766,.T.);
#766 = EDGE_CURVE('',#99,#767,#769,.T.);
#767 = VERTEX_POINT('',#768);
#768 = CARTESIAN_POINT('',(61.568352126493,3.121318298806,0.));
#769 = LINE('',#770,#771);
#770 = CARTESIAN_POINT('',(61.568352126493,3.121318298806,0.));
#771 = VECTOR('',#772,1.);
#772 = DIRECTION('',(-0.,-0.,-1.));
#773 = ORIENTED_EDGE('',*,*,#774,.F.);
#774 = EDGE_CURVE('',#775,#767,#777,.T.);
#775 = VERTEX_POINT('',#776);
#776 = CARTESIAN_POINT('',(64.845,0.,0.));
#777 = CIRCLE('',#778,3.125);
#778 = AXIS2_PLACEMENT_3D('',#779,#780,#781);
#779 = CARTESIAN_POINT('',(61.72,0.,0.));
#780 = DIRECTION('',(0.,0.,1.));
#781 = DIRECTION('',(1.,0.,0.));
#782 = ORIENTED_EDGE('',*,*,#783,.F.);
#783 = EDGE_CURVE('',#716,#775,#784,.T.);
#784 = CIRCLE('',#785,3.125);
#785 = AXIS2_PLACEMENT_3D('',#786,#787,#788);
#786 = CARTESIAN_POINT('',(61.72,0.,0.));
#787 = DIRECTION('',(0.,0.,1.));
#788 = DIRECTION('',(1.,0.,0.));
#789 = CYLINDRICAL_SURFACE('',#790,3.125);
#790 = AXIS2_PLACEMENT_3D('',#791,#792,#793);
#791 = CARTESIAN_POINT('',(61.72,0.,0.));
#792 = DIRECTION('',(-0.,-0.,-1.));
#793 = DIRECTION('',(1.,0.,0.));
#794 = ADVANCED_FACE('',(#795),#829,.T.);
#795 = FACE_BOUND('',#796,.T.);
#796 = EDGE_LOOP('',(#797,#798,#799,#807,#815,#823));
#797 = ORIENTED_EDGE('',*,*,#740,.F.);
#798 = ORIENTED_EDGE('',*,*,#252,.T.);
#799 = ORIENTED_EDGE('',*,*,#800,.T.);
#800 = EDGE_CURVE('',#245,#801,#803,.T.);
#801 = VERTEX_POINT('',#802);
#802 = CARTESIAN_POINT('',(1.360254364765,25.25,-3.175));
#803 = LINE('',#804,#805);
#804 = CARTESIAN_POINT('',(2.7,25.25,1.825));
#805 = VECTOR('',#806,1.);
#806 = DIRECTION('',(-0.258818986177,0.,-0.965925842078));
#807 = ORIENTED_EDGE('',*,*,#808,.F.);
#808 = EDGE_CURVE('',#809,#801,#811,.T.);
#809 = VERTEX_POINT('',#810);
#810 = CARTESIAN_POINT('',(1.360254364765,20.250231462704,-3.175));
#811 = LINE('',#812,#813);
#812 = CARTESIAN_POINT('',(1.360254364765,20.25,-3.175));
#813 = VECTOR('',#814,1.);
#814 = DIRECTION('',(0.,1.,-2.2E-16));
#815 = ORIENTED_EDGE('',*,*,#816,.T.);
#816 = EDGE_CURVE('',#809,#817,#819,.T.);
#817 = VERTEX_POINT('',#818);
#818 = CARTESIAN_POINT('',(2.210992843139,20.250461703158,0.));
#819 = LINE('',#820,#821);
#820 = CARTESIAN_POINT('',(2.522115487135,20.250545904145,1.161125798112
    ));
#821 = VECTOR('',#822,1.);
#822 = DIRECTION('',(0.258818985542,7.004573357007E-05,0.965925839709));
#823 = ORIENTED_EDGE('',*,*,#824,.T.);
#824 = EDGE_CURVE('',#817,#741,#825,.T.);
#825 = LINE('',#826,#827);
#826 = CARTESIAN_POINT('',(2.210992843139,20.582344785408,-2.2E-16));
#827 = VECTOR('',#828,1.);
#828 = DIRECTION('',(-6.E-17,-1.,0.));
#829 = PLANE('',#830);
#830 = AXIS2_PLACEMENT_3D('',#831,#832,#833);
#831 = CARTESIAN_POINT('',(2.7,20.25,1.825));
#832 = DIRECTION('',(-0.965925842078,6.E-17,0.258818986177));
#833 = DIRECTION('',(-0.258818986177,-2.1E-16,-0.965925842078));
#834 = ADVANCED_FACE('',(#835),#853,.T.);
#835 = FACE_BOUND('',#836,.F.);
#836 = EDGE_LOOP('',(#837,#838,#839,#847));
#837 = ORIENTED_EDGE('',*,*,#244,.T.);
#838 = ORIENTED_EDGE('',*,*,#800,.T.);
#839 = ORIENTED_EDGE('',*,*,#840,.T.);
#840 = EDGE_CURVE('',#801,#841,#843,.T.);
#841 = VERTEX_POINT('',#842);
#842 = CARTESIAN_POINT('',(2.860254364765,25.25,-3.175));
#843 = LINE('',#844,#845);
#844 = CARTESIAN_POINT('',(1.360254364765,25.25,-3.175));
#845 = VECTOR('',#846,1.);
#846 = DIRECTION('',(1.,0.,0.));
#847 = ORIENTED_EDGE('',*,*,#848,.T.);
#848 = EDGE_CURVE('',#841,#237,#849,.T.);
#849 = LINE('',#850,#851);
#850 = CARTESIAN_POINT('',(2.860254364765,25.25,-3.175));
#851 = VECTOR('',#852,1.);
#852 = DIRECTION('',(0.258818986177,0.,0.965925842078));
#853 = PLANE('',#854);
#854 = AXIS2_PLACEMENT_3D('',#855,#856,#857);
#855 = CARTESIAN_POINT('',(2.780127182383,25.25,-0.675));
#856 = DIRECTION('',(0.,1.,0.));
#857 = DIRECTION('',(0.,0.,1.));
#858 = ADVANCED_FACE('',(#859),#877,.F.);
#859 = FACE_BOUND('',#860,.F.);
#860 = EDGE_LOOP('',(#861,#869,#870,#871));
#861 = ORIENTED_EDGE('',*,*,#862,.F.);
#862 = EDGE_CURVE('',#767,#863,#865,.T.);
#863 = VERTEX_POINT('',#864);
#864 = CARTESIAN_POINT('',(56.72,7.,0.));
#865 = LINE('',#866,#867);
#866 = CARTESIAN_POINT('',(61.72,3.,0.));
#867 = VECTOR('',#868,1.);
#868 = DIRECTION('',(-0.780868809443,0.624695047554,0.));
#869 = ORIENTED_EDGE('',*,*,#766,.F.);
#870 = ORIENTED_EDGE('',*,*,#107,.T.);
#871 = ORIENTED_EDGE('',*,*,#872,.F.);
#872 = EDGE_CURVE('',#863,#108,#873,.T.);
#873 = LINE('',#874,#875);
#874 = CARTESIAN_POINT('',(56.72,7.,0.));
#875 = VECTOR('',#876,1.);
#876 = DIRECTION('',(0.,0.,1.));
#877 = PLANE('',#878);
#878 = AXIS2_PLACEMENT_3D('',#879,#880,#881);
#879 = CARTESIAN_POINT('',(61.72,3.,0.));
#880 = DIRECTION('',(-0.624695047554,-0.780868809443,0.));
#881 = DIRECTION('',(-0.780868809443,0.624695047554,0.));
#882 = ADVANCED_FACE('',(#883),#909,.T.);
#883 = FACE_BOUND('',#884,.T.);
#884 = EDGE_LOOP('',(#885,#886,#887,#895,#903));
#885 = ORIENTED_EDGE('',*,*,#848,.T.);
#886 = ORIENTED_EDGE('',*,*,#236,.T.);
#887 = ORIENTED_EDGE('',*,*,#888,.T.);
#888 = EDGE_CURVE('',#229,#889,#891,.T.);
#889 = VERTEX_POINT('',#890);
#890 = CARTESIAN_POINT('',(3.710992843139,18.75,0.));
#891 = LINE('',#892,#893);
#892 = CARTESIAN_POINT('',(4.2,18.75,1.825));
#893 = VECTOR('',#894,1.);
#894 = DIRECTION('',(-0.258818986177,0.,-0.965925842078));
#895 = ORIENTED_EDGE('',*,*,#896,.T.);
#896 = EDGE_CURVE('',#889,#897,#899,.T.);
#897 = VERTEX_POINT('',#898);
#898 = CARTESIAN_POINT('',(2.860254364765,18.75,-3.175));
#899 = LINE('',#900,#901);
#900 = CARTESIAN_POINT('',(4.2,18.75,1.825));
#901 = VECTOR('',#902,1.);
#902 = DIRECTION('',(-0.258818986177,0.,-0.965925842078));
#903 = ORIENTED_EDGE('',*,*,#904,.T.);
#904 = EDGE_CURVE('',#897,#841,#905,.T.);
#905 = LINE('',#906,#907);
#906 = CARTESIAN_POINT('',(2.860254364765,20.25,-3.175));
#907 = VECTOR('',#908,1.);
#908 = DIRECTION('',(0.,1.,-2.2E-16));
#909 = PLANE('',#910);
#910 = AXIS2_PLACEMENT_3D('',#911,#912,#913);
#911 = CARTESIAN_POINT('',(3.530127182383,22.,-0.675));
#912 = DIRECTION('',(0.965925842078,4.1E-16,-0.258818986177));
#913 = DIRECTION('',(0.258818986177,-1.232595164408E-32,0.965925842078)
  );
#914 = ADVANCED_FACE('',(#915),#933,.F.);
#915 = FACE_BOUND('',#916,.F.);
#916 = EDGE_LOOP('',(#917,#918,#919,#927));
#917 = ORIENTED_EDGE('',*,*,#872,.T.);
#918 = ORIENTED_EDGE('',*,*,#115,.T.);
#919 = ORIENTED_EDGE('',*,*,#920,.F.);
#920 = EDGE_CURVE('',#921,#116,#923,.T.);
#921 = VERTEX_POINT('',#922);
#922 = CARTESIAN_POINT('',(56.72,14.,0.));
#923 = LINE('',#924,#925);
#924 = CARTESIAN_POINT('',(56.72,14.,0.));
#925 = VECTOR('',#926,1.);
#926 = DIRECTION('',(0.,0.,1.));
#927 = ORIENTED_EDGE('',*,*,#928,.F.);
#928 = EDGE_CURVE('',#863,#921,#929,.T.);
#929 = LINE('',#930,#931);
#930 = CARTESIAN_POINT('',(56.72,7.,0.));
#931 = VECTOR('',#932,1.);
#932 = DIRECTION('',(0.,1.,0.));
#933 = PLANE('',#934);
#934 = AXIS2_PLACEMENT_3D('',#935,#936,#937);
#935 = CARTESIAN_POINT('',(56.72,7.,0.));
#936 = DIRECTION('',(-1.,0.,0.));
#937 = DIRECTION('',(0.,1.,0.));
#938 = ADVANCED_FACE('',(#939),#964,.T.);
#939 = FACE_BOUND('',#940,.T.);
#940 = EDGE_LOOP('',(#941,#951,#957,#958));
#941 = ORIENTED_EDGE('',*,*,#942,.F.);
#942 = EDGE_CURVE('',#943,#945,#947,.T.);
#943 = VERTEX_POINT('',#944);
#944 = CARTESIAN_POINT('',(4.199999673205,18.75,0.));
#945 = VERTEX_POINT('',#946);
#946 = CARTESIAN_POINT('',(4.2,18.365384615385,0.));
#947 = LINE('',#948,#949);
#948 = CARTESIAN_POINT('',(4.2,20.25,0.));
#949 = VECTOR('',#950,1.);
#950 = DIRECTION('',(0.,-1.,0.));
#951 = ORIENTED_EDGE('',*,*,#952,.F.);
#952 = EDGE_CURVE('',#229,#943,#953,.T.);
#953 = LINE('',#954,#955);
#954 = CARTESIAN_POINT('',(4.2,18.75,1.825));
#955 = VECTOR('',#956,1.);
#956 = DIRECTION('',(0.,0.,-1.));
#957 = ORIENTED_EDGE('',*,*,#228,.T.);
#958 = ORIENTED_EDGE('',*,*,#959,.F.);
#959 = EDGE_CURVE('',#945,#221,#960,.T.);
#960 = LINE('',#961,#962);
#961 = CARTESIAN_POINT('',(4.2,18.365384615385,0.));
#962 = VECTOR('',#963,1.);
#963 = DIRECTION('',(0.,0.,1.));
#964 = PLANE('',#965);
#965 = AXIS2_PLACEMENT_3D('',#966,#967,#968);
#966 = CARTESIAN_POINT('',(4.2,20.25,0.));
#967 = DIRECTION('',(1.,0.,0.));
#968 = DIRECTION('',(0.,-1.,0.));
#969 = ADVANCED_FACE('',(#970),#988,.F.);
#970 = FACE_BOUND('',#971,.F.);
#971 = EDGE_LOOP('',(#972,#973,#974,#982));
#972 = ORIENTED_EDGE('',*,*,#920,.T.);
#973 = ORIENTED_EDGE('',*,*,#123,.T.);
#974 = ORIENTED_EDGE('',*,*,#975,.F.);
#975 = EDGE_CURVE('',#976,#124,#978,.T.);
#976 = VERTEX_POINT('',#977);
#977 = CARTESIAN_POINT('',(64.06,16.75,0.));
#978 = LINE('',#979,#980);
#979 = CARTESIAN_POINT('',(64.06,16.75,0.));
#980 = VECTOR('',#981,1.);
#981 = DIRECTION('',(0.,0.,1.));
#982 = ORIENTED_EDGE('',*,*,#983,.F.);
#983 = EDGE_CURVE('',#921,#976,#984,.T.);
#984 = LINE('',#985,#986);
#985 = CARTESIAN_POINT('',(56.72,14.,0.));
#986 = VECTOR('',#987,1.);
#987 = DIRECTION('',(0.93643399573,0.35084379949,0.));
#988 = PLANE('',#989);
#989 = AXIS2_PLACEMENT_3D('',#990,#991,#992);
#990 = CARTESIAN_POINT('',(56.72,14.,0.));
#991 = DIRECTION('',(-0.35084379949,0.93643399573,0.));
#992 = DIRECTION('',(0.93643399573,0.35084379949,0.));
#993 = ADVANCED_FACE('',(#994),#1012,.T.);
#994 = FACE_BOUND('',#995,.T.);
#995 = EDGE_LOOP('',(#996,#997,#998,#1006));
#996 = ORIENTED_EDGE('',*,*,#959,.T.);
#997 = ORIENTED_EDGE('',*,*,#220,.T.);
#998 = ORIENTED_EDGE('',*,*,#999,.F.);
#999 = EDGE_CURVE('',#1000,#213,#1002,.T.);
#1000 = VERTEX_POINT('',#1001);
#1001 = CARTESIAN_POINT('',(5.,17.75,0.));
#1002 = LINE('',#1003,#1004);
#1003 = CARTESIAN_POINT('',(5.,17.75,0.));
#1004 = VECTOR('',#1005,1.);
#1005 = DIRECTION('',(0.,0.,1.));
#1006 = ORIENTED_EDGE('',*,*,#1007,.F.);
#1007 = EDGE_CURVE('',#945,#1000,#1008,.T.);
#1008 = LINE('',#1009,#1010);
#1009 = CARTESIAN_POINT('',(4.2,18.365384615385,0.));
#1010 = VECTOR('',#1011,1.);
#1011 = DIRECTION('',(0.792623989105,-0.60971076085,0.));
#1012 = PLANE('',#1013);
#1013 = AXIS2_PLACEMENT_3D('',#1014,#1015,#1016);
#1014 = CARTESIAN_POINT('',(4.2,18.365384615385,0.));
#1015 = DIRECTION('',(0.60971076085,0.792623989105,0.));
#1016 = DIRECTION('',(0.792623989105,-0.60971076085,0.));
#1017 = ADVANCED_FACE('',(#1018),#1068,.T.);
#1018 = FACE_BOUND('',#1019,.T.);
#1019 = EDGE_LOOP('',(#1020,#1021,#1029,#1037,#1045,#1053,#1061,#1067));
#1020 = ORIENTED_EDGE('',*,*,#975,.F.);
#1021 = ORIENTED_EDGE('',*,*,#1022,.T.);
#1022 = EDGE_CURVE('',#976,#1023,#1025,.T.);
#1023 = VERTEX_POINT('',#1024);
#1024 = CARTESIAN_POINT('',(64.06,18.75,0.));
#1025 = LINE('',#1026,#1027);
#1026 = CARTESIAN_POINT('',(64.06,16.75,0.));
#1027 = VECTOR('',#1028,1.);
#1028 = DIRECTION('',(0.,1.,0.));
#1029 = ORIENTED_EDGE('',*,*,#1030,.T.);
#1030 = EDGE_CURVE('',#1023,#1031,#1033,.T.);
#1031 = VERTEX_POINT('',#1032);
#1032 = CARTESIAN_POINT('',(64.06,18.75,-1.925));
#1033 = LINE('',#1034,#1035);
#1034 = CARTESIAN_POINT('',(64.06,18.75,0.));
#1035 = VECTOR('',#1036,1.);
#1036 = DIRECTION('',(-0.,-0.,-1.));
#1037 = ORIENTED_EDGE('',*,*,#1038,.T.);
#1038 = EDGE_CURVE('',#1031,#1039,#1041,.T.);
#1039 = VERTEX_POINT('',#1040);
#1040 = CARTESIAN_POINT('',(64.06,17.75,-1.925));
#1041 = LINE('',#1042,#1043);
#1042 = CARTESIAN_POINT('',(64.06,18.75,-1.925));
#1043 = VECTOR('',#1044,1.);
#1044 = DIRECTION('',(0.,-1.,2.2E-16));
#1045 = ORIENTED_EDGE('',*,*,#1046,.F.);
#1046 = EDGE_CURVE('',#1047,#1039,#1049,.T.);
#1047 = VERTEX_POINT('',#1048);
#1048 = CARTESIAN_POINT('',(64.06,17.75,-3.175));
#1049 = LINE('',#1050,#1051);
#1050 = CARTESIAN_POINT('',(64.06,17.75,-3.175));
#1051 = VECTOR('',#1052,1.);
#1052 = DIRECTION('',(0.,0.,1.));
#1053 = ORIENTED_EDGE('',*,*,#1054,.F.);
#1054 = EDGE_CURVE('',#1055,#1047,#1057,.T.);
#1055 = VERTEX_POINT('',#1056);
#1056 = CARTESIAN_POINT('',(64.06,23.700000506532,-3.175));
#1057 = LINE('',#1058,#1059);
#1058 = CARTESIAN_POINT('',(64.06,18.75,-3.175));
#1059 = VECTOR('',#1060,1.);
#1060 = DIRECTION('',(0.,-1.,2.2E-16));
#1061 = ORIENTED_EDGE('',*,*,#1062,.F.);
#1062 = EDGE_CURVE('',#132,#1055,#1063,.T.);
#1063 = LINE('',#1064,#1065);
#1064 = CARTESIAN_POINT('',(64.06,23.700000506532,0.));
#1065 = VECTOR('',#1066,1.);
#1066 = DIRECTION('',(-0.,-0.,-1.));
#1067 = ORIENTED_EDGE('',*,*,#131,.F.);
#1068 = PLANE('',#1069);
#1069 = AXIS2_PLACEMENT_3D('',#1070,#1071,#1072);
#1070 = CARTESIAN_POINT('',(64.06,20.269401776374,-0.57461390354));
#1071 = DIRECTION('',(1.,3.02E-15,-1.27E-15));
#1072 = DIRECTION('',(-3.02E-15,1.,0.));
#1073 = ADVANCED_FACE('',(#1074),#1092,.T.);
#1074 = FACE_BOUND('',#1075,.T.);
#1075 = EDGE_LOOP('',(#1076,#1077,#1078,#1086));
#1076 = ORIENTED_EDGE('',*,*,#999,.T.);
#1077 = ORIENTED_EDGE('',*,*,#212,.T.);
#1078 = ORIENTED_EDGE('',*,*,#1079,.F.);
#1079 = EDGE_CURVE('',#1080,#205,#1082,.T.);
#1080 = VERTEX_POINT('',#1081);
#1081 = CARTESIAN_POINT('',(56.72,17.75,0.));
#1082 = LINE('',#1083,#1084);
#1083 = CARTESIAN_POINT('',(56.72,17.75,0.));
#1084 = VECTOR('',#1085,1.);
#1085 = DIRECTION('',(0.,0.,1.));
#1086 = ORIENTED_EDGE('',*,*,#1087,.F.);
#1087 = EDGE_CURVE('',#1000,#1080,#1088,.T.);
#1088 = LINE('',#1089,#1090);
#1089 = CARTESIAN_POINT('',(5.,17.75,0.));
#1090 = VECTOR('',#1091,1.);
#1091 = DIRECTION('',(1.,0.,0.));
#1092 = PLANE('',#1093);
#1093 = AXIS2_PLACEMENT_3D('',#1094,#1095,#1096);
#1094 = CARTESIAN_POINT('',(5.,17.75,0.));
#1095 = DIRECTION('',(0.,1.,0.));
#1096 = DIRECTION('',(1.,0.,0.));
#1097 = ADVANCED_FACE('',(#1098),#1123,.F.);
#1098 = FACE_BOUND('',#1099,.F.);
#1099 = EDGE_LOOP('',(#1100,#1108,#1109,#1117));
#1100 = ORIENTED_EDGE('',*,*,#1101,.F.);
#1101 = EDGE_CURVE('',#132,#1102,#1104,.T.);
#1102 = VERTEX_POINT('',#1103);
#1103 = CARTESIAN_POINT('',(62.51,25.250000253266,0.275));
#1104 = LINE('',#1105,#1106);
#1105 = CARTESIAN_POINT('',(63.384999926471,24.375000359474,
    1.150000147058));
#1106 = VECTOR('',#1107,1.);
#1107 = DIRECTION('',(-0.577350394973,0.577350206298,-0.577350206298));
#1108 = ORIENTED_EDGE('',*,*,#139,.T.);
#1109 = ORIENTED_EDGE('',*,*,#1110,.F.);
#1110 = EDGE_CURVE('',#1111,#140,#1113,.T.);
#1111 = VERTEX_POINT('',#1112);
#1112 = CARTESIAN_POINT('',(62.215,24.954999892022,0.57000061451));
#1113 = LINE('',#1114,#1115);
#1114 = CARTESIAN_POINT('',(62.215,24.175625366402,1.34937514013));
#1115 = VECTOR('',#1116,1.);
#1116 = DIRECTION('',(7.66E-15,-0.707106781187,0.707106781187));
#1117 = ORIENTED_EDGE('',*,*,#1118,.F.);
#1118 = EDGE_CURVE('',#1102,#1111,#1119,.T.);
#1119 = LINE('',#1120,#1121);
#1120 = CARTESIAN_POINT('',(62.360833510242,25.100833455644,
    0.424167050888));
#1121 = VECTOR('',#1122,1.);
#1122 = DIRECTION('',(-0.577350128306,-0.577350339631,0.577350339631));
#1123 = PLANE('',#1124);
#1124 = AXIS2_PLACEMENT_3D('',#1125,#1126,#1127);
#1125 = CARTESIAN_POINT('',(64.06,23.700000506532,1.825));
#1126 = DIRECTION('',(-2.1E-16,-0.707106781187,-0.707106781187));
#1127 = DIRECTION('',(-3.2E-15,0.707106781187,-0.707106781187));
#1128 = ADVANCED_FACE('',(#1129),#1147,.F.);
#1129 = FACE_BOUND('',#1130,.F.);
#1130 = EDGE_LOOP('',(#1131,#1139,#1140,#1141));
#1131 = ORIENTED_EDGE('',*,*,#1132,.T.);
#1132 = EDGE_CURVE('',#1133,#197,#1135,.T.);
#1133 = VERTEX_POINT('',#1134);
#1134 = CARTESIAN_POINT('',(57.51,18.362403100775,0.));
#1135 = LINE('',#1136,#1137);
#1136 = CARTESIAN_POINT('',(57.51,18.362403100775,0.));
#1137 = VECTOR('',#1138,1.);
#1138 = DIRECTION('',(0.,0.,1.));
#1139 = ORIENTED_EDGE('',*,*,#204,.T.);
#1140 = ORIENTED_EDGE('',*,*,#1079,.F.);
#1141 = ORIENTED_EDGE('',*,*,#1142,.F.);
#1142 = EDGE_CURVE('',#1133,#1080,#1143,.T.);
#1143 = LINE('',#1144,#1145);
#1144 = CARTESIAN_POINT('',(57.51,18.362403100775,0.));
#1145 = VECTOR('',#1146,1.);
#1146 = DIRECTION('',(-0.790340885165,-0.612667352841,0.));
#1147 = PLANE('',#1148);
#1148 = AXIS2_PLACEMENT_3D('',#1149,#1150,#1151);
#1149 = CARTESIAN_POINT('',(57.51,18.362403100775,0.));
#1150 = DIRECTION('',(0.612667352841,-0.790340885165,0.));
#1151 = DIRECTION('',(-0.790340885165,-0.612667352841,0.));
#1152 = ADVANCED_FACE('',(#1153),#1187,.T.);
#1153 = FACE_BOUND('',#1154,.T.);
#1154 = EDGE_LOOP('',(#1155,#1156,#1164,#1172,#1180,#1186));
#1155 = ORIENTED_EDGE('',*,*,#1110,.F.);
#1156 = ORIENTED_EDGE('',*,*,#1157,.T.);
#1157 = EDGE_CURVE('',#1111,#1158,#1160,.T.);
#1158 = VERTEX_POINT('',#1159);
#1159 = CARTESIAN_POINT('',(62.215,24.954999892022,-1.92000061451));
#1160 = LINE('',#1161,#1162);
#1161 = CARTESIAN_POINT('',(62.215,24.954999892022,0.));
#1162 = VECTOR('',#1163,1.);
#1163 = DIRECTION('',(-0.,-0.,-1.));
#1164 = ORIENTED_EDGE('',*,*,#1165,.F.);
#1165 = EDGE_CURVE('',#1166,#1158,#1168,.T.);
#1166 = VERTEX_POINT('',#1167);
#1167 = CARTESIAN_POINT('',(62.215,23.700000506532,-3.175));
#1168 = LINE('',#1169,#1170);
#1169 = CARTESIAN_POINT('',(62.215,24.950625366402,-1.92437514013));
#1170 = VECTOR('',#1171,1.);
#1171 = DIRECTION('',(1.82E-15,0.707106781187,0.707106781187));
#1172 = ORIENTED_EDGE('',*,*,#1173,.F.);
#1173 = EDGE_CURVE('',#1174,#1166,#1176,.T.);
#1174 = VERTEX_POINT('',#1175);
#1175 = CARTESIAN_POINT('',(62.215,21.25,-3.175));
#1176 = LINE('',#1177,#1178);
#1177 = CARTESIAN_POINT('',(62.215,21.25,-3.175));
#1178 = VECTOR('',#1179,1.);
#1179 = DIRECTION('',(-5.75E-15,1.,0.));
#1180 = ORIENTED_EDGE('',*,*,#1181,.F.);
#1181 = EDGE_CURVE('',#148,#1174,#1182,.T.);
#1182 = LINE('',#1183,#1184);
#1183 = CARTESIAN_POINT('',(62.215,21.25,0.));
#1184 = VECTOR('',#1185,1.);
#1185 = DIRECTION('',(-0.,-0.,-1.));
#1186 = ORIENTED_EDGE('',*,*,#147,.F.);
#1187 = PLANE('',#1188);
#1188 = AXIS2_PLACEMENT_3D('',#1189,#1190,#1191);
#1189 = CARTESIAN_POINT('',(62.215,23.102499946011,-0.675));
#1190 = DIRECTION('',(-1.,-4.13E-15,6.7E-15));
#1191 = DIRECTION('',(-6.7E-15,0.,-1.));
#1192 = ADVANCED_FACE('',(#1193),#1211,.T.);
#1193 = FACE_BOUND('',#1194,.T.);
#1194 = EDGE_LOOP('',(#1195,#1196,#1204,#1210));
#1195 = ORIENTED_EDGE('',*,*,#196,.F.);
#1196 = ORIENTED_EDGE('',*,*,#1197,.F.);
#1197 = EDGE_CURVE('',#1198,#189,#1200,.T.);
#1198 = VERTEX_POINT('',#1199);
#1199 = CARTESIAN_POINT('',(57.51,18.75,0.));
#1200 = LINE('',#1201,#1202);
#1201 = CARTESIAN_POINT('',(57.51,18.75,-3.175));
#1202 = VECTOR('',#1203,1.);
#1203 = DIRECTION('',(0.,0.,1.));
#1204 = ORIENTED_EDGE('',*,*,#1205,.T.);
#1205 = EDGE_CURVE('',#1198,#1133,#1206,.T.);
#1206 = LINE('',#1207,#1208);
#1207 = CARTESIAN_POINT('',(57.51,20.25,0.));
#1208 = VECTOR('',#1209,1.);
#1209 = DIRECTION('',(0.,-1.,0.));
#1210 = ORIENTED_EDGE('',*,*,#1132,.T.);
#1211 = PLANE('',#1212);
#1212 = AXIS2_PLACEMENT_3D('',#1213,#1214,#1215);
#1213 = CARTESIAN_POINT('',(57.51,19.395892075905,-0.585809474483));
#1214 = DIRECTION('',(-1.,4.63E-15,-1.15E-15));
#1215 = DIRECTION('',(-4.63E-15,-1.,0.));
#1216 = ADVANCED_FACE('',(#1217),#1244,.F.);
#1217 = FACE_BOUND('',#1218,.T.);
#1218 = EDGE_LOOP('',(#1219,#1228,#1236,#1242,#1243));
#1219 = ORIENTED_EDGE('',*,*,#1220,.F.);
#1220 = EDGE_CURVE('',#1221,#1174,#1223,.T.);
#1221 = VERTEX_POINT('',#1222);
#1222 = CARTESIAN_POINT('',(61.215000326795,20.25,-3.175));
#1223 = CIRCLE('',#1224,1.);
#1224 = AXIS2_PLACEMENT_3D('',#1225,#1226,#1227);
#1225 = CARTESIAN_POINT('',(61.215,21.25,-3.175));
#1226 = DIRECTION('',(0.,0.,1.));
#1227 = DIRECTION('',(1.,0.,0.));
#1228 = ORIENTED_EDGE('',*,*,#1229,.F.);
#1229 = EDGE_CURVE('',#1230,#1221,#1232,.T.);
#1230 = VERTEX_POINT('',#1231);
#1231 = CARTESIAN_POINT('',(61.215000172728,20.25,0.));
#1232 = LINE('',#1233,#1234);
#1233 = CARTESIAN_POINT('',(61.215000326795,20.25,0.));
#1234 = VECTOR('',#1235,1.);
#1235 = DIRECTION('',(-0.,-0.,-1.));
#1236 = ORIENTED_EDGE('',*,*,#1237,.T.);
#1237 = EDGE_CURVE('',#1230,#156,#1238,.T.);
#1238 = LINE('',#1239,#1240);
#1239 = CARTESIAN_POINT('',(61.215000018661,20.25,0.));
#1240 = VECTOR('',#1241,1.);
#1241 = DIRECTION('',(0.,0.,1.));
#1242 = ORIENTED_EDGE('',*,*,#155,.T.);
#1243 = ORIENTED_EDGE('',*,*,#1181,.T.);
#1244 = CYLINDRICAL_SURFACE('',#1245,1.);
#1245 = AXIS2_PLACEMENT_3D('',#1246,#1247,#1248);
#1246 = CARTESIAN_POINT('',(61.215,21.25,0.));
#1247 = DIRECTION('',(-0.,-0.,-1.));
#1248 = DIRECTION('',(1.,0.,0.));
#1249 = ADVANCED_FACE('',(#1250),#1283,.T.);
#1250 = FACE_BOUND('',#1251,.T.);
#1251 = EDGE_LOOP('',(#1252,#1262,#1270,#1276,#1277));
#1252 = ORIENTED_EDGE('',*,*,#1253,.T.);
#1253 = EDGE_CURVE('',#1254,#1256,#1258,.T.);
#1254 = VERTEX_POINT('',#1255);
#1255 = CARTESIAN_POINT('',(58.849747491642,25.25,-3.175));
#1256 = VERTEX_POINT('',#1257);
#1257 = CARTESIAN_POINT('',(58.849747491642,18.75,-3.175));
#1258 = LINE('',#1259,#1260);
#1259 = CARTESIAN_POINT('',(58.849747491642,20.25,-3.175));
#1260 = VECTOR('',#1261,1.);
#1261 = DIRECTION('',(0.,-1.,2.2E-16));
#1262 = ORIENTED_EDGE('',*,*,#1263,.F.);
#1263 = EDGE_CURVE('',#1264,#1256,#1266,.T.);
#1264 = VERTEX_POINT('',#1265);
#1265 = CARTESIAN_POINT('',(57.999007834449,18.75,0.));
#1266 = LINE('',#1267,#1268);
#1267 = CARTESIAN_POINT('',(57.51,18.75,1.825));
#1268 = VECTOR('',#1269,1.);
#1269 = DIRECTION('',(0.258819320783,0.,-0.965925752421));
#1270 = ORIENTED_EDGE('',*,*,#1271,.F.);
#1271 = EDGE_CURVE('',#189,#1264,#1272,.T.);
#1272 = LINE('',#1273,#1274);
#1273 = CARTESIAN_POINT('',(57.51,18.75,1.825));
#1274 = VECTOR('',#1275,1.);
#1275 = DIRECTION('',(0.258819320783,0.,-0.965925752421));
#1276 = ORIENTED_EDGE('',*,*,#188,.T.);
#1277 = ORIENTED_EDGE('',*,*,#1278,.T.);
#1278 = EDGE_CURVE('',#181,#1254,#1279,.T.);
#1279 = LINE('',#1280,#1281);
#1280 = CARTESIAN_POINT('',(57.51,25.25,1.825));
#1281 = VECTOR('',#1282,1.);
#1282 = DIRECTION('',(0.258819320783,0.,-0.965925752421));
#1283 = PLANE('',#1284);
#1284 = AXIS2_PLACEMENT_3D('',#1285,#1286,#1287);
#1285 = CARTESIAN_POINT('',(58.179873745821,22.,-0.675));
#1286 = DIRECTION('',(-0.965925752421,4.4E-16,-0.258819320783));
#1287 = DIRECTION('',(0.258819320783,1.232595164408E-32,-0.965925752421)
  );
#1288 = ADVANCED_FACE('',(#1289),#1307,.T.);
#1289 = FACE_BOUND('',#1290,.T.);
#1290 = EDGE_LOOP('',(#1291,#1292,#1300,#1306));
#1291 = ORIENTED_EDGE('',*,*,#1237,.F.);
#1292 = ORIENTED_EDGE('',*,*,#1293,.T.);
#1293 = EDGE_CURVE('',#1230,#1294,#1296,.T.);
#1294 = VERTEX_POINT('',#1295);
#1295 = CARTESIAN_POINT('',(59.499007834449,20.25,0.));
#1296 = LINE('',#1297,#1298);
#1297 = CARTESIAN_POINT('',(58.01,20.25,0.));
#1298 = VECTOR('',#1299,1.);
#1299 = DIRECTION('',(-1.,0.,0.));
#1300 = ORIENTED_EDGE('',*,*,#1301,.T.);
#1301 = EDGE_CURVE('',#1294,#165,#1302,.T.);
#1302 = LINE('',#1303,#1304);
#1303 = CARTESIAN_POINT('',(60.349747491642,20.25,-3.175));
#1304 = VECTOR('',#1305,1.);
#1305 = DIRECTION('',(-0.258819320783,0.,0.965925752421));
#1306 = ORIENTED_EDGE('',*,*,#164,.F.);
#1307 = PLANE('',#1308);
#1308 = AXIS2_PLACEMENT_3D('',#1309,#1310,#1311);
#1309 = CARTESIAN_POINT('',(59.36250000933,20.25,0.9125));
#1310 = DIRECTION('',(3.7E-16,1.,0.));
#1311 = DIRECTION('',(1.,-3.7E-16,0.));
#1312 = ADVANCED_FACE('',(#1313),#1331,.T.);
#1313 = FACE_BOUND('',#1314,.F.);
#1314 = EDGE_LOOP('',(#1315,#1316,#1317,#1325));
#1315 = ORIENTED_EDGE('',*,*,#180,.T.);
#1316 = ORIENTED_EDGE('',*,*,#1278,.T.);
#1317 = ORIENTED_EDGE('',*,*,#1318,.T.);
#1318 = EDGE_CURVE('',#1254,#1319,#1321,.T.);
#1319 = VERTEX_POINT('',#1320);
#1320 = CARTESIAN_POINT('',(60.349747491642,25.25,-3.175));
#1321 = LINE('',#1322,#1323);
#1322 = CARTESIAN_POINT('',(58.849747491642,25.25,-3.175));
#1323 = VECTOR('',#1324,1.);
#1324 = DIRECTION('',(1.,0.,0.));
#1325 = ORIENTED_EDGE('',*,*,#1326,.T.);
#1326 = EDGE_CURVE('',#1319,#173,#1327,.T.);
#1327 = LINE('',#1328,#1329);
#1328 = CARTESIAN_POINT('',(60.349747491642,25.25,-3.175));
#1329 = VECTOR('',#1330,1.);
#1330 = DIRECTION('',(-0.258819320783,0.,0.965925752421));
#1331 = PLANE('',#1332);
#1332 = AXIS2_PLACEMENT_3D('',#1333,#1334,#1335);
#1333 = CARTESIAN_POINT('',(58.929873745821,25.25,-0.675));
#1334 = DIRECTION('',(0.,1.,0.));
#1335 = DIRECTION('',(0.,0.,1.));
#1336 = ADVANCED_FACE('',(#1337),#1364,.T.);
#1337 = FACE_BOUND('',#1338,.T.);
#1338 = EDGE_LOOP('',(#1339,#1349,#1355,#1356,#1357,#1358));
#1339 = ORIENTED_EDGE('',*,*,#1340,.T.);
#1340 = EDGE_CURVE('',#1341,#1343,#1345,.T.);
#1341 = VERTEX_POINT('',#1342);
#1342 = CARTESIAN_POINT('',(59.499007834449,20.250463155828,0.));
#1343 = VERTEX_POINT('',#1344);
#1344 = CARTESIAN_POINT('',(60.349747491642,20.250233536507,-3.175));
#1345 = LINE('',#1346,#1347);
#1346 = CARTESIAN_POINT('',(59.98185264182,20.250332833354,
    -1.801999296071));
#1347 = VECTOR('',#1348,1.);
#1348 = DIRECTION('',(0.258819320152,-6.985676040722E-05,-0.965925750064
    ));
#1349 = ORIENTED_EDGE('',*,*,#1350,.T.);
#1350 = EDGE_CURVE('',#1343,#1319,#1351,.T.);
#1351 = LINE('',#1352,#1353);
#1352 = CARTESIAN_POINT('',(60.349747491642,20.25,-3.175));
#1353 = VECTOR('',#1354,1.);
#1354 = DIRECTION('',(0.,1.,-2.2E-16));
#1355 = ORIENTED_EDGE('',*,*,#1326,.T.);
#1356 = ORIENTED_EDGE('',*,*,#172,.F.);
#1357 = ORIENTED_EDGE('',*,*,#1301,.F.);
#1358 = ORIENTED_EDGE('',*,*,#1359,.T.);
#1359 = EDGE_CURVE('',#1294,#1341,#1360,.T.);
#1360 = LINE('',#1361,#1362);
#1361 = CARTESIAN_POINT('',(59.499007834449,20.582344785408,4.4E-16));
#1362 = VECTOR('',#1363,1.);
#1363 = DIRECTION('',(-6.E-17,1.,0.));
#1364 = PLANE('',#1365);
#1365 = AXIS2_PLACEMENT_3D('',#1366,#1367,#1368);
#1366 = CARTESIAN_POINT('',(60.349747491642,20.25,-3.175));
#1367 = DIRECTION('',(0.965925752421,6.E-17,0.258819320783));
#1368 = DIRECTION('',(-0.258819320783,2.1E-16,0.965925752421));
#1369 = ADVANCED_FACE('',(#1370),#1389,.F.);
#1370 = FACE_BOUND('',#1371,.T.);
#1371 = EDGE_LOOP('',(#1372,#1380,#1387,#1388));
#1372 = ORIENTED_EDGE('',*,*,#1373,.F.);
#1373 = EDGE_CURVE('',#1374,#318,#1376,.T.);
#1374 = VERTEX_POINT('',#1375);
#1375 = CARTESIAN_POINT('',(-1.7,0.,0.));
#1376 = LINE('',#1377,#1378);
#1377 = CARTESIAN_POINT('',(-1.7,0.,0.));
#1378 = VECTOR('',#1379,1.);
#1379 = DIRECTION('',(6.E-17,0.,1.));
#1380 = ORIENTED_EDGE('',*,*,#1381,.T.);
#1381 = EDGE_CURVE('',#1374,#1374,#1382,.T.);
#1382 = CIRCLE('',#1383,1.7);
#1383 = AXIS2_PLACEMENT_3D('',#1384,#1385,#1386);
#1384 = CARTESIAN_POINT('',(0.,0.,0.));
#1385 = DIRECTION('',(0.,0.,-1.));
#1386 = DIRECTION('',(-1.,0.,0.));
#1387 = ORIENTED_EDGE('',*,*,#1373,.T.);
#1388 = ORIENTED_EDGE('',*,*,#317,.T.);
#1389 = CYLINDRICAL_SURFACE('',#1390,1.7);
#1390 = AXIS2_PLACEMENT_3D('',#1391,#1392,#1393);
#1391 = CARTESIAN_POINT('',(0.,0.,0.));
#1392 = DIRECTION('',(0.,0.,1.));
#1393 = DIRECTION('',(-1.,0.,0.));
#1394 = ADVANCED_FACE('',(#1395),#1414,.F.);
#1395 = FACE_BOUND('',#1396,.T.);
#1396 = EDGE_LOOP('',(#1397,#1405,#1412,#1413));
#1397 = ORIENTED_EDGE('',*,*,#1398,.F.);
#1398 = EDGE_CURVE('',#1399,#329,#1401,.T.);
#1399 = VERTEX_POINT('',#1400);
#1400 = CARTESIAN_POINT('',(60.02,0.,0.));
#1401 = LINE('',#1402,#1403);
#1402 = CARTESIAN_POINT('',(60.02,0.,0.));
#1403 = VECTOR('',#1404,1.);
#1404 = DIRECTION('',(6.E-17,0.,1.));
#1405 = ORIENTED_EDGE('',*,*,#1406,.T.);
#1406 = EDGE_CURVE('',#1399,#1399,#1407,.T.);
#1407 = CIRCLE('',#1408,1.7);
#1408 = AXIS2_PLACEMENT_3D('',#1409,#1410,#1411);
#1409 = CARTESIAN_POINT('',(61.72,0.,0.));
#1410 = DIRECTION('',(0.,0.,-1.));
#1411 = DIRECTION('',(-1.,0.,0.));
#1412 = ORIENTED_EDGE('',*,*,#1398,.T.);
#1413 = ORIENTED_EDGE('',*,*,#328,.T.);
#1414 = CYLINDRICAL_SURFACE('',#1415,1.7);
#1415 = AXIS2_PLACEMENT_3D('',#1416,#1417,#1418);
#1416 = CARTESIAN_POINT('',(61.72,0.,0.));
#1417 = DIRECTION('',(0.,0.,1.));
#1418 = DIRECTION('',(-1.,0.,0.));
#1419 = ADVANCED_FACE('',(#1420,#1468,#1471),#1474,.T.);
#1420 = FACE_BOUND('',#1421,.T.);
#1421 = EDGE_LOOP('',(#1422,#1423,#1424,#1425,#1426,#1427,#1433,#1439,
    #1440,#1441,#1442,#1443,#1444,#1450,#1456,#1457,#1458,#1459,#1460,
    #1461,#1462,#1463,#1464,#1465,#1466,#1467));
#1422 = ORIENTED_EDGE('',*,*,#393,.F.);
#1423 = ORIENTED_EDGE('',*,*,#345,.T.);
#1424 = ORIENTED_EDGE('',*,*,#421,.T.);
#1425 = ORIENTED_EDGE('',*,*,#445,.T.);
#1426 = ORIENTED_EDGE('',*,*,#523,.F.);
#1427 = ORIENTED_EDGE('',*,*,#1428,.T.);
#1428 = EDGE_CURVE('',#516,#889,#1429,.T.);
#1429 = LINE('',#1430,#1431);
#1430 = CARTESIAN_POINT('',(-2.34,18.75,0.));
#1431 = VECTOR('',#1432,1.);
#1432 = DIRECTION('',(1.,0.,0.));
#1433 = ORIENTED_EDGE('',*,*,#1434,.T.);
#1434 = EDGE_CURVE('',#889,#943,#1435,.T.);
#1435 = LINE('',#1436,#1437);
#1436 = CARTESIAN_POINT('',(-2.34,18.75,0.));
#1437 = VECTOR('',#1438,1.);
#1438 = DIRECTION('',(1.,0.,0.));
#1439 = ORIENTED_EDGE('',*,*,#942,.T.);
#1440 = ORIENTED_EDGE('',*,*,#1007,.T.);
#1441 = ORIENTED_EDGE('',*,*,#1087,.T.);
#1442 = ORIENTED_EDGE('',*,*,#1142,.F.);
#1443 = ORIENTED_EDGE('',*,*,#1205,.F.);
#1444 = ORIENTED_EDGE('',*,*,#1445,.F.);
#1445 = EDGE_CURVE('',#1264,#1198,#1446,.T.);
#1446 = LINE('',#1447,#1448);
#1447 = CARTESIAN_POINT('',(61.215000326795,18.75,0.));
#1448 = VECTOR('',#1449,1.);
#1449 = DIRECTION('',(-1.,-1.534E-14,0.));
#1450 = ORIENTED_EDGE('',*,*,#1451,.F.);
#1451 = EDGE_CURVE('',#1023,#1264,#1452,.T.);
#1452 = LINE('',#1453,#1454);
#1453 = CARTESIAN_POINT('',(61.215000326795,18.75,0.));
#1454 = VECTOR('',#1455,1.);
#1455 = DIRECTION('',(-1.,-1.534E-14,0.));
#1456 = ORIENTED_EDGE('',*,*,#1022,.F.);
#1457 = ORIENTED_EDGE('',*,*,#983,.F.);
#1458 = ORIENTED_EDGE('',*,*,#928,.F.);
#1459 = ORIENTED_EDGE('',*,*,#862,.F.);
#1460 = ORIENTED_EDGE('',*,*,#774,.F.);
#1461 = ORIENTED_EDGE('',*,*,#783,.F.);
#1462 = ORIENTED_EDGE('',*,*,#715,.T.);
#1463 = ORIENTED_EDGE('',*,*,#668,.F.);
#1464 = ORIENTED_EDGE('',*,*,#604,.F.);
#1465 = ORIENTED_EDGE('',*,*,#549,.F.);
#1466 = ORIENTED_EDGE('',*,*,#459,.F.);
#1467 = ORIENTED_EDGE('',*,*,#384,.F.);
#1468 = FACE_BOUND('',#1469,.T.);
#1469 = EDGE_LOOP('',(#1470));
#1470 = ORIENTED_EDGE('',*,*,#1406,.F.);
#1471 = FACE_BOUND('',#1472,.T.);
#1472 = EDGE_LOOP('',(#1473));
#1473 = ORIENTED_EDGE('',*,*,#1381,.F.);
#1474 = PLANE('',#1475);
#1475 = AXIS2_PLACEMENT_3D('',#1476,#1477,#1478);
#1476 = CARTESIAN_POINT('',(31.009757216123,10.883716792696,0.));
#1477 = DIRECTION('',(-0.,-0.,-1.));
#1478 = DIRECTION('',(-1.,0.,0.));
#1479 = ADVANCED_FACE('',(#1480),#1498,.T.);
#1480 = FACE_BOUND('',#1481,.T.);
#1481 = EDGE_LOOP('',(#1482,#1483,#1491,#1497));
#1482 = ORIENTED_EDGE('',*,*,#563,.F.);
#1483 = ORIENTED_EDGE('',*,*,#1484,.T.);
#1484 = EDGE_CURVE('',#564,#1485,#1487,.T.);
#1485 = VERTEX_POINT('',#1486);
#1486 = CARTESIAN_POINT('',(-0.79,25.24999971633,-1.625));
#1487 = LINE('',#1488,#1489);
#1488 = CARTESIAN_POINT('',(-0.79,25.25,0.));
#1489 = VECTOR('',#1490,1.);
#1490 = DIRECTION('',(-0.,-0.,-1.));
#1491 = ORIENTED_EDGE('',*,*,#1492,.T.);
#1492 = EDGE_CURVE('',#1485,#484,#1493,.T.);
#1493 = LINE('',#1494,#1495);
#1494 = CARTESIAN_POINT('',(-1.148333478727,24.891666390114,
    -1.983333042546));
#1495 = VECTOR('',#1496,1.);
#1496 = DIRECTION('',(-0.577350128306,-0.577350339631,-0.577350339631));
#1497 = ORIENTED_EDGE('',*,*,#483,.T.);
#1498 = PLANE('',#1499);
#1499 = AXIS2_PLACEMENT_3D('',#1500,#1501,#1502);
#1500 = CARTESIAN_POINT('',(-1.565,24.47499971633,-0.675));
#1501 = DIRECTION('',(-0.707106910596,0.707106651777,1.4E-16));
#1502 = DIRECTION('',(-0.707106651777,-0.707106910596,0.));
#1503 = ADVANCED_FACE('',(#1504),#1546,.T.);
#1504 = FACE_BOUND('',#1505,.T.);
#1505 = EDGE_LOOP('',(#1506,#1507,#1513,#1514,#1515,#1521,#1522,#1523,
    #1524,#1532,#1540));
#1506 = ORIENTED_EDGE('',*,*,#491,.F.);
#1507 = ORIENTED_EDGE('',*,*,#1508,.T.);
#1508 = EDGE_CURVE('',#484,#627,#1509,.T.);
#1509 = LINE('',#1510,#1511);
#1510 = CARTESIAN_POINT('',(-2.34,23.69999943266,-3.175));
#1511 = VECTOR('',#1512,1.);
#1512 = DIRECTION('',(1.,0.,-2.2E-16));
#1513 = ORIENTED_EDGE('',*,*,#626,.T.);
#1514 = ORIENTED_EDGE('',*,*,#682,.T.);
#1515 = ORIENTED_EDGE('',*,*,#1516,.F.);
#1516 = EDGE_CURVE('',#809,#683,#1517,.T.);
#1517 = LINE('',#1518,#1519);
#1518 = CARTESIAN_POINT('',(4.199999673205,20.251,-3.175));
#1519 = VECTOR('',#1520,1.);
#1520 = DIRECTION('',(-0.999999963378,-2.706359846754E-04,0.));
#1521 = ORIENTED_EDGE('',*,*,#808,.T.);
#1522 = ORIENTED_EDGE('',*,*,#840,.T.);
#1523 = ORIENTED_EDGE('',*,*,#904,.F.);
#1524 = ORIENTED_EDGE('',*,*,#1525,.F.);
#1525 = EDGE_CURVE('',#1526,#897,#1528,.T.);
#1526 = VERTEX_POINT('',#1527);
#1527 = CARTESIAN_POINT('',(2.400063127097,18.75,-3.175));
#1528 = LINE('',#1529,#1530);
#1529 = CARTESIAN_POINT('',(0.504999673205,18.75,-3.175));
#1530 = VECTOR('',#1531,1.);
#1531 = DIRECTION('',(1.,0.,0.));
#1532 = ORIENTED_EDGE('',*,*,#1533,.T.);
#1533 = EDGE_CURVE('',#1526,#1534,#1536,.T.);
#1534 = VERTEX_POINT('',#1535);
#1535 = CARTESIAN_POINT('',(2.400063127097,17.75,-3.175));
#1536 = LINE('',#1537,#1538);
#1537 = CARTESIAN_POINT('',(2.400063127097,18.75,-3.175));
#1538 = VECTOR('',#1539,1.);
#1539 = DIRECTION('',(7.66E-15,-1.,2.2E-16));
#1540 = ORIENTED_EDGE('',*,*,#1541,.T.);
#1541 = EDGE_CURVE('',#1534,#492,#1542,.T.);
#1542 = LINE('',#1543,#1544);
#1543 = CARTESIAN_POINT('',(2.400063127097,17.75,-3.175));
#1544 = VECTOR('',#1545,1.);
#1545 = DIRECTION('',(-1.,-8.E-15,0.));
#1546 = PLANE('',#1547);
#1547 = AXIS2_PLACEMENT_3D('',#1548,#1549,#1550);
#1548 = CARTESIAN_POINT('',(0.476425620238,21.256630334338,-3.175));
#1549 = DIRECTION('',(-0.,-0.,-1.));
#1550 = DIRECTION('',(-1.,0.,0.));
#1551 = ADVANCED_FACE('',(#1552),#1570,.F.);
#1552 = FACE_BOUND('',#1553,.F.);
#1553 = EDGE_LOOP('',(#1554,#1555,#1563,#1569));
#1554 = ORIENTED_EDGE('',*,*,#499,.T.);
#1555 = ORIENTED_EDGE('',*,*,#1556,.T.);
#1556 = EDGE_CURVE('',#500,#1557,#1559,.T.);
#1557 = VERTEX_POINT('',#1558);
#1558 = CARTESIAN_POINT('',(2.735,17.75,-1.925));
#1559 = LINE('',#1560,#1561);
#1560 = CARTESIAN_POINT('',(-2.34,17.75,-1.925));
#1561 = VECTOR('',#1562,1.);
#1562 = DIRECTION('',(1.,8.E-15,0.));
#1563 = ORIENTED_EDGE('',*,*,#1564,.T.);
#1564 = EDGE_CURVE('',#1557,#1534,#1565,.T.);
#1565 = LINE('',#1566,#1567);
#1566 = CARTESIAN_POINT('',(2.735,17.75,-1.925));
#1567 = VECTOR('',#1568,1.);
#1568 = DIRECTION('',(-0.258819320778,-2.070554566224E-15,
    -0.965925752422));
#1569 = ORIENTED_EDGE('',*,*,#1541,.T.);
#1570 = PLANE('',#1571);
#1571 = AXIS2_PLACEMENT_3D('',#1572,#1573,#1574);
#1572 = CARTESIAN_POINT('',(0.124789612893,17.75,-2.533062313961));
#1573 = DIRECTION('',(-7.99E-15,1.,-1.78E-15));
#1574 = DIRECTION('',(1.,7.99E-15,0.));
#1575 = ADVANCED_FACE('',(#1576),#1594,.T.);
#1576 = FACE_BOUND('',#1577,.T.);
#1577 = EDGE_LOOP('',(#1578,#1579,#1580,#1588));
#1578 = ORIENTED_EDGE('',*,*,#507,.T.);
#1579 = ORIENTED_EDGE('',*,*,#1556,.T.);
#1580 = ORIENTED_EDGE('',*,*,#1581,.F.);
#1581 = EDGE_CURVE('',#1582,#1557,#1584,.T.);
#1582 = VERTEX_POINT('',#1583);
#1583 = CARTESIAN_POINT('',(2.735,18.75,-1.925));
#1584 = LINE('',#1585,#1586);
#1585 = CARTESIAN_POINT('',(2.735,18.75,-1.925));
#1586 = VECTOR('',#1587,1.);
#1587 = DIRECTION('',(7.66E-15,-1.,2.2E-16));
#1588 = ORIENTED_EDGE('',*,*,#1589,.F.);
#1589 = EDGE_CURVE('',#508,#1582,#1590,.T.);
#1590 = LINE('',#1591,#1592);
#1591 = CARTESIAN_POINT('',(-2.34,18.75,-1.925));
#1592 = VECTOR('',#1593,1.);
#1593 = DIRECTION('',(1.,8.E-15,0.));
#1594 = PLANE('',#1595);
#1595 = AXIS2_PLACEMENT_3D('',#1596,#1597,#1598);
#1596 = CARTESIAN_POINT('',(-2.34,18.75,-1.925));
#1597 = DIRECTION('',(0.,2.2E-16,1.));
#1598 = DIRECTION('',(1.,7.66E-15,-1.6852E-30));
#1599 = ADVANCED_FACE('',(#1600),#1613,.T.);
#1600 = FACE_BOUND('',#1601,.T.);
#1601 = EDGE_LOOP('',(#1602,#1603,#1604,#1605,#1611,#1612));
#1602 = ORIENTED_EDGE('',*,*,#1428,.F.);
#1603 = ORIENTED_EDGE('',*,*,#515,.T.);
#1604 = ORIENTED_EDGE('',*,*,#1589,.T.);
#1605 = ORIENTED_EDGE('',*,*,#1606,.T.);
#1606 = EDGE_CURVE('',#1582,#1526,#1607,.T.);
#1607 = LINE('',#1608,#1609);
#1608 = CARTESIAN_POINT('',(2.735,18.75,-1.925));
#1609 = VECTOR('',#1610,1.);
#1610 = DIRECTION('',(-0.258819320778,-2.070554566224E-15,
    -0.965925752422));
#1611 = ORIENTED_EDGE('',*,*,#1525,.T.);
#1612 = ORIENTED_EDGE('',*,*,#896,.F.);
#1613 = PLANE('',#1614);
#1614 = AXIS2_PLACEMENT_3D('',#1615,#1616,#1617);
#1615 = CARTESIAN_POINT('',(0.929999836603,18.75,-1.5875));
#1616 = DIRECTION('',(7.66E-15,-1.,0.));
#1617 = DIRECTION('',(-1.,-7.66E-15,0.));
#1618 = ADVANCED_FACE('',(#1619),#1630,.T.);
#1619 = FACE_BOUND('',#1620,.T.);
#1620 = EDGE_LOOP('',(#1621,#1622,#1623,#1624));
#1621 = ORIENTED_EDGE('',*,*,#1484,.F.);
#1622 = ORIENTED_EDGE('',*,*,#571,.F.);
#1623 = ORIENTED_EDGE('',*,*,#642,.T.);
#1624 = ORIENTED_EDGE('',*,*,#1625,.T.);
#1625 = EDGE_CURVE('',#635,#1485,#1626,.T.);
#1626 = LINE('',#1627,#1628);
#1627 = CARTESIAN_POINT('',(-1.157499840785,25.617499720687,
    -1.257499711973));
#1628 = VECTOR('',#1629,1.);
#1629 = DIRECTION('',(-0.577350394973,0.577350206298,0.577350206298));
#1630 = PLANE('',#1631);
#1631 = AXIS2_PLACEMENT_3D('',#1632,#1633,#1634);
#1632 = CARTESIAN_POINT('',(-0.6425,25.102500048202,-0.675));
#1633 = DIRECTION('',(0.707106665647,0.707106896726,-1.2E-16));
#1634 = DIRECTION('',(0.707106896726,-0.707106665647,0.));
#1635 = ADVANCED_FACE('',(#1636),#1642,.T.);
#1636 = FACE_BOUND('',#1637,.T.);
#1637 = EDGE_LOOP('',(#1638,#1639,#1640,#1641));
#1638 = ORIENTED_EDGE('',*,*,#1492,.F.);
#1639 = ORIENTED_EDGE('',*,*,#1625,.F.);
#1640 = ORIENTED_EDGE('',*,*,#634,.F.);
#1641 = ORIENTED_EDGE('',*,*,#1508,.F.);
#1642 = PLANE('',#1643);
#1643 = AXIS2_PLACEMENT_3D('',#1644,#1645,#1646);
#1644 = CARTESIAN_POINT('',(-2.34,25.24999943266,-1.625));
#1645 = DIRECTION('',(-1.6E-16,0.707106781187,-0.707106781187));
#1646 = DIRECTION('',(-1.6E-16,-0.707106781187,-0.707106781187));
#1647 = ADVANCED_FACE('',(#1648),#1659,.T.);
#1648 = FACE_BOUND('',#1649,.T.);
#1649 = EDGE_LOOP('',(#1650,#1656,#1657,#1658));
#1650 = ORIENTED_EDGE('',*,*,#1651,.F.);
#1651 = EDGE_CURVE('',#817,#694,#1652,.T.);
#1652 = LINE('',#1653,#1654);
#1653 = CARTESIAN_POINT('',(4.199999673205,20.251,0.));
#1654 = VECTOR('',#1655,1.);
#1655 = DIRECTION('',(-0.999999963378,-2.706359846754E-04,0.));
#1656 = ORIENTED_EDGE('',*,*,#816,.F.);
#1657 = ORIENTED_EDGE('',*,*,#1516,.T.);
#1658 = ORIENTED_EDGE('',*,*,#701,.F.);
#1659 = PLANE('',#1660);
#1660 = AXIS2_PLACEMENT_3D('',#1661,#1662,#1663);
#1661 = CARTESIAN_POINT('',(4.199999673205,20.251,0.));
#1662 = DIRECTION('',(-2.706359846754E-04,0.999999963378,0.));
#1663 = DIRECTION('',(-0.999999963378,-2.706359846754E-04,0.));
#1664 = ADVANCED_FACE('',(#1665),#1670,.T.);
#1665 = FACE_BOUND('',#1666,.T.);
#1666 = EDGE_LOOP('',(#1667,#1668,#1669));
#1667 = ORIENTED_EDGE('',*,*,#824,.F.);
#1668 = ORIENTED_EDGE('',*,*,#1651,.T.);
#1669 = ORIENTED_EDGE('',*,*,#748,.F.);
#1670 = PLANE('',#1671);
#1671 = AXIS2_PLACEMENT_3D('',#1672,#1673,#1674);
#1672 = CARTESIAN_POINT('',(30.870546618599,20.914689570817,0.));
#1673 = DIRECTION('',(0.,0.,1.));
#1674 = DIRECTION('',(1.,0.,0.));
#1675 = ADVANCED_FACE('',(#1676),#1681,.T.);
#1676 = FACE_BOUND('',#1677,.T.);
#1677 = EDGE_LOOP('',(#1678,#1679,#1680));
#1678 = ORIENTED_EDGE('',*,*,#888,.F.);
#1679 = ORIENTED_EDGE('',*,*,#952,.T.);
#1680 = ORIENTED_EDGE('',*,*,#1434,.F.);
#1681 = PLANE('',#1682);
#1682 = AXIS2_PLACEMENT_3D('',#1683,#1684,#1685);
#1683 = CARTESIAN_POINT('',(3.820968386832,18.75,-0.965841204449));
#1684 = DIRECTION('',(0.,1.,0.));
#1685 = DIRECTION('',(0.,0.,1.));
#1686 = ADVANCED_FACE('',(#1687),#1714,.T.);
#1687 = FACE_BOUND('',#1688,.T.);
#1688 = EDGE_LOOP('',(#1689,#1690,#1691,#1692,#1700,#1708));
#1689 = ORIENTED_EDGE('',*,*,#1030,.F.);
#1690 = ORIENTED_EDGE('',*,*,#1451,.T.);
#1691 = ORIENTED_EDGE('',*,*,#1263,.T.);
#1692 = ORIENTED_EDGE('',*,*,#1693,.F.);
#1693 = EDGE_CURVE('',#1694,#1256,#1696,.T.);
#1694 = VERTEX_POINT('',#1695);
#1695 = CARTESIAN_POINT('',(59.309936408809,18.75,-3.175));
#1696 = LINE('',#1697,#1698);
#1697 = CARTESIAN_POINT('',(64.06,18.75,-3.175));
#1698 = VECTOR('',#1699,1.);
#1699 = DIRECTION('',(-1.,0.,0.));
#1700 = ORIENTED_EDGE('',*,*,#1701,.F.);
#1701 = EDGE_CURVE('',#1702,#1694,#1704,.T.);
#1702 = VERTEX_POINT('',#1703);
#1703 = CARTESIAN_POINT('',(58.975,18.75,-1.925));
#1704 = LINE('',#1705,#1706);
#1705 = CARTESIAN_POINT('',(58.975,18.75,-1.925));
#1706 = VECTOR('',#1707,1.);
#1707 = DIRECTION('',(0.258818986177,0.,-0.965925842078));
#1708 = ORIENTED_EDGE('',*,*,#1709,.F.);
#1709 = EDGE_CURVE('',#1031,#1702,#1710,.T.);
#1710 = LINE('',#1711,#1712);
#1711 = CARTESIAN_POINT('',(64.06,18.75,-1.925));
#1712 = VECTOR('',#1713,1.);
#1713 = DIRECTION('',(-1.,0.,0.));
#1714 = PLANE('',#1715);
#1715 = AXIS2_PLACEMENT_3D('',#1716,#1717,#1718);
#1716 = CARTESIAN_POINT('',(60.785,18.75,-1.5875));
#1717 = DIRECTION('',(8.6E-16,-1.,0.));
#1718 = DIRECTION('',(-1.,-8.6E-16,0.));
#1719 = ADVANCED_FACE('',(#1720),#1738,.F.);
#1720 = FACE_BOUND('',#1721,.F.);
#1721 = EDGE_LOOP('',(#1722,#1723,#1731,#1737));
#1722 = ORIENTED_EDGE('',*,*,#1038,.T.);
#1723 = ORIENTED_EDGE('',*,*,#1724,.T.);
#1724 = EDGE_CURVE('',#1039,#1725,#1727,.T.);
#1725 = VERTEX_POINT('',#1726);
#1726 = CARTESIAN_POINT('',(58.975,17.75,-1.925));
#1727 = LINE('',#1728,#1729);
#1728 = CARTESIAN_POINT('',(64.06,17.75,-1.925));
#1729 = VECTOR('',#1730,1.);
#1730 = DIRECTION('',(-1.,0.,0.));
#1731 = ORIENTED_EDGE('',*,*,#1732,.F.);
#1732 = EDGE_CURVE('',#1702,#1725,#1733,.T.);
#1733 = LINE('',#1734,#1735);
#1734 = CARTESIAN_POINT('',(58.975,18.75,-1.925));
#1735 = VECTOR('',#1736,1.);
#1736 = DIRECTION('',(0.,-1.,2.2E-16));
#1737 = ORIENTED_EDGE('',*,*,#1709,.F.);
#1738 = PLANE('',#1739);
#1739 = AXIS2_PLACEMENT_3D('',#1740,#1741,#1742);
#1740 = CARTESIAN_POINT('',(64.06,18.75,-1.925));
#1741 = DIRECTION('',(-0.,-2.2E-16,-1.));
#1742 = DIRECTION('',(-1.,0.,0.));
#1743 = ADVANCED_FACE('',(#1744),#1762,.F.);
#1744 = FACE_BOUND('',#1745,.T.);
#1745 = EDGE_LOOP('',(#1746,#1747,#1748,#1756));
#1746 = ORIENTED_EDGE('',*,*,#1046,.T.);
#1747 = ORIENTED_EDGE('',*,*,#1724,.T.);
#1748 = ORIENTED_EDGE('',*,*,#1749,.T.);
#1749 = EDGE_CURVE('',#1725,#1750,#1752,.T.);
#1750 = VERTEX_POINT('',#1751);
#1751 = CARTESIAN_POINT('',(59.309936408809,17.75,-3.175));
#1752 = LINE('',#1753,#1754);
#1753 = CARTESIAN_POINT('',(58.975,17.75,-1.925));
#1754 = VECTOR('',#1755,1.);
#1755 = DIRECTION('',(0.258818986177,0.,-0.965925842078));
#1756 = ORIENTED_EDGE('',*,*,#1757,.T.);
#1757 = EDGE_CURVE('',#1750,#1047,#1758,.T.);
#1758 = LINE('',#1759,#1760);
#1759 = CARTESIAN_POINT('',(59.309936408809,17.75,-3.175));
#1760 = VECTOR('',#1761,1.);
#1761 = DIRECTION('',(1.,0.,0.));
#1762 = PLANE('',#1763);
#1763 = AXIS2_PLACEMENT_3D('',#1764,#1765,#1766);
#1764 = CARTESIAN_POINT('',(61.590210301112,17.75,-2.533089702704));
#1765 = DIRECTION('',(0.,1.,0.));
#1766 = DIRECTION('',(0.,0.,1.));
#1767 = ADVANCED_FACE('',(#1768),#1796,.T.);
#1768 = FACE_BOUND('',#1769,.T.);
#1769 = EDGE_LOOP('',(#1770,#1776,#1777,#1778,#1784,#1785,#1786,#1787,
    #1788,#1794,#1795));
#1770 = ORIENTED_EDGE('',*,*,#1771,.F.);
#1771 = EDGE_CURVE('',#1055,#1166,#1772,.T.);
#1772 = LINE('',#1773,#1774);
#1773 = CARTESIAN_POINT('',(64.06,23.700000506532,-3.175));
#1774 = VECTOR('',#1775,1.);
#1775 = DIRECTION('',(-1.,-2.08E-15,2.39E-15));
#1776 = ORIENTED_EDGE('',*,*,#1054,.T.);
#1777 = ORIENTED_EDGE('',*,*,#1757,.F.);
#1778 = ORIENTED_EDGE('',*,*,#1779,.F.);
#1779 = EDGE_CURVE('',#1694,#1750,#1780,.T.);
#1780 = LINE('',#1781,#1782);
#1781 = CARTESIAN_POINT('',(59.309936408809,18.75,-3.175));
#1782 = VECTOR('',#1783,1.);
#1783 = DIRECTION('',(0.,-1.,2.2E-16));
#1784 = ORIENTED_EDGE('',*,*,#1693,.T.);
#1785 = ORIENTED_EDGE('',*,*,#1253,.F.);
#1786 = ORIENTED_EDGE('',*,*,#1318,.T.);
#1787 = ORIENTED_EDGE('',*,*,#1350,.F.);
#1788 = ORIENTED_EDGE('',*,*,#1789,.F.);
#1789 = EDGE_CURVE('',#1221,#1343,#1790,.T.);
#1790 = LINE('',#1791,#1792);
#1791 = CARTESIAN_POINT('',(61.215000326795,20.25,-3.175));
#1792 = VECTOR('',#1793,1.);
#1793 = DIRECTION('',(-0.999999963576,2.699054994106E-04,0.));
#1794 = ORIENTED_EDGE('',*,*,#1220,.T.);
#1795 = ORIENTED_EDGE('',*,*,#1173,.T.);
#1796 = PLANE('',#1797);
#1797 = AXIS2_PLACEMENT_3D('',#1798,#1799,#1800);
#1798 = CARTESIAN_POINT('',(61.238154822305,21.255214875669,-3.175));
#1799 = DIRECTION('',(-0.,-0.,-1.));
#1800 = DIRECTION('',(-1.,0.,0.));
#1801 = ADVANCED_FACE('',(#1802),#1820,.T.);
#1802 = FACE_BOUND('',#1803,.T.);
#1803 = EDGE_LOOP('',(#1804,#1805,#1806,#1814));
#1804 = ORIENTED_EDGE('',*,*,#1101,.F.);
#1805 = ORIENTED_EDGE('',*,*,#1062,.T.);
#1806 = ORIENTED_EDGE('',*,*,#1807,.F.);
#1807 = EDGE_CURVE('',#1808,#1055,#1810,.T.);
#1808 = VERTEX_POINT('',#1809);
#1809 = CARTESIAN_POINT('',(62.51,25.250000253266,-1.625));
#1810 = LINE('',#1811,#1812);
#1811 = CARTESIAN_POINT('',(62.868333203523,24.891666913578,
    -1.983333592954));
#1812 = VECTOR('',#1813,1.);
#1813 = DIRECTION('',(0.577350394973,-0.577350206298,-0.577350206298));
#1814 = ORIENTED_EDGE('',*,*,#1815,.F.);
#1815 = EDGE_CURVE('',#1102,#1808,#1816,.T.);
#1816 = LINE('',#1817,#1818);
#1817 = CARTESIAN_POINT('',(62.51,25.25,0.));
#1818 = VECTOR('',#1819,1.);
#1819 = DIRECTION('',(-0.,-0.,-1.));
#1820 = PLANE('',#1821);
#1821 = AXIS2_PLACEMENT_3D('',#1822,#1823,#1824);
#1822 = CARTESIAN_POINT('',(63.285,24.475000253266,-0.675));
#1823 = DIRECTION('',(0.707106665647,0.707106896726,0.));
#1824 = DIRECTION('',(0.707106896726,-0.707106665647,0.));
#1825 = ADVANCED_FACE('',(#1826),#1837,.T.);
#1826 = FACE_BOUND('',#1827,.T.);
#1827 = EDGE_LOOP('',(#1828,#1829,#1830,#1836));
#1828 = ORIENTED_EDGE('',*,*,#1118,.F.);
#1829 = ORIENTED_EDGE('',*,*,#1815,.T.);
#1830 = ORIENTED_EDGE('',*,*,#1831,.F.);
#1831 = EDGE_CURVE('',#1158,#1808,#1832,.T.);
#1832 = LINE('',#1833,#1834);
#1833 = CARTESIAN_POINT('',(62.877500113871,25.617500248386,
    -1.257500258146));
#1834 = VECTOR('',#1835,1.);
#1835 = DIRECTION('',(0.577350128306,0.577350339631,0.577350339631));
#1836 = ORIENTED_EDGE('',*,*,#1157,.F.);
#1837 = PLANE('',#1838);
#1838 = AXIS2_PLACEMENT_3D('',#1839,#1840,#1841);
#1839 = CARTESIAN_POINT('',(62.3625,25.102499946011,-0.675));
#1840 = DIRECTION('',(-0.707106910596,0.707106651777,0.));
#1841 = DIRECTION('',(-0.707106651777,-0.707106910596,0.));
#1842 = ADVANCED_FACE('',(#1843),#1849,.F.);
#1843 = FACE_BOUND('',#1844,.F.);
#1844 = EDGE_LOOP('',(#1845,#1846,#1847,#1848));
#1845 = ORIENTED_EDGE('',*,*,#1807,.F.);
#1846 = ORIENTED_EDGE('',*,*,#1831,.F.);
#1847 = ORIENTED_EDGE('',*,*,#1165,.F.);
#1848 = ORIENTED_EDGE('',*,*,#1771,.F.);
#1849 = PLANE('',#1850);
#1850 = AXIS2_PLACEMENT_3D('',#1851,#1852,#1853);
#1851 = CARTESIAN_POINT('',(64.06,25.250000506532,-1.625));
#1852 = DIRECTION('',(3.16E-15,-0.707106781187,0.707106781187));
#1853 = DIRECTION('',(-2.5E-16,-0.707106781187,-0.707106781187));
#1854 = ADVANCED_FACE('',(#1855),#1860,.T.);
#1855 = FACE_BOUND('',#1856,.T.);
#1856 = EDGE_LOOP('',(#1857,#1858,#1859));
#1857 = ORIENTED_EDGE('',*,*,#1197,.T.);
#1858 = ORIENTED_EDGE('',*,*,#1271,.T.);
#1859 = ORIENTED_EDGE('',*,*,#1445,.T.);
#1860 = PLANE('',#1861);
#1861 = AXIS2_PLACEMENT_3D('',#1862,#1863,#1864);
#1862 = CARTESIAN_POINT('',(57.889032197388,18.75,-0.965841548433));
#1863 = DIRECTION('',(0.,1.,0.));
#1864 = DIRECTION('',(0.,0.,1.));
#1865 = ADVANCED_FACE('',(#1866),#1877,.T.);
#1866 = FACE_BOUND('',#1867,.T.);
#1867 = EDGE_LOOP('',(#1868,#1874,#1875,#1876));
#1868 = ORIENTED_EDGE('',*,*,#1869,.F.);
#1869 = EDGE_CURVE('',#1230,#1341,#1870,.T.);
#1870 = LINE('',#1871,#1872);
#1871 = CARTESIAN_POINT('',(61.215000326795,20.25,0.));
#1872 = VECTOR('',#1873,1.);
#1873 = DIRECTION('',(-0.999999963576,2.699054994106E-04,0.));
#1874 = ORIENTED_EDGE('',*,*,#1229,.T.);
#1875 = ORIENTED_EDGE('',*,*,#1789,.T.);
#1876 = ORIENTED_EDGE('',*,*,#1340,.F.);
#1877 = PLANE('',#1878);
#1878 = AXIS2_PLACEMENT_3D('',#1879,#1880,#1881);
#1879 = CARTESIAN_POINT('',(61.215000326795,20.25,0.));
#1880 = DIRECTION('',(2.699054994106E-04,0.999999963576,0.));
#1881 = DIRECTION('',(-0.999999963576,2.699054994106E-04,0.));
#1882 = ADVANCED_FACE('',(#1883),#1888,.T.);
#1883 = FACE_BOUND('',#1884,.T.);
#1884 = EDGE_LOOP('',(#1885,#1886,#1887));
#1885 = ORIENTED_EDGE('',*,*,#1293,.F.);
#1886 = ORIENTED_EDGE('',*,*,#1869,.T.);
#1887 = ORIENTED_EDGE('',*,*,#1359,.F.);
#1888 = PLANE('',#1889);
#1889 = AXIS2_PLACEMENT_3D('',#1890,#1891,#1892);
#1890 = CARTESIAN_POINT('',(30.870546618599,20.914689570817,0.));
#1891 = DIRECTION('',(0.,0.,1.));
#1892 = DIRECTION('',(1.,0.,0.));
#1893 = ADVANCED_FACE('',(#1894),#1900,.T.);
#1894 = FACE_BOUND('',#1895,.T.);
#1895 = EDGE_LOOP('',(#1896,#1897,#1898,#1899));
#1896 = ORIENTED_EDGE('',*,*,#1581,.T.);
#1897 = ORIENTED_EDGE('',*,*,#1564,.T.);
#1898 = ORIENTED_EDGE('',*,*,#1533,.F.);
#1899 = ORIENTED_EDGE('',*,*,#1606,.F.);
#1900 = PLANE('',#1901);
#1901 = AXIS2_PLACEMENT_3D('',#1902,#1903,#1904);
#1902 = CARTESIAN_POINT('',(2.735,18.75,-1.925));
#1903 = DIRECTION('',(0.965925752422,7.34E-15,-0.258819320778));
#1904 = DIRECTION('',(-0.258819320778,-2.2E-15,-0.965925752422));
#1905 = ADVANCED_FACE('',(#1906),#1912,.F.);
#1906 = FACE_BOUND('',#1907,.F.);
#1907 = EDGE_LOOP('',(#1908,#1909,#1910,#1911));
#1908 = ORIENTED_EDGE('',*,*,#1732,.T.);
#1909 = ORIENTED_EDGE('',*,*,#1749,.T.);
#1910 = ORIENTED_EDGE('',*,*,#1779,.F.);
#1911 = ORIENTED_EDGE('',*,*,#1701,.F.);
#1912 = PLANE('',#1913);
#1913 = AXIS2_PLACEMENT_3D('',#1914,#1915,#1916);
#1914 = CARTESIAN_POINT('',(58.975,18.75,-1.925));
#1915 = DIRECTION('',(0.965925842078,6.E-17,0.258818986177));
#1916 = DIRECTION('',(0.258818986177,-2.1E-16,-0.965925842078));
#1917 = ( GEOMETRIC_REPRESENTATION_CONTEXT(3) 
GLOBAL_UNCERTAINTY_ASSIGNED_CONTEXT((#1921)) 
GLOBAL_UNIT_ASSIGNED_CONTEXT((#1918,#1919,#1920)) REPRESENTATION_CONTEXT
('Context #1','3D Context with UNIT and UNCERTAINTY') );
#1918 = ( LENGTH_UNIT() NAMED_UNIT(*) SI_UNIT(.MILLI.,.METRE.) );
#1919 = ( NAMED_UNIT(*) PLANE_ANGLE_UNIT() SI_UNIT($,.RADIAN.) );
#1920 = ( NAMED_UNIT(*) SI_UNIT($,.STERADIAN.) SOLID_ANGLE_UNIT() );
#1921 = UNCERTAINTY_MEASURE_WITH_UNIT(LENGTH_MEASURE(1.E-05),#1918,
  'distance_accuracy_value','confusion accuracy');
#1922 = PRODUCT_RELATED_PRODUCT_CATEGORY('part',$,(#7));
#1923 = MECHANICAL_DESIGN_GEOMETRIC_PRESENTATION_REPRESENTATION('',(
    #1924),#1917);
#1924 = STYLED_ITEM('color',(#1925),#15);
#1925 = PRESENTATION_STYLE_ASSIGNMENT((#1926,#1932));
#1926 = SURFACE_STYLE_USAGE(.BOTH.,#1927);
#1927 = SURFACE_SIDE_STYLE('',(#1928));
#1928 = SURFACE_STYLE_FILL_AREA(#1929);
#1929 = FILL_AREA_STYLE('',(#1930));
#1930 = FILL_AREA_STYLE_COLOUR('',#1931);
#1931 = COLOUR_RGB('',0.447058818107,0.474509808674,0.501960817233);
#1932 = CURVE_STYLE('',#1933,POSITIVE_LENGTH_MEASURE(0.1),#1934);
#1933 = DRAUGHTING_PRE_DEFINED_CURVE_FONT('continuous');
#1934 = COLOUR_RGB('',9.803921802644E-02,9.803921802644E-02,
  9.803921802644E-02);
ENDSEC;
END-ISO-10303-21;
