ISO-10303-21;
HEADER;
FILE_DESCRIPTION(('FreeCAD Model'),'2;1');
FILE_NAME('Open CASCADE Shape Model','2026-08-21T14:04:54',(''),(''),
  'Open CASCADE STEP processor 7.8','FreeCAD','Unknown');
FILE_SCHEMA(('AUTOMOTIVE_DESIGN { 1 0 10303 214 1 1 1 1 }'));
ENDSEC;
DATA;
#1 = APPLICATION_PROTOCOL_DEFINITION('international standard',
  'automotive_design',2000,#2);
#2 = APPLICATION_CONTEXT(
  'core data for automotive mechanical design processes');
#3 = SHAPE_DEFINITION_REPRESENTATION(#4,#10);
#4 = PRODUCT_DEFINITION_SHAPE('','',#5);
#5 = PRODUCT_DEFINITION('design','',#6,#9);
#6 = PRODUCT_DEFINITION_FORMATION('','',#7);
#7 = PRODUCT('Pad012','Pad012','',(#8));
#8 = PRODUCT_CONTEXT('',#2,'mechanical');
#9 = PRODUCT_DEFINITION_CONTEXT('part definition',#2,'design');
#10 = ADVANCED_BREP_SHAPE_REPRESENTATION('',(#11,#15),#1849);
#11 = AXIS2_PLACEMENT_3D('',#12,#13,#14);
#12 = CARTESIAN_POINT('',(0.,0.,0.));
#13 = DIRECTION('',(0.,0.,1.));
#14 = DIRECTION('',(1.,0.,-0.));
#15 = MANIFOLD_SOLID_BREP('',#16);
#16 = CLOSED_SHELL('',(#17,#340,#371,#396,#420,#444,#468,#492,#516,#551,
    #575,#599,#623,#679,#710,#750,#783,#807,#847,#871,#903,#934,#958,
    #982,#1006,#1045,#1069,#1093,#1133,#1157,#1190,#1214,#1238,#1262,
    #1293,#1310,#1335,#1360,#1426,#1459,#1483,#1507,#1541,#1565,#1582,
    #1594,#1611,#1622,#1633,#1644,#1684,#1700,#1717,#1729,#1760,#1784,
    #1808,#1829));
#17 = ADVANCED_FACE('',(#18,#313,#324),#335,.T.);
#18 = FACE_BOUND('',#19,.T.);
#19 = EDGE_LOOP('',(#20,#30,#39,#47,#55,#63,#71,#79,#88,#97,#105,#113,
    #121,#129,#137,#145,#154,#162,#170,#178,#186,#194,#202,#210,#218,
    #226,#234,#242,#250,#258,#267,#275,#283,#291,#299,#307));
#20 = ORIENTED_EDGE('',*,*,#21,.F.);
#21 = EDGE_CURVE('',#22,#24,#26,.T.);
#22 = VERTEX_POINT('',#23);
#23 = CARTESIAN_POINT('',(0.,3.,1.825));
#24 = VERTEX_POINT('',#25);
#25 = CARTESIAN_POINT('',(5.,7.,1.825));
#26 = LINE('',#27,#28);
#27 = CARTESIAN_POINT('',(0.,3.,1.825));
#28 = VECTOR('',#29,1.);
#29 = DIRECTION('',(0.780868809443,0.624695047554,0.));
#30 = ORIENTED_EDGE('',*,*,#31,.T.);
#31 = EDGE_CURVE('',#22,#32,#34,.T.);
#32 = VERTEX_POINT('',#33);
#33 = CARTESIAN_POINT('',(3.,0.,1.825));
#34 = CIRCLE('',#35,3.);
#35 = AXIS2_PLACEMENT_3D('',#36,#37,#38);
#36 = CARTESIAN_POINT('',(0.,0.,1.825));
#37 = DIRECTION('',(0.,0.,1.));
#38 = DIRECTION('',(1.,0.,0.));
#39 = ORIENTED_EDGE('',*,*,#40,.T.);
#40 = EDGE_CURVE('',#32,#41,#43,.T.);
#41 = VERTEX_POINT('',#42);
#42 = CARTESIAN_POINT('',(5.,2.,1.825));
#43 = LINE('',#44,#45);
#44 = CARTESIAN_POINT('',(3.,0.,1.825));
#45 = VECTOR('',#46,1.);
#46 = DIRECTION('',(0.707106781187,0.707106781187,0.));
#47 = ORIENTED_EDGE('',*,*,#48,.T.);
#48 = EDGE_CURVE('',#41,#49,#51,.T.);
#49 = VERTEX_POINT('',#50);
#50 = CARTESIAN_POINT('',(6.0775,3.,1.825));
#51 = LINE('',#52,#53);
#52 = CARTESIAN_POINT('',(5.,2.,1.825));
#53 = VECTOR('',#54,1.);
#54 = DIRECTION('',(0.732975177552,0.680255385199,0.));
#55 = ORIENTED_EDGE('',*,*,#56,.T.);
#56 = EDGE_CURVE('',#49,#57,#59,.T.);
#57 = VERTEX_POINT('',#58);
#58 = CARTESIAN_POINT('',(55.6425,3.,1.825));
#59 = LINE('',#60,#61);
#60 = CARTESIAN_POINT('',(6.0775,3.,1.825));
#61 = VECTOR('',#62,1.);
#62 = DIRECTION('',(1.,0.,0.));
#63 = ORIENTED_EDGE('',*,*,#64,.T.);
#64 = EDGE_CURVE('',#57,#65,#67,.T.);
#65 = VERTEX_POINT('',#66);
#66 = CARTESIAN_POINT('',(56.72,2.,1.825));
#67 = LINE('',#68,#69);
#68 = CARTESIAN_POINT('',(55.6425,3.,1.825));
#69 = VECTOR('',#70,1.);
#70 = DIRECTION('',(0.732975177552,-0.680255385199,0.));
#71 = ORIENTED_EDGE('',*,*,#72,.F.);
#72 = EDGE_CURVE('',#73,#65,#75,.T.);
#73 = VERTEX_POINT('',#74);
#74 = CARTESIAN_POINT('',(58.72,0.,1.825));
#75 = LINE('',#76,#77);
#76 = CARTESIAN_POINT('',(58.72,0.,1.825));
#77 = VECTOR('',#78,1.);
#78 = DIRECTION('',(-0.707106781187,0.707106781187,0.));
#79 = ORIENTED_EDGE('',*,*,#80,.T.);
#80 = EDGE_CURVE('',#73,#81,#83,.T.);
#81 = VERTEX_POINT('',#82);
#82 = CARTESIAN_POINT('',(64.72,0.,1.825));
#83 = CIRCLE('',#84,3.);
#84 = AXIS2_PLACEMENT_3D('',#85,#86,#87);
#85 = CARTESIAN_POINT('',(61.72,0.,1.825));
#86 = DIRECTION('',(0.,0.,1.));
#87 = DIRECTION('',(1.,0.,0.));
#88 = ORIENTED_EDGE('',*,*,#89,.T.);
#89 = EDGE_CURVE('',#81,#90,#92,.T.);
#90 = VERTEX_POINT('',#91);
#91 = CARTESIAN_POINT('',(61.72,3.,1.825));
#92 = CIRCLE('',#93,3.);
#93 = AXIS2_PLACEMENT_3D('',#94,#95,#96);
#94 = CARTESIAN_POINT('',(61.72,0.,1.825));
#95 = DIRECTION('',(0.,0.,1.));
#96 = DIRECTION('',(1.,0.,0.));
#97 = ORIENTED_EDGE('',*,*,#98,.T.);
#98 = EDGE_CURVE('',#90,#99,#101,.T.);
#99 = VERTEX_POINT('',#100);
#100 = CARTESIAN_POINT('',(56.72,7.,1.825));
#101 = LINE('',#102,#103);
#102 = CARTESIAN_POINT('',(61.72,3.,1.825));
#103 = VECTOR('',#104,1.);
#104 = DIRECTION('',(-0.780868809443,0.624695047554,0.));
#105 = ORIENTED_EDGE('',*,*,#106,.T.);
#106 = EDGE_CURVE('',#99,#107,#109,.T.);
#107 = VERTEX_POINT('',#108);
#108 = CARTESIAN_POINT('',(56.72,14.,1.825));
#109 = LINE('',#110,#111);
#110 = CARTESIAN_POINT('',(56.72,7.,1.825));
#111 = VECTOR('',#112,1.);
#112 = DIRECTION('',(0.,1.,0.));
#113 = ORIENTED_EDGE('',*,*,#114,.T.);
#114 = EDGE_CURVE('',#107,#115,#117,.T.);
#115 = VERTEX_POINT('',#116);
#116 = CARTESIAN_POINT('',(64.06,16.75,1.825));
#117 = LINE('',#118,#119);
#118 = CARTESIAN_POINT('',(56.72,14.,1.825));
#119 = VECTOR('',#120,1.);
#120 = DIRECTION('',(0.93643399573,0.35084379949,0.));
#121 = ORIENTED_EDGE('',*,*,#122,.T.);
#122 = EDGE_CURVE('',#115,#123,#125,.T.);
#123 = VERTEX_POINT('',#124);
#124 = CARTESIAN_POINT('',(64.06,23.700000506532,1.825));
#125 = LINE('',#126,#127);
#126 = CARTESIAN_POINT('',(64.06,16.75,1.825));
#127 = VECTOR('',#128,1.);
#128 = DIRECTION('',(0.,1.,0.));
#129 = ORIENTED_EDGE('',*,*,#130,.T.);
#130 = EDGE_CURVE('',#123,#131,#133,.T.);
#131 = VERTEX_POINT('',#132);
#132 = CARTESIAN_POINT('',(62.215,23.700000506532,1.825));
#133 = LINE('',#134,#135);
#134 = CARTESIAN_POINT('',(64.06,23.700000506532,1.825));
#135 = VECTOR('',#136,1.);
#136 = DIRECTION('',(-1.,-2.08E-15,2.39E-15));
#137 = ORIENTED_EDGE('',*,*,#138,.T.);
#138 = EDGE_CURVE('',#131,#139,#141,.T.);
#139 = VERTEX_POINT('',#140);
#140 = CARTESIAN_POINT('',(62.215,21.25,1.825));
#141 = LINE('',#142,#143);
#142 = CARTESIAN_POINT('',(62.215,24.954999892022,1.825));
#143 = VECTOR('',#144,1.);
#144 = DIRECTION('',(1.92E-15,-1.,0.));
#145 = ORIENTED_EDGE('',*,*,#146,.F.);
#146 = EDGE_CURVE('',#147,#139,#149,.T.);
#147 = VERTEX_POINT('',#148);
#148 = CARTESIAN_POINT('',(61.215000018661,20.25,1.825));
#149 = CIRCLE('',#150,1.);
#150 = AXIS2_PLACEMENT_3D('',#151,#152,#153);
#151 = CARTESIAN_POINT('',(61.215,21.25,1.825));
#152 = DIRECTION('',(0.,0.,1.));
#153 = DIRECTION('',(1.,0.,0.));
#154 = ORIENTED_EDGE('',*,*,#155,.T.);
#155 = EDGE_CURVE('',#147,#156,#158,.T.);
#156 = VERTEX_POINT('',#157);
#157 = CARTESIAN_POINT('',(59.01,20.25,1.825));
#158 = LINE('',#159,#160);
#159 = CARTESIAN_POINT('',(61.215000018661,20.25,1.825));
#160 = VECTOR('',#161,1.);
#161 = DIRECTION('',(-1.,0.,0.));
#162 = ORIENTED_EDGE('',*,*,#163,.T.);
#163 = EDGE_CURVE('',#156,#164,#166,.T.);
#164 = VERTEX_POINT('',#165);
#165 = CARTESIAN_POINT('',(59.01,25.25,1.825));
#166 = LINE('',#167,#168);
#167 = CARTESIAN_POINT('',(59.01,20.25,1.825));
#168 = VECTOR('',#169,1.);
#169 = DIRECTION('',(-7.7E-15,1.,-2.22044604925E-16));
#170 = ORIENTED_EDGE('',*,*,#171,.T.);
#171 = EDGE_CURVE('',#164,#172,#174,.T.);
#172 = VERTEX_POINT('',#173);
#173 = CARTESIAN_POINT('',(57.51,25.25,1.825));
#174 = LINE('',#175,#176);
#175 = CARTESIAN_POINT('',(59.01,25.25,1.825));
#176 = VECTOR('',#177,1.);
#177 = DIRECTION('',(-1.,-7.7E-15,7.88860905221E-31));
#178 = ORIENTED_EDGE('',*,*,#179,.F.);
#179 = EDGE_CURVE('',#180,#172,#182,.T.);
#180 = VERTEX_POINT('',#181);
#181 = CARTESIAN_POINT('',(57.51,18.75,1.825));
#182 = LINE('',#183,#184);
#183 = CARTESIAN_POINT('',(57.51,20.25,1.825));
#184 = VECTOR('',#185,1.);
#185 = DIRECTION('',(-7.7E-15,1.,-2.22044604925E-16));
#186 = ORIENTED_EDGE('',*,*,#187,.T.);
#187 = EDGE_CURVE('',#180,#188,#190,.T.);
#188 = VERTEX_POINT('',#189);
#189 = CARTESIAN_POINT('',(57.51,18.362403100775,1.825));
#190 = LINE('',#191,#192);
#191 = CARTESIAN_POINT('',(57.51,20.25,1.825));
#192 = VECTOR('',#193,1.);
#193 = DIRECTION('',(0.,-1.,0.));
#194 = ORIENTED_EDGE('',*,*,#195,.T.);
#195 = EDGE_CURVE('',#188,#196,#198,.T.);
#196 = VERTEX_POINT('',#197);
#197 = CARTESIAN_POINT('',(56.72,17.75,1.825));
#198 = LINE('',#199,#200);
#199 = CARTESIAN_POINT('',(57.51,18.362403100775,1.825));
#200 = VECTOR('',#201,1.);
#201 = DIRECTION('',(-0.790340885165,-0.612667352841,0.));
#202 = ORIENTED_EDGE('',*,*,#203,.F.);
#203 = EDGE_CURVE('',#204,#196,#206,.T.);
#204 = VERTEX_POINT('',#205);
#205 = CARTESIAN_POINT('',(5.,17.75,1.825));
#206 = LINE('',#207,#208);
#207 = CARTESIAN_POINT('',(5.,17.75,1.825));
#208 = VECTOR('',#209,1.);
#209 = DIRECTION('',(1.,0.,0.));
#210 = ORIENTED_EDGE('',*,*,#211,.F.);
#211 = EDGE_CURVE('',#212,#204,#214,.T.);
#212 = VERTEX_POINT('',#213);
#213 = CARTESIAN_POINT('',(4.2,18.365384615385,1.825));
#214 = LINE('',#215,#216);
#215 = CARTESIAN_POINT('',(4.2,18.365384615385,1.825));
#216 = VECTOR('',#217,1.);
#217 = DIRECTION('',(0.792623989105,-0.60971076085,0.));
#218 = ORIENTED_EDGE('',*,*,#219,.F.);
#219 = EDGE_CURVE('',#220,#212,#222,.T.);
#220 = VERTEX_POINT('',#221);
#221 = CARTESIAN_POINT('',(4.2,18.75,1.825));
#222 = LINE('',#223,#224);
#223 = CARTESIAN_POINT('',(4.2,20.25,1.825));
#224 = VECTOR('',#225,1.);
#225 = DIRECTION('',(0.,-1.,0.));
#226 = ORIENTED_EDGE('',*,*,#227,.F.);
#227 = EDGE_CURVE('',#228,#220,#230,.T.);
#228 = VERTEX_POINT('',#229);
#229 = CARTESIAN_POINT('',(4.2,25.25,1.825));
#230 = LINE('',#231,#232);
#231 = CARTESIAN_POINT('',(4.2,20.25,1.825));
#232 = VECTOR('',#233,1.);
#233 = DIRECTION('',(0.,-1.,0.));
#234 = ORIENTED_EDGE('',*,*,#235,.T.);
#235 = EDGE_CURVE('',#228,#236,#238,.T.);
#236 = VERTEX_POINT('',#237);
#237 = CARTESIAN_POINT('',(2.7,25.25,1.825));
#238 = LINE('',#239,#240);
#239 = CARTESIAN_POINT('',(4.2,25.25,1.825));
#240 = VECTOR('',#241,1.);
#241 = DIRECTION('',(-1.,0.,0.));
#242 = ORIENTED_EDGE('',*,*,#243,.F.);
#243 = EDGE_CURVE('',#244,#236,#246,.T.);
#244 = VERTEX_POINT('',#245);
#245 = CARTESIAN_POINT('',(2.7,20.25,1.825));
#246 = LINE('',#247,#248);
#247 = CARTESIAN_POINT('',(2.7,20.25,1.825));
#248 = VECTOR('',#249,1.);
#249 = DIRECTION('',(0.,1.,-2.22044604925E-16));
#250 = ORIENTED_EDGE('',*,*,#251,.F.);
#251 = EDGE_CURVE('',#252,#244,#254,.T.);
#252 = VERTEX_POINT('',#253);
#253 = CARTESIAN_POINT('',(0.505000058071,20.25,1.825));
#254 = LINE('',#255,#256);
#255 = CARTESIAN_POINT('',(3.7,20.25,1.825));
#256 = VECTOR('',#257,1.);
#257 = DIRECTION('',(1.,0.,0.));
#258 = ORIENTED_EDGE('',*,*,#259,.F.);
#259 = EDGE_CURVE('',#260,#252,#262,.T.);
#260 = VERTEX_POINT('',#261);
#261 = CARTESIAN_POINT('',(-0.495,21.25,1.825));
#262 = CIRCLE('',#263,1.);
#263 = AXIS2_PLACEMENT_3D('',#264,#265,#266);
#264 = CARTESIAN_POINT('',(0.505,21.25,1.825));
#265 = DIRECTION('',(0.,0.,1.));
#266 = DIRECTION('',(1.,0.,0.));
#267 = ORIENTED_EDGE('',*,*,#268,.T.);
#268 = EDGE_CURVE('',#260,#269,#271,.T.);
#269 = VERTEX_POINT('',#270);
#270 = CARTESIAN_POINT('',(-0.495,24.955000096404,1.825));
#271 = LINE('',#272,#273);
#272 = CARTESIAN_POINT('',(-0.495,21.25,1.825));
#273 = VECTOR('',#274,1.);
#274 = DIRECTION('',(0.,1.,0.));
#275 = ORIENTED_EDGE('',*,*,#276,.F.);
#276 = EDGE_CURVE('',#277,#269,#279,.T.);
#277 = VERTEX_POINT('',#278);
#278 = CARTESIAN_POINT('',(-0.79,25.25,1.825));
#279 = LINE('',#280,#281);
#280 = CARTESIAN_POINT('',(-0.79,25.25,1.825));
#281 = VECTOR('',#282,1.);
#282 = DIRECTION('',(0.707106896726,-0.707106665647,0.));
#283 = ORIENTED_EDGE('',*,*,#284,.T.);
#284 = EDGE_CURVE('',#277,#285,#287,.T.);
#285 = VERTEX_POINT('',#286);
#286 = CARTESIAN_POINT('',(-2.34,23.69999943266,1.825));
#287 = LINE('',#288,#289);
#288 = CARTESIAN_POINT('',(-0.79,25.25,1.825));
#289 = VECTOR('',#290,1.);
#290 = DIRECTION('',(-0.707106651777,-0.707106910596,0.));
#291 = ORIENTED_EDGE('',*,*,#292,.T.);
#292 = EDGE_CURVE('',#285,#293,#295,.T.);
#293 = VERTEX_POINT('',#294);
#294 = CARTESIAN_POINT('',(-2.34,16.75,1.825));
#295 = LINE('',#296,#297);
#296 = CARTESIAN_POINT('',(-2.34,23.69999943266,1.825));
#297 = VECTOR('',#298,1.);
#298 = DIRECTION('',(-2.6E-16,-1.,0.));
#299 = ORIENTED_EDGE('',*,*,#300,.F.);
#300 = EDGE_CURVE('',#301,#293,#303,.T.);
#301 = VERTEX_POINT('',#302);
#302 = CARTESIAN_POINT('',(5.,14.,1.825));
#303 = LINE('',#304,#305);
#304 = CARTESIAN_POINT('',(5.,14.,1.825));
#305 = VECTOR('',#306,1.);
#306 = DIRECTION('',(-0.93643399573,0.35084379949,0.));
#307 = ORIENTED_EDGE('',*,*,#308,.F.);
#308 = EDGE_CURVE('',#24,#301,#309,.T.);
#309 = LINE('',#310,#311);
#310 = CARTESIAN_POINT('',(5.,7.,1.825));
#311 = VECTOR('',#312,1.);
#312 = DIRECTION('',(0.,1.,0.));
#313 = FACE_BOUND('',#314,.T.);
#314 = EDGE_LOOP('',(#315));
#315 = ORIENTED_EDGE('',*,*,#316,.F.);
#316 = EDGE_CURVE('',#317,#317,#319,.T.);
#317 = VERTEX_POINT('',#318);
#318 = CARTESIAN_POINT('',(1.32,0.,1.825));
#319 = CIRCLE('',#320,1.32);
#320 = AXIS2_PLACEMENT_3D('',#321,#322,#323);
#321 = CARTESIAN_POINT('',(0.,0.,1.825));
#322 = DIRECTION('',(0.,0.,1.));
#323 = DIRECTION('',(1.,0.,0.));
#324 = FACE_BOUND('',#325,.T.);
#325 = EDGE_LOOP('',(#326));
#326 = ORIENTED_EDGE('',*,*,#327,.F.);
#327 = EDGE_CURVE('',#328,#328,#330,.T.);
#328 = VERTEX_POINT('',#329);
#329 = CARTESIAN_POINT('',(63.04,0.,1.825));
#330 = CIRCLE('',#331,1.32);
#331 = AXIS2_PLACEMENT_3D('',#332,#333,#334);
#332 = CARTESIAN_POINT('',(61.72,0.,1.825));
#333 = DIRECTION('',(0.,0.,1.));
#334 = DIRECTION('',(1.,0.,0.));
#335 = PLANE('',#336);
#336 = AXIS2_PLACEMENT_3D('',#337,#338,#339);
#337 = CARTESIAN_POINT('',(30.722253766631,11.860640247429,1.825));
#338 = DIRECTION('',(0.,0.,1.));
#339 = DIRECTION('',(1.,0.,0.));
#340 = ADVANCED_FACE('',(#341),#366,.T.);
#341 = FACE_BOUND('',#342,.T.);
#342 = EDGE_LOOP('',(#343,#351,#352,#360));
#343 = ORIENTED_EDGE('',*,*,#344,.T.);
#344 = EDGE_CURVE('',#345,#22,#347,.T.);
#345 = VERTEX_POINT('',#346);
#346 = CARTESIAN_POINT('',(0.,3.,0.));
#347 = LINE('',#348,#349);
#348 = CARTESIAN_POINT('',(0.,3.,0.));
#349 = VECTOR('',#350,1.);
#350 = DIRECTION('',(0.,0.,1.));
#351 = ORIENTED_EDGE('',*,*,#21,.T.);
#352 = ORIENTED_EDGE('',*,*,#353,.F.);
#353 = EDGE_CURVE('',#354,#24,#356,.T.);
#354 = VERTEX_POINT('',#355);
#355 = CARTESIAN_POINT('',(5.,7.,0.));
#356 = LINE('',#357,#358);
#357 = CARTESIAN_POINT('',(5.,7.,0.));
#358 = VECTOR('',#359,1.);
#359 = DIRECTION('',(0.,0.,1.));
#360 = ORIENTED_EDGE('',*,*,#361,.F.);
#361 = EDGE_CURVE('',#345,#354,#362,.T.);
#362 = LINE('',#363,#364);
#363 = CARTESIAN_POINT('',(0.,3.,0.));
#364 = VECTOR('',#365,1.);
#365 = DIRECTION('',(0.780868809443,0.624695047554,0.));
#366 = PLANE('',#367);
#367 = AXIS2_PLACEMENT_3D('',#368,#369,#370);
#368 = CARTESIAN_POINT('',(0.,3.,0.));
#369 = DIRECTION('',(-0.624695047554,0.780868809443,0.));
#370 = DIRECTION('',(0.780868809443,0.624695047554,0.));
#371 = ADVANCED_FACE('',(#372),#391,.T.);
#372 = FACE_BOUND('',#373,.F.);
#373 = EDGE_LOOP('',(#374,#382,#389,#390));
#374 = ORIENTED_EDGE('',*,*,#375,.F.);
#375 = EDGE_CURVE('',#376,#32,#378,.T.);
#376 = VERTEX_POINT('',#377);
#377 = CARTESIAN_POINT('',(3.,0.,0.));
#378 = LINE('',#379,#380);
#379 = CARTESIAN_POINT('',(3.,0.,0.));
#380 = VECTOR('',#381,1.);
#381 = DIRECTION('',(0.,0.,1.));
#382 = ORIENTED_EDGE('',*,*,#383,.F.);
#383 = EDGE_CURVE('',#345,#376,#384,.T.);
#384 = CIRCLE('',#385,3.);
#385 = AXIS2_PLACEMENT_3D('',#386,#387,#388);
#386 = CARTESIAN_POINT('',(0.,0.,0.));
#387 = DIRECTION('',(0.,0.,1.));
#388 = DIRECTION('',(1.,0.,0.));
#389 = ORIENTED_EDGE('',*,*,#344,.T.);
#390 = ORIENTED_EDGE('',*,*,#31,.T.);
#391 = CYLINDRICAL_SURFACE('',#392,3.);
#392 = AXIS2_PLACEMENT_3D('',#393,#394,#395);
#393 = CARTESIAN_POINT('',(0.,0.,0.));
#394 = DIRECTION('',(-0.,-0.,-1.));
#395 = DIRECTION('',(1.,0.,0.));
#396 = ADVANCED_FACE('',(#397),#415,.F.);
#397 = FACE_BOUND('',#398,.F.);
#398 = EDGE_LOOP('',(#399,#400,#401,#409));
#399 = ORIENTED_EDGE('',*,*,#375,.T.);
#400 = ORIENTED_EDGE('',*,*,#40,.T.);
#401 = ORIENTED_EDGE('',*,*,#402,.F.);
#402 = EDGE_CURVE('',#403,#41,#405,.T.);
#403 = VERTEX_POINT('',#404);
#404 = CARTESIAN_POINT('',(5.,2.,0.));
#405 = LINE('',#406,#407);
#406 = CARTESIAN_POINT('',(5.,2.,0.));
#407 = VECTOR('',#408,1.);
#408 = DIRECTION('',(0.,0.,1.));
#409 = ORIENTED_EDGE('',*,*,#410,.F.);
#410 = EDGE_CURVE('',#376,#403,#411,.T.);
#411 = LINE('',#412,#413);
#412 = CARTESIAN_POINT('',(3.,0.,0.));
#413 = VECTOR('',#414,1.);
#414 = DIRECTION('',(0.707106781187,0.707106781187,0.));
#415 = PLANE('',#416);
#416 = AXIS2_PLACEMENT_3D('',#417,#418,#419);
#417 = CARTESIAN_POINT('',(3.,0.,0.));
#418 = DIRECTION('',(-0.707106781187,0.707106781187,0.));
#419 = DIRECTION('',(0.707106781187,0.707106781187,0.));
#420 = ADVANCED_FACE('',(#421),#439,.F.);
#421 = FACE_BOUND('',#422,.F.);
#422 = EDGE_LOOP('',(#423,#424,#425,#433));
#423 = ORIENTED_EDGE('',*,*,#402,.T.);
#424 = ORIENTED_EDGE('',*,*,#48,.T.);
#425 = ORIENTED_EDGE('',*,*,#426,.F.);
#426 = EDGE_CURVE('',#427,#49,#429,.T.);
#427 = VERTEX_POINT('',#428);
#428 = CARTESIAN_POINT('',(6.0775,3.,0.));
#429 = LINE('',#430,#431);
#430 = CARTESIAN_POINT('',(6.0775,3.,0.));
#431 = VECTOR('',#432,1.);
#432 = DIRECTION('',(0.,0.,1.));
#433 = ORIENTED_EDGE('',*,*,#434,.F.);
#434 = EDGE_CURVE('',#403,#427,#435,.T.);
#435 = LINE('',#436,#437);
#436 = CARTESIAN_POINT('',(5.,2.,0.));
#437 = VECTOR('',#438,1.);
#438 = DIRECTION('',(0.732975177552,0.680255385199,0.));
#439 = PLANE('',#440);
#440 = AXIS2_PLACEMENT_3D('',#441,#442,#443);
#441 = CARTESIAN_POINT('',(5.,2.,0.));
#442 = DIRECTION('',(-0.680255385199,0.732975177552,0.));
#443 = DIRECTION('',(0.732975177552,0.680255385199,0.));
#444 = ADVANCED_FACE('',(#445),#463,.F.);
#445 = FACE_BOUND('',#446,.F.);
#446 = EDGE_LOOP('',(#447,#448,#449,#457));
#447 = ORIENTED_EDGE('',*,*,#426,.T.);
#448 = ORIENTED_EDGE('',*,*,#56,.T.);
#449 = ORIENTED_EDGE('',*,*,#450,.F.);
#450 = EDGE_CURVE('',#451,#57,#453,.T.);
#451 = VERTEX_POINT('',#452);
#452 = CARTESIAN_POINT('',(55.6425,3.,0.));
#453 = LINE('',#454,#455);
#454 = CARTESIAN_POINT('',(55.6425,3.,0.));
#455 = VECTOR('',#456,1.);
#456 = DIRECTION('',(0.,0.,1.));
#457 = ORIENTED_EDGE('',*,*,#458,.F.);
#458 = EDGE_CURVE('',#427,#451,#459,.T.);
#459 = LINE('',#460,#461);
#460 = CARTESIAN_POINT('',(6.0775,3.,0.));
#461 = VECTOR('',#462,1.);
#462 = DIRECTION('',(1.,0.,0.));
#463 = PLANE('',#464);
#464 = AXIS2_PLACEMENT_3D('',#465,#466,#467);
#465 = CARTESIAN_POINT('',(6.0775,3.,0.));
#466 = DIRECTION('',(0.,1.,0.));
#467 = DIRECTION('',(1.,0.,0.));
#468 = ADVANCED_FACE('',(#469),#487,.F.);
#469 = FACE_BOUND('',#470,.F.);
#470 = EDGE_LOOP('',(#471,#472,#473,#481));
#471 = ORIENTED_EDGE('',*,*,#450,.T.);
#472 = ORIENTED_EDGE('',*,*,#64,.T.);
#473 = ORIENTED_EDGE('',*,*,#474,.F.);
#474 = EDGE_CURVE('',#475,#65,#477,.T.);
#475 = VERTEX_POINT('',#476);
#476 = CARTESIAN_POINT('',(56.72,2.,0.));
#477 = LINE('',#478,#479);
#478 = CARTESIAN_POINT('',(56.72,2.,0.));
#479 = VECTOR('',#480,1.);
#480 = DIRECTION('',(0.,0.,1.));
#481 = ORIENTED_EDGE('',*,*,#482,.F.);
#482 = EDGE_CURVE('',#451,#475,#483,.T.);
#483 = LINE('',#484,#485);
#484 = CARTESIAN_POINT('',(55.6425,3.,0.));
#485 = VECTOR('',#486,1.);
#486 = DIRECTION('',(0.732975177552,-0.680255385199,0.));
#487 = PLANE('',#488);
#488 = AXIS2_PLACEMENT_3D('',#489,#490,#491);
#489 = CARTESIAN_POINT('',(55.6425,3.,0.));
#490 = DIRECTION('',(0.680255385199,0.732975177552,0.));
#491 = DIRECTION('',(0.732975177552,-0.680255385199,0.));
#492 = ADVANCED_FACE('',(#493),#511,.T.);
#493 = FACE_BOUND('',#494,.T.);
#494 = EDGE_LOOP('',(#495,#503,#504,#505));
#495 = ORIENTED_EDGE('',*,*,#496,.T.);
#496 = EDGE_CURVE('',#497,#73,#499,.T.);
#497 = VERTEX_POINT('',#498);
#498 = CARTESIAN_POINT('',(58.72,0.,0.));
#499 = LINE('',#500,#501);
#500 = CARTESIAN_POINT('',(58.72,0.,0.));
#501 = VECTOR('',#502,1.);
#502 = DIRECTION('',(0.,0.,1.));
#503 = ORIENTED_EDGE('',*,*,#72,.T.);
#504 = ORIENTED_EDGE('',*,*,#474,.F.);
#505 = ORIENTED_EDGE('',*,*,#506,.F.);
#506 = EDGE_CURVE('',#497,#475,#507,.T.);
#507 = LINE('',#508,#509);
#508 = CARTESIAN_POINT('',(58.72,0.,0.));
#509 = VECTOR('',#510,1.);
#510 = DIRECTION('',(-0.707106781187,0.707106781187,0.));
#511 = PLANE('',#512);
#512 = AXIS2_PLACEMENT_3D('',#513,#514,#515);
#513 = CARTESIAN_POINT('',(58.72,0.,0.));
#514 = DIRECTION('',(-0.707106781187,-0.707106781187,0.));
#515 = DIRECTION('',(-0.707106781187,0.707106781187,0.));
#516 = ADVANCED_FACE('',(#517),#546,.T.);
#517 = FACE_BOUND('',#518,.F.);
#518 = EDGE_LOOP('',(#519,#520,#521,#522,#530,#539));
#519 = ORIENTED_EDGE('',*,*,#496,.T.);
#520 = ORIENTED_EDGE('',*,*,#80,.T.);
#521 = ORIENTED_EDGE('',*,*,#89,.T.);
#522 = ORIENTED_EDGE('',*,*,#523,.F.);
#523 = EDGE_CURVE('',#524,#90,#526,.T.);
#524 = VERTEX_POINT('',#525);
#525 = CARTESIAN_POINT('',(61.72,3.,0.));
#526 = LINE('',#527,#528);
#527 = CARTESIAN_POINT('',(61.72,3.,0.));
#528 = VECTOR('',#529,1.);
#529 = DIRECTION('',(0.,0.,1.));
#530 = ORIENTED_EDGE('',*,*,#531,.F.);
#531 = EDGE_CURVE('',#532,#524,#534,.T.);
#532 = VERTEX_POINT('',#533);
#533 = CARTESIAN_POINT('',(64.72,0.,0.));
#534 = CIRCLE('',#535,3.);
#535 = AXIS2_PLACEMENT_3D('',#536,#537,#538);
#536 = CARTESIAN_POINT('',(61.72,0.,0.));
#537 = DIRECTION('',(0.,0.,1.));
#538 = DIRECTION('',(1.,0.,0.));
#539 = ORIENTED_EDGE('',*,*,#540,.F.);
#540 = EDGE_CURVE('',#497,#532,#541,.T.);
#541 = CIRCLE('',#542,3.);
#542 = AXIS2_PLACEMENT_3D('',#543,#544,#545);
#543 = CARTESIAN_POINT('',(61.72,0.,0.));
#544 = DIRECTION('',(0.,0.,1.));
#545 = DIRECTION('',(1.,0.,0.));
#546 = CYLINDRICAL_SURFACE('',#547,3.);
#547 = AXIS2_PLACEMENT_3D('',#548,#549,#550);
#548 = CARTESIAN_POINT('',(61.72,0.,0.));
#549 = DIRECTION('',(-0.,-0.,-1.));
#550 = DIRECTION('',(1.,0.,0.));
#551 = ADVANCED_FACE('',(#552),#570,.F.);
#552 = FACE_BOUND('',#553,.F.);
#553 = EDGE_LOOP('',(#554,#555,#556,#564));
#554 = ORIENTED_EDGE('',*,*,#523,.T.);
#555 = ORIENTED_EDGE('',*,*,#98,.T.);
#556 = ORIENTED_EDGE('',*,*,#557,.F.);
#557 = EDGE_CURVE('',#558,#99,#560,.T.);
#558 = VERTEX_POINT('',#559);
#559 = CARTESIAN_POINT('',(56.72,7.,0.));
#560 = LINE('',#561,#562);
#561 = CARTESIAN_POINT('',(56.72,7.,0.));
#562 = VECTOR('',#563,1.);
#563 = DIRECTION('',(0.,0.,1.));
#564 = ORIENTED_EDGE('',*,*,#565,.F.);
#565 = EDGE_CURVE('',#524,#558,#566,.T.);
#566 = LINE('',#567,#568);
#567 = CARTESIAN_POINT('',(61.72,3.,0.));
#568 = VECTOR('',#569,1.);
#569 = DIRECTION('',(-0.780868809443,0.624695047554,0.));
#570 = PLANE('',#571);
#571 = AXIS2_PLACEMENT_3D('',#572,#573,#574);
#572 = CARTESIAN_POINT('',(61.72,3.,0.));
#573 = DIRECTION('',(-0.624695047554,-0.780868809443,0.));
#574 = DIRECTION('',(-0.780868809443,0.624695047554,0.));
#575 = ADVANCED_FACE('',(#576),#594,.F.);
#576 = FACE_BOUND('',#577,.F.);
#577 = EDGE_LOOP('',(#578,#579,#580,#588));
#578 = ORIENTED_EDGE('',*,*,#557,.T.);
#579 = ORIENTED_EDGE('',*,*,#106,.T.);
#580 = ORIENTED_EDGE('',*,*,#581,.F.);
#581 = EDGE_CURVE('',#582,#107,#584,.T.);
#582 = VERTEX_POINT('',#583);
#583 = CARTESIAN_POINT('',(56.72,14.,0.));
#584 = LINE('',#585,#586);
#585 = CARTESIAN_POINT('',(56.72,14.,0.));
#586 = VECTOR('',#587,1.);
#587 = DIRECTION('',(0.,0.,1.));
#588 = ORIENTED_EDGE('',*,*,#589,.F.);
#589 = EDGE_CURVE('',#558,#582,#590,.T.);
#590 = LINE('',#591,#592);
#591 = CARTESIAN_POINT('',(56.72,7.,0.));
#592 = VECTOR('',#593,1.);
#593 = DIRECTION('',(0.,1.,0.));
#594 = PLANE('',#595);
#595 = AXIS2_PLACEMENT_3D('',#596,#597,#598);
#596 = CARTESIAN_POINT('',(56.72,7.,0.));
#597 = DIRECTION('',(-1.,0.,0.));
#598 = DIRECTION('',(0.,1.,0.));
#599 = ADVANCED_FACE('',(#600),#618,.F.);
#600 = FACE_BOUND('',#601,.F.);
#601 = EDGE_LOOP('',(#602,#603,#604,#612));
#602 = ORIENTED_EDGE('',*,*,#581,.T.);
#603 = ORIENTED_EDGE('',*,*,#114,.T.);
#604 = ORIENTED_EDGE('',*,*,#605,.F.);
#605 = EDGE_CURVE('',#606,#115,#608,.T.);
#606 = VERTEX_POINT('',#607);
#607 = CARTESIAN_POINT('',(64.06,16.75,0.));
#608 = LINE('',#609,#610);
#609 = CARTESIAN_POINT('',(64.06,16.75,0.));
#610 = VECTOR('',#611,1.);
#611 = DIRECTION('',(0.,0.,1.));
#612 = ORIENTED_EDGE('',*,*,#613,.F.);
#613 = EDGE_CURVE('',#582,#606,#614,.T.);
#614 = LINE('',#615,#616);
#615 = CARTESIAN_POINT('',(56.72,14.,0.));
#616 = VECTOR('',#617,1.);
#617 = DIRECTION('',(0.93643399573,0.35084379949,0.));
#618 = PLANE('',#619);
#619 = AXIS2_PLACEMENT_3D('',#620,#621,#622);
#620 = CARTESIAN_POINT('',(56.72,14.,0.));
#621 = DIRECTION('',(-0.35084379949,0.93643399573,0.));
#622 = DIRECTION('',(0.93643399573,0.35084379949,0.));
#623 = ADVANCED_FACE('',(#624),#674,.T.);
#624 = FACE_BOUND('',#625,.T.);
#625 = EDGE_LOOP('',(#626,#627,#635,#643,#651,#659,#667,#673));
#626 = ORIENTED_EDGE('',*,*,#605,.F.);
#627 = ORIENTED_EDGE('',*,*,#628,.T.);
#628 = EDGE_CURVE('',#606,#629,#631,.T.);
#629 = VERTEX_POINT('',#630);
#630 = CARTESIAN_POINT('',(64.06,18.75,0.));
#631 = LINE('',#632,#633);
#632 = CARTESIAN_POINT('',(64.06,16.75,0.));
#633 = VECTOR('',#634,1.);
#634 = DIRECTION('',(0.,1.,0.));
#635 = ORIENTED_EDGE('',*,*,#636,.T.);
#636 = EDGE_CURVE('',#629,#637,#639,.T.);
#637 = VERTEX_POINT('',#638);
#638 = CARTESIAN_POINT('',(64.06,18.75,-1.925));
#639 = LINE('',#640,#641);
#640 = CARTESIAN_POINT('',(64.06,18.75,0.));
#641 = VECTOR('',#642,1.);
#642 = DIRECTION('',(-0.,-0.,-1.));
#643 = ORIENTED_EDGE('',*,*,#644,.T.);
#644 = EDGE_CURVE('',#637,#645,#647,.T.);
#645 = VERTEX_POINT('',#646);
#646 = CARTESIAN_POINT('',(64.06,17.75,-1.925));
#647 = LINE('',#648,#649);
#648 = CARTESIAN_POINT('',(64.06,18.75,-1.925));
#649 = VECTOR('',#650,1.);
#650 = DIRECTION('',(0.,-1.,2.22044604925E-16));
#651 = ORIENTED_EDGE('',*,*,#652,.F.);
#652 = EDGE_CURVE('',#653,#645,#655,.T.);
#653 = VERTEX_POINT('',#654);
#654 = CARTESIAN_POINT('',(64.06,17.75,-3.175));
#655 = LINE('',#656,#657);
#656 = CARTESIAN_POINT('',(64.06,17.75,-3.175));
#657 = VECTOR('',#658,1.);
#658 = DIRECTION('',(0.,2.22044604925E-16,1.));
#659 = ORIENTED_EDGE('',*,*,#660,.F.);
#660 = EDGE_CURVE('',#661,#653,#663,.T.);
#661 = VERTEX_POINT('',#662);
#662 = CARTESIAN_POINT('',(64.06,23.700000506532,-3.175));
#663 = LINE('',#664,#665);
#664 = CARTESIAN_POINT('',(64.06,18.75,-3.175));
#665 = VECTOR('',#666,1.);
#666 = DIRECTION('',(0.,-1.,2.22044604925E-16));
#667 = ORIENTED_EDGE('',*,*,#668,.F.);
#668 = EDGE_CURVE('',#123,#661,#669,.T.);
#669 = LINE('',#670,#671);
#670 = CARTESIAN_POINT('',(64.06,23.700000506532,0.));
#671 = VECTOR('',#672,1.);
#672 = DIRECTION('',(-0.,-0.,-1.));
#673 = ORIENTED_EDGE('',*,*,#122,.F.);
#674 = PLANE('',#675);
#675 = AXIS2_PLACEMENT_3D('',#676,#677,#678);
#676 = CARTESIAN_POINT('',(64.06,20.269401776374,-0.57461390354));
#677 = DIRECTION('',(1.,3.024927011715E-15,-1.269463541521E-15));
#678 = DIRECTION('',(-3.024927011715E-15,1.,0.));
#679 = ADVANCED_FACE('',(#680),#705,.F.);
#680 = FACE_BOUND('',#681,.F.);
#681 = EDGE_LOOP('',(#682,#690,#691,#699));
#682 = ORIENTED_EDGE('',*,*,#683,.F.);
#683 = EDGE_CURVE('',#123,#684,#686,.T.);
#684 = VERTEX_POINT('',#685);
#685 = CARTESIAN_POINT('',(62.51,25.250000253266,0.275));
#686 = LINE('',#687,#688);
#687 = CARTESIAN_POINT('',(63.384999926471,24.375000359474,
    1.150000147058));
#688 = VECTOR('',#689,1.);
#689 = DIRECTION('',(-0.577350394973,0.577350206298,-0.577350206298));
#690 = ORIENTED_EDGE('',*,*,#130,.T.);
#691 = ORIENTED_EDGE('',*,*,#692,.F.);
#692 = EDGE_CURVE('',#693,#131,#695,.T.);
#693 = VERTEX_POINT('',#694);
#694 = CARTESIAN_POINT('',(62.215,24.954999892022,0.57000061451));
#695 = LINE('',#696,#697);
#696 = CARTESIAN_POINT('',(62.215,24.175625366402,1.34937514013));
#697 = VECTOR('',#698,1.);
#698 = DIRECTION('',(7.66E-15,-0.707106781187,0.707106781187));
#699 = ORIENTED_EDGE('',*,*,#700,.F.);
#700 = EDGE_CURVE('',#684,#693,#701,.T.);
#701 = LINE('',#702,#703);
#702 = CARTESIAN_POINT('',(62.360833510242,25.100833455644,
    0.424167050888));
#703 = VECTOR('',#704,1.);
#704 = DIRECTION('',(-0.577350128306,-0.577350339631,0.577350339631));
#705 = PLANE('',#706);
#706 = AXIS2_PLACEMENT_3D('',#707,#708,#709);
#707 = CARTESIAN_POINT('',(64.06,23.700000506532,1.825));
#708 = DIRECTION('',(-2.1E-16,-0.707106781187,-0.707106781187));
#709 = DIRECTION('',(-3.2E-15,0.707106781187,-0.707106781187));
#710 = ADVANCED_FACE('',(#711),#745,.T.);
#711 = FACE_BOUND('',#712,.T.);
#712 = EDGE_LOOP('',(#713,#714,#722,#730,#738,#744));
#713 = ORIENTED_EDGE('',*,*,#692,.F.);
#714 = ORIENTED_EDGE('',*,*,#715,.T.);
#715 = EDGE_CURVE('',#693,#716,#718,.T.);
#716 = VERTEX_POINT('',#717);
#717 = CARTESIAN_POINT('',(62.215,24.954999892022,-1.92000061451));
#718 = LINE('',#719,#720);
#719 = CARTESIAN_POINT('',(62.215,24.954999892022,0.));
#720 = VECTOR('',#721,1.);
#721 = DIRECTION('',(-0.,-0.,-1.));
#722 = ORIENTED_EDGE('',*,*,#723,.F.);
#723 = EDGE_CURVE('',#724,#716,#726,.T.);
#724 = VERTEX_POINT('',#725);
#725 = CARTESIAN_POINT('',(62.215,23.700000506532,-3.175));
#726 = LINE('',#727,#728);
#727 = CARTESIAN_POINT('',(62.215,24.950625366402,-1.92437514013));
#728 = VECTOR('',#729,1.);
#729 = DIRECTION('',(1.82E-15,0.707106781187,0.707106781187));
#730 = ORIENTED_EDGE('',*,*,#731,.F.);
#731 = EDGE_CURVE('',#732,#724,#734,.T.);
#732 = VERTEX_POINT('',#733);
#733 = CARTESIAN_POINT('',(62.215,21.25,-3.175));
#734 = LINE('',#735,#736);
#735 = CARTESIAN_POINT('',(62.215,21.25,-3.175));
#736 = VECTOR('',#737,1.);
#737 = DIRECTION('',(-5.75E-15,1.,0.));
#738 = ORIENTED_EDGE('',*,*,#739,.F.);
#739 = EDGE_CURVE('',#139,#732,#740,.T.);
#740 = LINE('',#741,#742);
#741 = CARTESIAN_POINT('',(62.215,21.25,0.));
#742 = VECTOR('',#743,1.);
#743 = DIRECTION('',(-0.,-0.,-1.));
#744 = ORIENTED_EDGE('',*,*,#138,.F.);
#745 = PLANE('',#746);
#746 = AXIS2_PLACEMENT_3D('',#747,#748,#749);
#747 = CARTESIAN_POINT('',(62.215,23.102499946011,-0.675));
#748 = DIRECTION('',(-1.,-4.13E-15,6.7E-15));
#749 = DIRECTION('',(-6.7E-15,0.,-1.));
#750 = ADVANCED_FACE('',(#751),#778,.F.);
#751 = FACE_BOUND('',#752,.T.);
#752 = EDGE_LOOP('',(#753,#762,#770,#776,#777));
#753 = ORIENTED_EDGE('',*,*,#754,.F.);
#754 = EDGE_CURVE('',#755,#732,#757,.T.);
#755 = VERTEX_POINT('',#756);
#756 = CARTESIAN_POINT('',(61.215000326795,20.25,-3.175));
#757 = CIRCLE('',#758,1.);
#758 = AXIS2_PLACEMENT_3D('',#759,#760,#761);
#759 = CARTESIAN_POINT('',(61.215,21.25,-3.175));
#760 = DIRECTION('',(0.,0.,1.));
#761 = DIRECTION('',(1.,0.,0.));
#762 = ORIENTED_EDGE('',*,*,#763,.F.);
#763 = EDGE_CURVE('',#764,#755,#766,.T.);
#764 = VERTEX_POINT('',#765);
#765 = CARTESIAN_POINT('',(61.215000172728,20.25,0.));
#766 = LINE('',#767,#768);
#767 = CARTESIAN_POINT('',(61.215000326795,20.25,0.));
#768 = VECTOR('',#769,1.);
#769 = DIRECTION('',(-0.,-0.,-1.));
#770 = ORIENTED_EDGE('',*,*,#771,.T.);
#771 = EDGE_CURVE('',#764,#147,#772,.T.);
#772 = LINE('',#773,#774);
#773 = CARTESIAN_POINT('',(61.215000018661,20.25,0.));
#774 = VECTOR('',#775,1.);
#775 = DIRECTION('',(0.,0.,1.));
#776 = ORIENTED_EDGE('',*,*,#146,.T.);
#777 = ORIENTED_EDGE('',*,*,#739,.T.);
#778 = CYLINDRICAL_SURFACE('',#779,1.);
#779 = AXIS2_PLACEMENT_3D('',#780,#781,#782);
#780 = CARTESIAN_POINT('',(61.215,21.25,0.));
#781 = DIRECTION('',(-0.,-0.,-1.));
#782 = DIRECTION('',(1.,0.,0.));
#783 = ADVANCED_FACE('',(#784),#802,.T.);
#784 = FACE_BOUND('',#785,.T.);
#785 = EDGE_LOOP('',(#786,#787,#795,#801));
#786 = ORIENTED_EDGE('',*,*,#771,.F.);
#787 = ORIENTED_EDGE('',*,*,#788,.T.);
#788 = EDGE_CURVE('',#764,#789,#791,.T.);
#789 = VERTEX_POINT('',#790);
#790 = CARTESIAN_POINT('',(59.499007834449,20.25,0.));
#791 = LINE('',#792,#793);
#792 = CARTESIAN_POINT('',(58.01,20.25,0.));
#793 = VECTOR('',#794,1.);
#794 = DIRECTION('',(-1.,0.,0.));
#795 = ORIENTED_EDGE('',*,*,#796,.T.);
#796 = EDGE_CURVE('',#789,#156,#797,.T.);
#797 = LINE('',#798,#799);
#798 = CARTESIAN_POINT('',(60.349747491642,20.25,-3.175));
#799 = VECTOR('',#800,1.);
#800 = DIRECTION('',(-0.258819320783,-1.77843016795E-15,0.965925752421)
  );
#801 = ORIENTED_EDGE('',*,*,#155,.F.);
#802 = PLANE('',#803);
#803 = AXIS2_PLACEMENT_3D('',#804,#805,#806);
#804 = CARTESIAN_POINT('',(59.36250000933,20.25,0.9125));
#805 = DIRECTION('',(-7.7E-15,1.,0.));
#806 = DIRECTION('',(1.,7.7E-15,0.));
#807 = ADVANCED_FACE('',(#808),#842,.T.);
#808 = FACE_BOUND('',#809,.T.);
#809 = EDGE_LOOP('',(#810,#820,#828,#834,#835,#836));
#810 = ORIENTED_EDGE('',*,*,#811,.T.);
#811 = EDGE_CURVE('',#812,#814,#816,.T.);
#812 = VERTEX_POINT('',#813);
#813 = CARTESIAN_POINT('',(59.499007834449,20.250463155828,0.));
#814 = VERTEX_POINT('',#815);
#815 = CARTESIAN_POINT('',(60.349747491642,20.250233536507,-3.175));
#816 = LINE('',#817,#818);
#817 = CARTESIAN_POINT('',(59.98185264182,20.250332833354,
    -1.801999296071));
#818 = VECTOR('',#819,1.);
#819 = DIRECTION('',(0.258819320152,-6.985676040722E-05,-0.965925750064)
  );
#820 = ORIENTED_EDGE('',*,*,#821,.T.);
#821 = EDGE_CURVE('',#814,#822,#824,.T.);
#822 = VERTEX_POINT('',#823);
#823 = CARTESIAN_POINT('',(60.349747491642,25.25,-3.175));
#824 = LINE('',#825,#826);
#825 = CARTESIAN_POINT('',(60.349747491642,20.25,-3.175));
#826 = VECTOR('',#827,1.);
#827 = DIRECTION('',(-7.7E-15,1.,-2.22044604925E-16));
#828 = ORIENTED_EDGE('',*,*,#829,.T.);
#829 = EDGE_CURVE('',#822,#164,#830,.T.);
#830 = LINE('',#831,#832);
#831 = CARTESIAN_POINT('',(60.349747491642,25.25,-3.175));
#832 = VECTOR('',#833,1.);
#833 = DIRECTION('',(-0.258819320783,-1.77843016795E-15,0.965925752421)
  );
#834 = ORIENTED_EDGE('',*,*,#163,.F.);
#835 = ORIENTED_EDGE('',*,*,#796,.F.);
#836 = ORIENTED_EDGE('',*,*,#837,.T.);
#837 = EDGE_CURVE('',#789,#812,#838,.T.);
#838 = LINE('',#839,#840);
#839 = CARTESIAN_POINT('',(59.499007834449,20.582344785408,
    4.440892098501E-16));
#840 = VECTOR('',#841,1.);
#841 = DIRECTION('',(-7.759496740496E-15,1.,0.));
#842 = PLANE('',#843);
#843 = AXIS2_PLACEMENT_3D('',#844,#845,#846);
#844 = CARTESIAN_POINT('',(60.349747491642,20.25,-3.175));
#845 = DIRECTION('',(0.965925752421,7.495097727468E-15,0.258819320783));
#846 = DIRECTION('',(-0.258819320783,-1.77843016795E-15,0.965925752421)
  );
#847 = ADVANCED_FACE('',(#848),#866,.T.);
#848 = FACE_BOUND('',#849,.F.);
#849 = EDGE_LOOP('',(#850,#851,#859,#865));
#850 = ORIENTED_EDGE('',*,*,#171,.T.);
#851 = ORIENTED_EDGE('',*,*,#852,.T.);
#852 = EDGE_CURVE('',#172,#853,#855,.T.);
#853 = VERTEX_POINT('',#854);
#854 = CARTESIAN_POINT('',(58.849747491642,25.25,-3.175));
#855 = LINE('',#856,#857);
#856 = CARTESIAN_POINT('',(57.51,25.25,1.825));
#857 = VECTOR('',#858,1.);
#858 = DIRECTION('',(0.258819320783,1.77843016795E-15,-0.965925752421));
#859 = ORIENTED_EDGE('',*,*,#860,.T.);
#860 = EDGE_CURVE('',#853,#822,#861,.T.);
#861 = LINE('',#862,#863);
#862 = CARTESIAN_POINT('',(58.849747491642,25.25,-3.175));
#863 = VECTOR('',#864,1.);
#864 = DIRECTION('',(1.,7.7E-15,-7.88860905221E-31));
#865 = ORIENTED_EDGE('',*,*,#829,.T.);
#866 = PLANE('',#867);
#867 = AXIS2_PLACEMENT_3D('',#868,#869,#870);
#868 = CARTESIAN_POINT('',(58.929873745821,25.25,-0.675));
#869 = DIRECTION('',(-7.105427357601E-15,1.,2.277325114027E-16));
#870 = DIRECTION('',(1.,7.105427357601E-15,0.));
#871 = ADVANCED_FACE('',(#872),#898,.T.);
#872 = FACE_BOUND('',#873,.T.);
#873 = EDGE_LOOP('',(#874,#882,#890,#896,#897));
#874 = ORIENTED_EDGE('',*,*,#875,.T.);
#875 = EDGE_CURVE('',#853,#876,#878,.T.);
#876 = VERTEX_POINT('',#877);
#877 = CARTESIAN_POINT('',(58.849747491642,18.75,-3.175));
#878 = LINE('',#879,#880);
#879 = CARTESIAN_POINT('',(58.849747491642,20.25,-3.175));
#880 = VECTOR('',#881,1.);
#881 = DIRECTION('',(7.7E-15,-1.,2.22044604925E-16));
#882 = ORIENTED_EDGE('',*,*,#883,.F.);
#883 = EDGE_CURVE('',#884,#876,#886,.T.);
#884 = VERTEX_POINT('',#885);
#885 = CARTESIAN_POINT('',(57.999007834449,18.75,0.));
#886 = LINE('',#887,#888);
#887 = CARTESIAN_POINT('',(57.51,18.75,1.825));
#888 = VECTOR('',#889,1.);
#889 = DIRECTION('',(0.258819320783,1.77843016795E-15,-0.965925752421));
#890 = ORIENTED_EDGE('',*,*,#891,.F.);
#891 = EDGE_CURVE('',#180,#884,#892,.T.);
#892 = LINE('',#893,#894);
#893 = CARTESIAN_POINT('',(57.51,18.75,1.825));
#894 = VECTOR('',#895,1.);
#895 = DIRECTION('',(0.258819320783,1.77843016795E-15,-0.965925752421));
#896 = ORIENTED_EDGE('',*,*,#179,.T.);
#897 = ORIENTED_EDGE('',*,*,#852,.T.);
#898 = PLANE('',#899);
#899 = AXIS2_PLACEMENT_3D('',#900,#901,#902);
#900 = CARTESIAN_POINT('',(58.179873745821,22.,-0.675));
#901 = DIRECTION('',(-0.965925752421,-6.190200547586E-15,-0.258819320783
    ));
#902 = DIRECTION('',(0.258819320783,-1.972152263053E-31,-0.965925752421)
  );
#903 = ADVANCED_FACE('',(#904),#929,.T.);
#904 = FACE_BOUND('',#905,.T.);
#905 = EDGE_LOOP('',(#906,#907,#915,#923));
#906 = ORIENTED_EDGE('',*,*,#187,.F.);
#907 = ORIENTED_EDGE('',*,*,#908,.F.);
#908 = EDGE_CURVE('',#909,#180,#911,.T.);
#909 = VERTEX_POINT('',#910);
#910 = CARTESIAN_POINT('',(57.51,18.75,0.));
#911 = LINE('',#912,#913);
#912 = CARTESIAN_POINT('',(57.51,18.75,-3.175));
#913 = VECTOR('',#914,1.);
#914 = DIRECTION('',(-9.208825527017E-31,2.22044604925E-16,1.));
#915 = ORIENTED_EDGE('',*,*,#916,.T.);
#916 = EDGE_CURVE('',#909,#917,#919,.T.);
#917 = VERTEX_POINT('',#918);
#918 = CARTESIAN_POINT('',(57.51,18.362403100775,0.));
#919 = LINE('',#920,#921);
#920 = CARTESIAN_POINT('',(57.51,20.25,0.));
#921 = VECTOR('',#922,1.);
#922 = DIRECTION('',(0.,-1.,0.));
#923 = ORIENTED_EDGE('',*,*,#924,.T.);
#924 = EDGE_CURVE('',#917,#188,#925,.T.);
#925 = LINE('',#926,#927);
#926 = CARTESIAN_POINT('',(57.51,18.362403100775,0.));
#927 = VECTOR('',#928,1.);
#928 = DIRECTION('',(0.,0.,1.));
#929 = PLANE('',#930);
#930 = AXIS2_PLACEMENT_3D('',#931,#932,#933);
#931 = CARTESIAN_POINT('',(57.51,19.395892075905,-0.585809474483));
#932 = DIRECTION('',(-1.,4.63E-15,-1.15E-15));
#933 = DIRECTION('',(-4.63E-15,-1.,0.));
#934 = ADVANCED_FACE('',(#935),#953,.F.);
#935 = FACE_BOUND('',#936,.F.);
#936 = EDGE_LOOP('',(#937,#938,#939,#947));
#937 = ORIENTED_EDGE('',*,*,#924,.T.);
#938 = ORIENTED_EDGE('',*,*,#195,.T.);
#939 = ORIENTED_EDGE('',*,*,#940,.F.);
#940 = EDGE_CURVE('',#941,#196,#943,.T.);
#941 = VERTEX_POINT('',#942);
#942 = CARTESIAN_POINT('',(56.72,17.75,0.));
#943 = LINE('',#944,#945);
#944 = CARTESIAN_POINT('',(56.72,17.75,0.));
#945 = VECTOR('',#946,1.);
#946 = DIRECTION('',(0.,0.,1.));
#947 = ORIENTED_EDGE('',*,*,#948,.F.);
#948 = EDGE_CURVE('',#917,#941,#949,.T.);
#949 = LINE('',#950,#951);
#950 = CARTESIAN_POINT('',(57.51,18.362403100775,0.));
#951 = VECTOR('',#952,1.);
#952 = DIRECTION('',(-0.790340885165,-0.612667352841,0.));
#953 = PLANE('',#954);
#954 = AXIS2_PLACEMENT_3D('',#955,#956,#957);
#955 = CARTESIAN_POINT('',(57.51,18.362403100775,0.));
#956 = DIRECTION('',(0.612667352841,-0.790340885165,0.));
#957 = DIRECTION('',(-0.790340885165,-0.612667352841,0.));
#958 = ADVANCED_FACE('',(#959),#977,.T.);
#959 = FACE_BOUND('',#960,.T.);
#960 = EDGE_LOOP('',(#961,#969,#970,#971));
#961 = ORIENTED_EDGE('',*,*,#962,.T.);
#962 = EDGE_CURVE('',#963,#204,#965,.T.);
#963 = VERTEX_POINT('',#964);
#964 = CARTESIAN_POINT('',(5.,17.75,0.));
#965 = LINE('',#966,#967);
#966 = CARTESIAN_POINT('',(5.,17.75,0.));
#967 = VECTOR('',#968,1.);
#968 = DIRECTION('',(0.,0.,1.));
#969 = ORIENTED_EDGE('',*,*,#203,.T.);
#970 = ORIENTED_EDGE('',*,*,#940,.F.);
#971 = ORIENTED_EDGE('',*,*,#972,.F.);
#972 = EDGE_CURVE('',#963,#941,#973,.T.);
#973 = LINE('',#974,#975);
#974 = CARTESIAN_POINT('',(5.,17.75,0.));
#975 = VECTOR('',#976,1.);
#976 = DIRECTION('',(1.,0.,0.));
#977 = PLANE('',#978);
#978 = AXIS2_PLACEMENT_3D('',#979,#980,#981);
#979 = CARTESIAN_POINT('',(5.,17.75,0.));
#980 = DIRECTION('',(0.,1.,0.));
#981 = DIRECTION('',(1.,0.,0.));
#982 = ADVANCED_FACE('',(#983),#1001,.T.);
#983 = FACE_BOUND('',#984,.T.);
#984 = EDGE_LOOP('',(#985,#993,#994,#995));
#985 = ORIENTED_EDGE('',*,*,#986,.T.);
#986 = EDGE_CURVE('',#987,#212,#989,.T.);
#987 = VERTEX_POINT('',#988);
#988 = CARTESIAN_POINT('',(4.2,18.365384615385,0.));
#989 = LINE('',#990,#991);
#990 = CARTESIAN_POINT('',(4.2,18.365384615385,0.));
#991 = VECTOR('',#992,1.);
#992 = DIRECTION('',(0.,0.,1.));
#993 = ORIENTED_EDGE('',*,*,#211,.T.);
#994 = ORIENTED_EDGE('',*,*,#962,.F.);
#995 = ORIENTED_EDGE('',*,*,#996,.F.);
#996 = EDGE_CURVE('',#987,#963,#997,.T.);
#997 = LINE('',#998,#999);
#998 = CARTESIAN_POINT('',(4.2,18.365384615385,0.));
#999 = VECTOR('',#1000,1.);
#1000 = DIRECTION('',(0.792623989105,-0.60971076085,0.));
#1001 = PLANE('',#1002);
#1002 = AXIS2_PLACEMENT_3D('',#1003,#1004,#1005);
#1003 = CARTESIAN_POINT('',(4.2,18.365384615385,0.));
#1004 = DIRECTION('',(0.60971076085,0.792623989105,0.));
#1005 = DIRECTION('',(0.792623989105,-0.60971076085,0.));
#1006 = ADVANCED_FACE('',(#1007),#1040,.T.);
#1007 = FACE_BOUND('',#1008,.T.);
#1008 = EDGE_LOOP('',(#1009,#1017,#1018,#1026,#1034));
#1009 = ORIENTED_EDGE('',*,*,#1010,.T.);
#1010 = EDGE_CURVE('',#1011,#228,#1013,.T.);
#1011 = VERTEX_POINT('',#1012);
#1012 = CARTESIAN_POINT('',(2.860254364765,25.25,-3.175));
#1013 = LINE('',#1014,#1015);
#1014 = CARTESIAN_POINT('',(2.860254364765,25.25,-3.175));
#1015 = VECTOR('',#1016,1.);
#1016 = DIRECTION('',(0.258818986177,2.144786219911E-16,0.965925842078)
  );
#1017 = ORIENTED_EDGE('',*,*,#227,.T.);
#1018 = ORIENTED_EDGE('',*,*,#1019,.T.);
#1019 = EDGE_CURVE('',#220,#1020,#1022,.T.);
#1020 = VERTEX_POINT('',#1021);
#1021 = CARTESIAN_POINT('',(3.710992843139,18.75,0.));
#1022 = LINE('',#1023,#1024);
#1023 = CARTESIAN_POINT('',(4.2,18.75,1.825));
#1024 = VECTOR('',#1025,1.);
#1025 = DIRECTION('',(-0.258818986177,-2.144786219911E-16,
    -0.965925842078));
#1026 = ORIENTED_EDGE('',*,*,#1027,.T.);
#1027 = EDGE_CURVE('',#1020,#1028,#1030,.T.);
#1028 = VERTEX_POINT('',#1029);
#1029 = CARTESIAN_POINT('',(2.860254364765,18.75,-3.175));
#1030 = LINE('',#1031,#1032);
#1031 = CARTESIAN_POINT('',(4.2,18.75,1.825));
#1032 = VECTOR('',#1033,1.);
#1033 = DIRECTION('',(-0.258818986177,-2.144786219911E-16,
    -0.965925842078));
#1034 = ORIENTED_EDGE('',*,*,#1035,.T.);
#1035 = EDGE_CURVE('',#1028,#1011,#1036,.T.);
#1036 = LINE('',#1037,#1038);
#1037 = CARTESIAN_POINT('',(2.860254364765,20.25,-3.175));
#1038 = VECTOR('',#1039,1.);
#1039 = DIRECTION('',(0.,1.,-2.22044604925E-16));
#1040 = PLANE('',#1041);
#1041 = AXIS2_PLACEMENT_3D('',#1042,#1043,#1044);
#1042 = CARTESIAN_POINT('',(3.530127182383,22.,-0.675));
#1043 = DIRECTION('',(0.965925842078,4.140805740639E-16,-0.258818986177)
  );
#1044 = DIRECTION('',(0.258818986177,0.,0.965925842078));
#1045 = ADVANCED_FACE('',(#1046),#1064,.T.);
#1046 = FACE_BOUND('',#1047,.T.);
#1047 = EDGE_LOOP('',(#1048,#1056,#1062,#1063));
#1048 = ORIENTED_EDGE('',*,*,#1049,.F.);
#1049 = EDGE_CURVE('',#1050,#987,#1052,.T.);
#1050 = VERTEX_POINT('',#1051);
#1051 = CARTESIAN_POINT('',(4.199999673205,18.75,0.));
#1052 = LINE('',#1053,#1054);
#1053 = CARTESIAN_POINT('',(4.2,20.25,0.));
#1054 = VECTOR('',#1055,1.);
#1055 = DIRECTION('',(0.,-1.,0.));
#1056 = ORIENTED_EDGE('',*,*,#1057,.F.);
#1057 = EDGE_CURVE('',#220,#1050,#1058,.T.);
#1058 = LINE('',#1059,#1060);
#1059 = CARTESIAN_POINT('',(4.2,18.75,1.825));
#1060 = VECTOR('',#1061,1.);
#1061 = DIRECTION('',(0.,-2.22044604925E-16,-1.));
#1062 = ORIENTED_EDGE('',*,*,#219,.T.);
#1063 = ORIENTED_EDGE('',*,*,#986,.F.);
#1064 = PLANE('',#1065);
#1065 = AXIS2_PLACEMENT_3D('',#1066,#1067,#1068);
#1066 = CARTESIAN_POINT('',(4.2,20.25,0.));
#1067 = DIRECTION('',(1.,0.,0.));
#1068 = DIRECTION('',(0.,-1.,0.));
#1069 = ADVANCED_FACE('',(#1070),#1088,.T.);
#1070 = FACE_BOUND('',#1071,.F.);
#1071 = EDGE_LOOP('',(#1072,#1073,#1081,#1087));
#1072 = ORIENTED_EDGE('',*,*,#235,.T.);
#1073 = ORIENTED_EDGE('',*,*,#1074,.T.);
#1074 = EDGE_CURVE('',#236,#1075,#1077,.T.);
#1075 = VERTEX_POINT('',#1076);
#1076 = CARTESIAN_POINT('',(1.360254364765,25.25,-3.175));
#1077 = LINE('',#1078,#1079);
#1078 = CARTESIAN_POINT('',(2.7,25.25,1.825));
#1079 = VECTOR('',#1080,1.);
#1080 = DIRECTION('',(-0.258818986177,-2.144786219911E-16,
    -0.965925842078));
#1081 = ORIENTED_EDGE('',*,*,#1082,.T.);
#1082 = EDGE_CURVE('',#1075,#1011,#1083,.T.);
#1083 = LINE('',#1084,#1085);
#1084 = CARTESIAN_POINT('',(1.360254364765,25.25,-3.175));
#1085 = VECTOR('',#1086,1.);
#1086 = DIRECTION('',(1.,0.,0.));
#1087 = ORIENTED_EDGE('',*,*,#1010,.T.);
#1088 = PLANE('',#1089);
#1089 = AXIS2_PLACEMENT_3D('',#1090,#1091,#1092);
#1090 = CARTESIAN_POINT('',(2.780127182383,25.25,-0.675));
#1091 = DIRECTION('',(0.,1.,0.));
#1092 = DIRECTION('',(0.,0.,1.));
#1093 = ADVANCED_FACE('',(#1094),#1128,.T.);
#1094 = FACE_BOUND('',#1095,.T.);
#1095 = EDGE_LOOP('',(#1096,#1104,#1105,#1106,#1114,#1122));
#1096 = ORIENTED_EDGE('',*,*,#1097,.F.);
#1097 = EDGE_CURVE('',#244,#1098,#1100,.T.);
#1098 = VERTEX_POINT('',#1099);
#1099 = CARTESIAN_POINT('',(2.210992843139,20.25,0.));
#1100 = LINE('',#1101,#1102);
#1101 = CARTESIAN_POINT('',(2.7,20.25,1.825));
#1102 = VECTOR('',#1103,1.);
#1103 = DIRECTION('',(-0.258818986177,-2.144786219911E-16,
    -0.965925842078));
#1104 = ORIENTED_EDGE('',*,*,#243,.T.);
#1105 = ORIENTED_EDGE('',*,*,#1074,.T.);
#1106 = ORIENTED_EDGE('',*,*,#1107,.F.);
#1107 = EDGE_CURVE('',#1108,#1075,#1110,.T.);
#1108 = VERTEX_POINT('',#1109);
#1109 = CARTESIAN_POINT('',(1.360254364765,20.250231462704,-3.175));
#1110 = LINE('',#1111,#1112);
#1111 = CARTESIAN_POINT('',(1.360254364765,20.25,-3.175));
#1112 = VECTOR('',#1113,1.);
#1113 = DIRECTION('',(0.,1.,-2.22044604925E-16));
#1114 = ORIENTED_EDGE('',*,*,#1115,.T.);
#1115 = EDGE_CURVE('',#1108,#1116,#1118,.T.);
#1116 = VERTEX_POINT('',#1117);
#1117 = CARTESIAN_POINT('',(2.210992843139,20.250461703158,0.));
#1118 = LINE('',#1119,#1120);
#1119 = CARTESIAN_POINT('',(2.522115487135,20.250545904145,
    1.161125798112));
#1120 = VECTOR('',#1121,1.);
#1121 = DIRECTION('',(0.258818985542,7.004573357007E-05,0.965925839709)
  );
#1122 = ORIENTED_EDGE('',*,*,#1123,.T.);
#1123 = EDGE_CURVE('',#1116,#1098,#1124,.T.);
#1124 = LINE('',#1125,#1126);
#1125 = CARTESIAN_POINT('',(2.210992843139,20.582344785408,
    -2.22044604925E-16));
#1126 = VECTOR('',#1127,1.);
#1127 = DIRECTION('',(-5.949665805515E-17,-1.,0.));
#1128 = PLANE('',#1129);
#1129 = AXIS2_PLACEMENT_3D('',#1130,#1131,#1132);
#1130 = CARTESIAN_POINT('',(2.7,20.25,1.825));
#1131 = DIRECTION('',(-0.965925842078,5.746935953276E-17,0.258818986177)
  );
#1132 = DIRECTION('',(-0.258818986177,-2.144786219911E-16,
    -0.965925842078));
#1133 = ADVANCED_FACE('',(#1134),#1152,.T.);
#1134 = FACE_BOUND('',#1135,.T.);
#1135 = EDGE_LOOP('',(#1136,#1137,#1138,#1146));
#1136 = ORIENTED_EDGE('',*,*,#251,.T.);
#1137 = ORIENTED_EDGE('',*,*,#1097,.T.);
#1138 = ORIENTED_EDGE('',*,*,#1139,.T.);
#1139 = EDGE_CURVE('',#1098,#1140,#1142,.T.);
#1140 = VERTEX_POINT('',#1141);
#1141 = CARTESIAN_POINT('',(0.504999865638,20.25,0.));
#1142 = LINE('',#1143,#1144);
#1143 = CARTESIAN_POINT('',(1.200000049212,20.25,0.));
#1144 = VECTOR('',#1145,1.);
#1145 = DIRECTION('',(-1.,0.,0.));
#1146 = ORIENTED_EDGE('',*,*,#1147,.T.);
#1147 = EDGE_CURVE('',#1140,#252,#1148,.T.);
#1148 = LINE('',#1149,#1150);
#1149 = CARTESIAN_POINT('',(0.505000058071,20.25,0.));
#1150 = VECTOR('',#1151,1.);
#1151 = DIRECTION('',(0.,0.,1.));
#1152 = PLANE('',#1153);
#1153 = AXIS2_PLACEMENT_3D('',#1154,#1155,#1156);
#1154 = CARTESIAN_POINT('',(2.352500029036,20.25,0.9125));
#1155 = DIRECTION('',(0.,1.,0.));
#1156 = DIRECTION('',(0.,0.,1.));
#1157 = ADVANCED_FACE('',(#1158),#1185,.F.);
#1158 = FACE_BOUND('',#1159,.T.);
#1159 = EDGE_LOOP('',(#1160,#1171,#1177,#1178,#1179));
#1160 = ORIENTED_EDGE('',*,*,#1161,.F.);
#1161 = EDGE_CURVE('',#1162,#1164,#1166,.T.);
#1162 = VERTEX_POINT('',#1163);
#1163 = CARTESIAN_POINT('',(-0.495,21.25,-3.175));
#1164 = VERTEX_POINT('',#1165);
#1165 = CARTESIAN_POINT('',(0.504999673205,20.25,-3.175));
#1166 = CIRCLE('',#1167,1.);
#1167 = AXIS2_PLACEMENT_3D('',#1168,#1169,#1170);
#1168 = CARTESIAN_POINT('',(0.505,21.25,-3.175));
#1169 = DIRECTION('',(0.,0.,1.));
#1170 = DIRECTION('',(1.,0.,0.));
#1171 = ORIENTED_EDGE('',*,*,#1172,.T.);
#1172 = EDGE_CURVE('',#1162,#260,#1173,.T.);
#1173 = LINE('',#1174,#1175);
#1174 = CARTESIAN_POINT('',(-0.495,21.25,0.));
#1175 = VECTOR('',#1176,1.);
#1176 = DIRECTION('',(0.,0.,1.));
#1177 = ORIENTED_EDGE('',*,*,#259,.T.);
#1178 = ORIENTED_EDGE('',*,*,#1147,.F.);
#1179 = ORIENTED_EDGE('',*,*,#1180,.T.);
#1180 = EDGE_CURVE('',#1140,#1164,#1181,.T.);
#1181 = LINE('',#1182,#1183);
#1182 = CARTESIAN_POINT('',(0.504999673205,20.25,0.));
#1183 = VECTOR('',#1184,1.);
#1184 = DIRECTION('',(-0.,-0.,-1.));
#1185 = CYLINDRICAL_SURFACE('',#1186,1.);
#1186 = AXIS2_PLACEMENT_3D('',#1187,#1188,#1189);
#1187 = CARTESIAN_POINT('',(0.505,21.25,0.));
#1188 = DIRECTION('',(-0.,-0.,-1.));
#1189 = DIRECTION('',(1.,0.,0.));
#1190 = ADVANCED_FACE('',(#1191),#1209,.T.);
#1191 = FACE_BOUND('',#1192,.T.);
#1192 = EDGE_LOOP('',(#1193,#1194,#1202,#1208));
#1193 = ORIENTED_EDGE('',*,*,#1172,.F.);
#1194 = ORIENTED_EDGE('',*,*,#1195,.F.);
#1195 = EDGE_CURVE('',#1196,#1162,#1198,.T.);
#1196 = VERTEX_POINT('',#1197);
#1197 = CARTESIAN_POINT('',(-0.495,24.955000096404,-3.175));
#1198 = LINE('',#1199,#1200);
#1199 = CARTESIAN_POINT('',(-0.495,24.955000096404,-3.175));
#1200 = VECTOR('',#1201,1.);
#1201 = DIRECTION('',(-6.E-17,-1.,0.));
#1202 = ORIENTED_EDGE('',*,*,#1203,.F.);
#1203 = EDGE_CURVE('',#269,#1196,#1204,.T.);
#1204 = LINE('',#1205,#1206);
#1205 = CARTESIAN_POINT('',(-0.495,24.955000096404,0.));
#1206 = VECTOR('',#1207,1.);
#1207 = DIRECTION('',(-0.,-0.,-1.));
#1208 = ORIENTED_EDGE('',*,*,#268,.F.);
#1209 = PLANE('',#1210);
#1210 = AXIS2_PLACEMENT_3D('',#1211,#1212,#1213);
#1211 = CARTESIAN_POINT('',(-0.495,23.102500048202,-0.675));
#1212 = DIRECTION('',(1.,0.,0.));
#1213 = DIRECTION('',(0.,0.,1.));
#1214 = ADVANCED_FACE('',(#1215),#1233,.T.);
#1215 = FACE_BOUND('',#1216,.T.);
#1216 = EDGE_LOOP('',(#1217,#1218,#1219,#1227));
#1217 = ORIENTED_EDGE('',*,*,#276,.T.);
#1218 = ORIENTED_EDGE('',*,*,#1203,.T.);
#1219 = ORIENTED_EDGE('',*,*,#1220,.F.);
#1220 = EDGE_CURVE('',#1221,#1196,#1223,.T.);
#1221 = VERTEX_POINT('',#1222);
#1222 = CARTESIAN_POINT('',(-0.79,25.25,-3.175));
#1223 = LINE('',#1224,#1225);
#1224 = CARTESIAN_POINT('',(-0.79,25.25,-3.175));
#1225 = VECTOR('',#1226,1.);
#1226 = DIRECTION('',(0.707106896726,-0.707106665647,0.));
#1227 = ORIENTED_EDGE('',*,*,#1228,.F.);
#1228 = EDGE_CURVE('',#277,#1221,#1229,.T.);
#1229 = LINE('',#1230,#1231);
#1230 = CARTESIAN_POINT('',(-0.79,25.25,0.));
#1231 = VECTOR('',#1232,1.);
#1232 = DIRECTION('',(-0.,-0.,-1.));
#1233 = PLANE('',#1234);
#1234 = AXIS2_PLACEMENT_3D('',#1235,#1236,#1237);
#1235 = CARTESIAN_POINT('',(-0.6425,25.102500048202,-0.675));
#1236 = DIRECTION('',(0.707106665647,0.707106896726,0.));
#1237 = DIRECTION('',(0.707106896726,-0.707106665647,0.));
#1238 = ADVANCED_FACE('',(#1239),#1257,.T.);
#1239 = FACE_BOUND('',#1240,.T.);
#1240 = EDGE_LOOP('',(#1241,#1242,#1250,#1256));
#1241 = ORIENTED_EDGE('',*,*,#1228,.T.);
#1242 = ORIENTED_EDGE('',*,*,#1243,.T.);
#1243 = EDGE_CURVE('',#1221,#1244,#1246,.T.);
#1244 = VERTEX_POINT('',#1245);
#1245 = CARTESIAN_POINT('',(-2.34,23.69999943266,-3.175));
#1246 = LINE('',#1247,#1248);
#1247 = CARTESIAN_POINT('',(-0.79,25.25,-3.175));
#1248 = VECTOR('',#1249,1.);
#1249 = DIRECTION('',(-0.707106651777,-0.707106910596,0.));
#1250 = ORIENTED_EDGE('',*,*,#1251,.T.);
#1251 = EDGE_CURVE('',#1244,#285,#1252,.T.);
#1252 = LINE('',#1253,#1254);
#1253 = CARTESIAN_POINT('',(-2.34,23.69999943266,0.));
#1254 = VECTOR('',#1255,1.);
#1255 = DIRECTION('',(0.,0.,1.));
#1256 = ORIENTED_EDGE('',*,*,#284,.F.);
#1257 = PLANE('',#1258);
#1258 = AXIS2_PLACEMENT_3D('',#1259,#1260,#1261);
#1259 = CARTESIAN_POINT('',(-1.565,24.47499971633,-0.675));
#1260 = DIRECTION('',(-0.707106910596,0.707106651777,1.3E-16));
#1261 = DIRECTION('',(-0.707106651777,-0.707106910596,0.));
#1262 = ADVANCED_FACE('',(#1263),#1288,.T.);
#1263 = FACE_BOUND('',#1264,.T.);
#1264 = EDGE_LOOP('',(#1265,#1273,#1274,#1282));
#1265 = ORIENTED_EDGE('',*,*,#1266,.T.);
#1266 = EDGE_CURVE('',#1267,#301,#1269,.T.);
#1267 = VERTEX_POINT('',#1268);
#1268 = CARTESIAN_POINT('',(5.,14.,0.));
#1269 = LINE('',#1270,#1271);
#1270 = CARTESIAN_POINT('',(5.,14.,0.));
#1271 = VECTOR('',#1272,1.);
#1272 = DIRECTION('',(0.,0.,1.));
#1273 = ORIENTED_EDGE('',*,*,#300,.T.);
#1274 = ORIENTED_EDGE('',*,*,#1275,.F.);
#1275 = EDGE_CURVE('',#1276,#293,#1278,.T.);
#1276 = VERTEX_POINT('',#1277);
#1277 = CARTESIAN_POINT('',(-2.34,16.75,0.));
#1278 = LINE('',#1279,#1280);
#1279 = CARTESIAN_POINT('',(-2.34,16.75,0.));
#1280 = VECTOR('',#1281,1.);
#1281 = DIRECTION('',(0.,0.,1.));
#1282 = ORIENTED_EDGE('',*,*,#1283,.F.);
#1283 = EDGE_CURVE('',#1267,#1276,#1284,.T.);
#1284 = LINE('',#1285,#1286);
#1285 = CARTESIAN_POINT('',(5.,14.,0.));
#1286 = VECTOR('',#1287,1.);
#1287 = DIRECTION('',(-0.93643399573,0.35084379949,0.));
#1288 = PLANE('',#1289);
#1289 = AXIS2_PLACEMENT_3D('',#1290,#1291,#1292);
#1290 = CARTESIAN_POINT('',(5.,14.,0.));
#1291 = DIRECTION('',(-0.35084379949,-0.93643399573,0.));
#1292 = DIRECTION('',(-0.93643399573,0.35084379949,0.));
#1293 = ADVANCED_FACE('',(#1294),#1305,.T.);
#1294 = FACE_BOUND('',#1295,.T.);
#1295 = EDGE_LOOP('',(#1296,#1297,#1298,#1299));
#1296 = ORIENTED_EDGE('',*,*,#353,.T.);
#1297 = ORIENTED_EDGE('',*,*,#308,.T.);
#1298 = ORIENTED_EDGE('',*,*,#1266,.F.);
#1299 = ORIENTED_EDGE('',*,*,#1300,.F.);
#1300 = EDGE_CURVE('',#354,#1267,#1301,.T.);
#1301 = LINE('',#1302,#1303);
#1302 = CARTESIAN_POINT('',(5.,7.,0.));
#1303 = VECTOR('',#1304,1.);
#1304 = DIRECTION('',(0.,1.,0.));
#1305 = PLANE('',#1306);
#1306 = AXIS2_PLACEMENT_3D('',#1307,#1308,#1309);
#1307 = CARTESIAN_POINT('',(5.,7.,0.));
#1308 = DIRECTION('',(-1.,0.,0.));
#1309 = DIRECTION('',(0.,1.,0.));
#1310 = ADVANCED_FACE('',(#1311),#1330,.F.);
#1311 = FACE_BOUND('',#1312,.T.);
#1312 = EDGE_LOOP('',(#1313,#1321,#1322,#1323));
#1313 = ORIENTED_EDGE('',*,*,#1314,.T.);
#1314 = EDGE_CURVE('',#1315,#317,#1317,.T.);
#1315 = VERTEX_POINT('',#1316);
#1316 = CARTESIAN_POINT('',(1.32,0.,0.));
#1317 = LINE('',#1318,#1319);
#1318 = CARTESIAN_POINT('',(1.32,0.,0.));
#1319 = VECTOR('',#1320,1.);
#1320 = DIRECTION('',(0.,0.,1.));
#1321 = ORIENTED_EDGE('',*,*,#316,.T.);
#1322 = ORIENTED_EDGE('',*,*,#1314,.F.);
#1323 = ORIENTED_EDGE('',*,*,#1324,.F.);
#1324 = EDGE_CURVE('',#1315,#1315,#1325,.T.);
#1325 = CIRCLE('',#1326,1.32);
#1326 = AXIS2_PLACEMENT_3D('',#1327,#1328,#1329);
#1327 = CARTESIAN_POINT('',(0.,0.,0.));
#1328 = DIRECTION('',(0.,0.,1.));
#1329 = DIRECTION('',(1.,0.,0.));
#1330 = CYLINDRICAL_SURFACE('',#1331,1.32);
#1331 = AXIS2_PLACEMENT_3D('',#1332,#1333,#1334);
#1332 = CARTESIAN_POINT('',(0.,0.,0.));
#1333 = DIRECTION('',(-0.,-0.,-1.));
#1334 = DIRECTION('',(1.,0.,0.));
#1335 = ADVANCED_FACE('',(#1336),#1355,.F.);
#1336 = FACE_BOUND('',#1337,.T.);
#1337 = EDGE_LOOP('',(#1338,#1346,#1347,#1348));
#1338 = ORIENTED_EDGE('',*,*,#1339,.T.);
#1339 = EDGE_CURVE('',#1340,#328,#1342,.T.);
#1340 = VERTEX_POINT('',#1341);
#1341 = CARTESIAN_POINT('',(63.04,0.,0.));
#1342 = LINE('',#1343,#1344);
#1343 = CARTESIAN_POINT('',(63.04,0.,0.));
#1344 = VECTOR('',#1345,1.);
#1345 = DIRECTION('',(0.,0.,1.));
#1346 = ORIENTED_EDGE('',*,*,#327,.T.);
#1347 = ORIENTED_EDGE('',*,*,#1339,.F.);
#1348 = ORIENTED_EDGE('',*,*,#1349,.F.);
#1349 = EDGE_CURVE('',#1340,#1340,#1350,.T.);
#1350 = CIRCLE('',#1351,1.32);
#1351 = AXIS2_PLACEMENT_3D('',#1352,#1353,#1354);
#1352 = CARTESIAN_POINT('',(61.72,0.,0.));
#1353 = DIRECTION('',(0.,0.,1.));
#1354 = DIRECTION('',(1.,0.,0.));
#1355 = CYLINDRICAL_SURFACE('',#1356,1.32);
#1356 = AXIS2_PLACEMENT_3D('',#1357,#1358,#1359);
#1357 = CARTESIAN_POINT('',(61.72,0.,0.));
#1358 = DIRECTION('',(-0.,-0.,-1.));
#1359 = DIRECTION('',(1.,0.,0.));
#1360 = ADVANCED_FACE('',(#1361,#1415,#1418),#1421,.T.);
#1361 = FACE_BOUND('',#1362,.T.);
#1362 = EDGE_LOOP('',(#1363,#1364,#1365,#1366,#1367,#1375,#1381,#1387,
    #1388,#1389,#1390,#1391,#1392,#1398,#1404,#1405,#1406,#1407,#1408,
    #1409,#1410,#1411,#1412,#1413,#1414));
#1363 = ORIENTED_EDGE('',*,*,#383,.F.);
#1364 = ORIENTED_EDGE('',*,*,#361,.T.);
#1365 = ORIENTED_EDGE('',*,*,#1300,.T.);
#1366 = ORIENTED_EDGE('',*,*,#1283,.T.);
#1367 = ORIENTED_EDGE('',*,*,#1368,.F.);
#1368 = EDGE_CURVE('',#1369,#1276,#1371,.T.);
#1369 = VERTEX_POINT('',#1370);
#1370 = CARTESIAN_POINT('',(-2.34,18.75,0.));
#1371 = LINE('',#1372,#1373);
#1372 = CARTESIAN_POINT('',(-2.34,23.69999943266,0.));
#1373 = VECTOR('',#1374,1.);
#1374 = DIRECTION('',(-2.6E-16,-1.,0.));
#1375 = ORIENTED_EDGE('',*,*,#1376,.T.);
#1376 = EDGE_CURVE('',#1369,#1020,#1377,.T.);
#1377 = LINE('',#1378,#1379);
#1378 = CARTESIAN_POINT('',(-2.34,18.75,0.));
#1379 = VECTOR('',#1380,1.);
#1380 = DIRECTION('',(1.,0.,0.));
#1381 = ORIENTED_EDGE('',*,*,#1382,.T.);
#1382 = EDGE_CURVE('',#1020,#1050,#1383,.T.);
#1383 = LINE('',#1384,#1385);
#1384 = CARTESIAN_POINT('',(-2.34,18.75,0.));
#1385 = VECTOR('',#1386,1.);
#1386 = DIRECTION('',(1.,0.,0.));
#1387 = ORIENTED_EDGE('',*,*,#1049,.T.);
#1388 = ORIENTED_EDGE('',*,*,#996,.T.);
#1389 = ORIENTED_EDGE('',*,*,#972,.T.);
#1390 = ORIENTED_EDGE('',*,*,#948,.F.);
#1391 = ORIENTED_EDGE('',*,*,#916,.F.);
#1392 = ORIENTED_EDGE('',*,*,#1393,.F.);
#1393 = EDGE_CURVE('',#884,#909,#1394,.T.);
#1394 = LINE('',#1395,#1396);
#1395 = CARTESIAN_POINT('',(61.215000326795,18.75,0.));
#1396 = VECTOR('',#1397,1.);
#1397 = DIRECTION('',(-1.,-1.534E-14,0.));
#1398 = ORIENTED_EDGE('',*,*,#1399,.F.);
#1399 = EDGE_CURVE('',#629,#884,#1400,.T.);
#1400 = LINE('',#1401,#1402);
#1401 = CARTESIAN_POINT('',(61.215000326795,18.75,0.));
#1402 = VECTOR('',#1403,1.);
#1403 = DIRECTION('',(-1.,-1.534E-14,0.));
#1404 = ORIENTED_EDGE('',*,*,#628,.F.);
#1405 = ORIENTED_EDGE('',*,*,#613,.F.);
#1406 = ORIENTED_EDGE('',*,*,#589,.F.);
#1407 = ORIENTED_EDGE('',*,*,#565,.F.);
#1408 = ORIENTED_EDGE('',*,*,#531,.F.);
#1409 = ORIENTED_EDGE('',*,*,#540,.F.);
#1410 = ORIENTED_EDGE('',*,*,#506,.T.);
#1411 = ORIENTED_EDGE('',*,*,#482,.F.);
#1412 = ORIENTED_EDGE('',*,*,#458,.F.);
#1413 = ORIENTED_EDGE('',*,*,#434,.F.);
#1414 = ORIENTED_EDGE('',*,*,#410,.F.);
#1415 = FACE_BOUND('',#1416,.T.);
#1416 = EDGE_LOOP('',(#1417));
#1417 = ORIENTED_EDGE('',*,*,#1349,.T.);
#1418 = FACE_BOUND('',#1419,.T.);
#1419 = EDGE_LOOP('',(#1420));
#1420 = ORIENTED_EDGE('',*,*,#1324,.T.);
#1421 = PLANE('',#1422);
#1422 = AXIS2_PLACEMENT_3D('',#1423,#1424,#1425);
#1423 = CARTESIAN_POINT('',(31.000458724627,10.93175769648,0.));
#1424 = DIRECTION('',(-0.,-0.,-1.));
#1425 = DIRECTION('',(-1.,0.,0.));
#1426 = ADVANCED_FACE('',(#1427),#1454,.T.);
#1427 = FACE_BOUND('',#1428,.T.);
#1428 = EDGE_LOOP('',(#1429,#1430,#1431,#1432,#1440,#1448));
#1429 = ORIENTED_EDGE('',*,*,#636,.F.);
#1430 = ORIENTED_EDGE('',*,*,#1399,.T.);
#1431 = ORIENTED_EDGE('',*,*,#883,.T.);
#1432 = ORIENTED_EDGE('',*,*,#1433,.F.);
#1433 = EDGE_CURVE('',#1434,#876,#1436,.T.);
#1434 = VERTEX_POINT('',#1435);
#1435 = CARTESIAN_POINT('',(59.309936408809,18.75,-3.175));
#1436 = LINE('',#1437,#1438);
#1437 = CARTESIAN_POINT('',(64.06,18.75,-3.175));
#1438 = VECTOR('',#1439,1.);
#1439 = DIRECTION('',(-1.,0.,0.));
#1440 = ORIENTED_EDGE('',*,*,#1441,.F.);
#1441 = EDGE_CURVE('',#1442,#1434,#1444,.T.);
#1442 = VERTEX_POINT('',#1443);
#1443 = CARTESIAN_POINT('',(58.975,18.75,-1.925));
#1444 = LINE('',#1445,#1446);
#1445 = CARTESIAN_POINT('',(58.975,18.75,-1.925));
#1446 = VECTOR('',#1447,1.);
#1447 = DIRECTION('',(0.258818986177,-2.144786219911E-16,-0.965925842078
    ));
#1448 = ORIENTED_EDGE('',*,*,#1449,.F.);
#1449 = EDGE_CURVE('',#637,#1442,#1450,.T.);
#1450 = LINE('',#1451,#1452);
#1451 = CARTESIAN_POINT('',(64.06,18.75,-1.925));
#1452 = VECTOR('',#1453,1.);
#1453 = DIRECTION('',(-1.,0.,0.));
#1454 = PLANE('',#1455);
#1455 = AXIS2_PLACEMENT_3D('',#1456,#1457,#1458);
#1456 = CARTESIAN_POINT('',(60.785,18.75,-1.5875));
#1457 = DIRECTION('',(8.6E-16,-1.,0.));
#1458 = DIRECTION('',(-1.,-8.6E-16,0.));
#1459 = ADVANCED_FACE('',(#1460),#1478,.F.);
#1460 = FACE_BOUND('',#1461,.F.);
#1461 = EDGE_LOOP('',(#1462,#1463,#1471,#1477));
#1462 = ORIENTED_EDGE('',*,*,#644,.T.);
#1463 = ORIENTED_EDGE('',*,*,#1464,.T.);
#1464 = EDGE_CURVE('',#645,#1465,#1467,.T.);
#1465 = VERTEX_POINT('',#1466);
#1466 = CARTESIAN_POINT('',(58.975,17.75,-1.925));
#1467 = LINE('',#1468,#1469);
#1468 = CARTESIAN_POINT('',(64.06,17.75,-1.925));
#1469 = VECTOR('',#1470,1.);
#1470 = DIRECTION('',(-1.,0.,0.));
#1471 = ORIENTED_EDGE('',*,*,#1472,.F.);
#1472 = EDGE_CURVE('',#1442,#1465,#1473,.T.);
#1473 = LINE('',#1474,#1475);
#1474 = CARTESIAN_POINT('',(58.975,18.75,-1.925));
#1475 = VECTOR('',#1476,1.);
#1476 = DIRECTION('',(0.,-1.,2.22044604925E-16));
#1477 = ORIENTED_EDGE('',*,*,#1449,.F.);
#1478 = PLANE('',#1479);
#1479 = AXIS2_PLACEMENT_3D('',#1480,#1481,#1482);
#1480 = CARTESIAN_POINT('',(64.06,18.75,-1.925));
#1481 = DIRECTION('',(-0.,-2.22044604925E-16,-1.));
#1482 = DIRECTION('',(-1.,0.,0.));
#1483 = ADVANCED_FACE('',(#1484),#1502,.F.);
#1484 = FACE_BOUND('',#1485,.T.);
#1485 = EDGE_LOOP('',(#1486,#1487,#1488,#1496));
#1486 = ORIENTED_EDGE('',*,*,#652,.T.);
#1487 = ORIENTED_EDGE('',*,*,#1464,.T.);
#1488 = ORIENTED_EDGE('',*,*,#1489,.T.);
#1489 = EDGE_CURVE('',#1465,#1490,#1492,.T.);
#1490 = VERTEX_POINT('',#1491);
#1491 = CARTESIAN_POINT('',(59.309936408809,17.75,-3.175));
#1492 = LINE('',#1493,#1494);
#1493 = CARTESIAN_POINT('',(58.975,17.75,-1.925));
#1494 = VECTOR('',#1495,1.);
#1495 = DIRECTION('',(0.258818986177,-2.144786219911E-16,-0.965925842078
    ));
#1496 = ORIENTED_EDGE('',*,*,#1497,.T.);
#1497 = EDGE_CURVE('',#1490,#653,#1498,.T.);
#1498 = LINE('',#1499,#1500);
#1499 = CARTESIAN_POINT('',(59.309936408809,17.75,-3.175));
#1500 = VECTOR('',#1501,1.);
#1501 = DIRECTION('',(1.,0.,0.));
#1502 = PLANE('',#1503);
#1503 = AXIS2_PLACEMENT_3D('',#1504,#1505,#1506);
#1504 = CARTESIAN_POINT('',(61.590210301112,17.75,-2.533089702704));
#1505 = DIRECTION('',(0.,1.,0.));
#1506 = DIRECTION('',(0.,0.,1.));
#1507 = ADVANCED_FACE('',(#1508),#1536,.T.);
#1508 = FACE_BOUND('',#1509,.T.);
#1509 = EDGE_LOOP('',(#1510,#1516,#1517,#1518,#1524,#1525,#1526,#1527,
    #1528,#1534,#1535));
#1510 = ORIENTED_EDGE('',*,*,#1511,.F.);
#1511 = EDGE_CURVE('',#661,#724,#1512,.T.);
#1512 = LINE('',#1513,#1514);
#1513 = CARTESIAN_POINT('',(64.06,23.700000506532,-3.175));
#1514 = VECTOR('',#1515,1.);
#1515 = DIRECTION('',(-1.,-2.08E-15,2.39E-15));
#1516 = ORIENTED_EDGE('',*,*,#660,.T.);
#1517 = ORIENTED_EDGE('',*,*,#1497,.F.);
#1518 = ORIENTED_EDGE('',*,*,#1519,.F.);
#1519 = EDGE_CURVE('',#1434,#1490,#1520,.T.);
#1520 = LINE('',#1521,#1522);
#1521 = CARTESIAN_POINT('',(59.309936408809,18.75,-3.175));
#1522 = VECTOR('',#1523,1.);
#1523 = DIRECTION('',(0.,-1.,2.22044604925E-16));
#1524 = ORIENTED_EDGE('',*,*,#1433,.T.);
#1525 = ORIENTED_EDGE('',*,*,#875,.F.);
#1526 = ORIENTED_EDGE('',*,*,#860,.T.);
#1527 = ORIENTED_EDGE('',*,*,#821,.F.);
#1528 = ORIENTED_EDGE('',*,*,#1529,.F.);
#1529 = EDGE_CURVE('',#755,#814,#1530,.T.);
#1530 = LINE('',#1531,#1532);
#1531 = CARTESIAN_POINT('',(61.215000326795,20.25,-3.175));
#1532 = VECTOR('',#1533,1.);
#1533 = DIRECTION('',(-0.999999963576,2.699054994106E-04,0.));
#1534 = ORIENTED_EDGE('',*,*,#754,.T.);
#1535 = ORIENTED_EDGE('',*,*,#731,.T.);
#1536 = PLANE('',#1537);
#1537 = AXIS2_PLACEMENT_3D('',#1538,#1539,#1540);
#1538 = CARTESIAN_POINT('',(61.238154822305,21.255214875669,-3.175));
#1539 = DIRECTION('',(-0.,-0.,-1.));
#1540 = DIRECTION('',(-1.,0.,0.));
#1541 = ADVANCED_FACE('',(#1542),#1560,.T.);
#1542 = FACE_BOUND('',#1543,.T.);
#1543 = EDGE_LOOP('',(#1544,#1545,#1546,#1554));
#1544 = ORIENTED_EDGE('',*,*,#683,.F.);
#1545 = ORIENTED_EDGE('',*,*,#668,.T.);
#1546 = ORIENTED_EDGE('',*,*,#1547,.F.);
#1547 = EDGE_CURVE('',#1548,#661,#1550,.T.);
#1548 = VERTEX_POINT('',#1549);
#1549 = CARTESIAN_POINT('',(62.51,25.250000253266,-1.625));
#1550 = LINE('',#1551,#1552);
#1551 = CARTESIAN_POINT('',(62.868333203523,24.891666913578,
    -1.983333592954));
#1552 = VECTOR('',#1553,1.);
#1553 = DIRECTION('',(0.577350394973,-0.577350206298,-0.577350206298));
#1554 = ORIENTED_EDGE('',*,*,#1555,.F.);
#1555 = EDGE_CURVE('',#684,#1548,#1556,.T.);
#1556 = LINE('',#1557,#1558);
#1557 = CARTESIAN_POINT('',(62.51,25.25,0.));
#1558 = VECTOR('',#1559,1.);
#1559 = DIRECTION('',(-0.,-0.,-1.));
#1560 = PLANE('',#1561);
#1561 = AXIS2_PLACEMENT_3D('',#1562,#1563,#1564);
#1562 = CARTESIAN_POINT('',(63.285,24.475000253266,-0.675));
#1563 = DIRECTION('',(0.707106665647,0.707106896726,0.));
#1564 = DIRECTION('',(0.707106896726,-0.707106665647,0.));
#1565 = ADVANCED_FACE('',(#1566),#1577,.T.);
#1566 = FACE_BOUND('',#1567,.T.);
#1567 = EDGE_LOOP('',(#1568,#1569,#1570,#1576));
#1568 = ORIENTED_EDGE('',*,*,#700,.F.);
#1569 = ORIENTED_EDGE('',*,*,#1555,.T.);
#1570 = ORIENTED_EDGE('',*,*,#1571,.F.);
#1571 = EDGE_CURVE('',#716,#1548,#1572,.T.);
#1572 = LINE('',#1573,#1574);
#1573 = CARTESIAN_POINT('',(62.877500113871,25.617500248386,
    -1.257500258146));
#1574 = VECTOR('',#1575,1.);
#1575 = DIRECTION('',(0.577350128306,0.577350339631,0.577350339631));
#1576 = ORIENTED_EDGE('',*,*,#715,.F.);
#1577 = PLANE('',#1578);
#1578 = AXIS2_PLACEMENT_3D('',#1579,#1580,#1581);
#1579 = CARTESIAN_POINT('',(62.3625,25.102499946011,-0.675));
#1580 = DIRECTION('',(-0.707106910596,0.707106651777,0.));
#1581 = DIRECTION('',(-0.707106651777,-0.707106910596,0.));
#1582 = ADVANCED_FACE('',(#1583),#1589,.F.);
#1583 = FACE_BOUND('',#1584,.F.);
#1584 = EDGE_LOOP('',(#1585,#1586,#1587,#1588));
#1585 = ORIENTED_EDGE('',*,*,#1547,.F.);
#1586 = ORIENTED_EDGE('',*,*,#1571,.F.);
#1587 = ORIENTED_EDGE('',*,*,#723,.F.);
#1588 = ORIENTED_EDGE('',*,*,#1511,.F.);
#1589 = PLANE('',#1590);
#1590 = AXIS2_PLACEMENT_3D('',#1591,#1592,#1593);
#1591 = CARTESIAN_POINT('',(64.06,25.250000506532,-1.625));
#1592 = DIRECTION('',(3.16E-15,-0.707106781187,0.707106781187));
#1593 = DIRECTION('',(-2.5E-16,-0.707106781187,-0.707106781187));
#1594 = ADVANCED_FACE('',(#1595),#1606,.T.);
#1595 = FACE_BOUND('',#1596,.T.);
#1596 = EDGE_LOOP('',(#1597,#1603,#1604,#1605));
#1597 = ORIENTED_EDGE('',*,*,#1598,.F.);
#1598 = EDGE_CURVE('',#764,#812,#1599,.T.);
#1599 = LINE('',#1600,#1601);
#1600 = CARTESIAN_POINT('',(61.215000326795,20.25,0.));
#1601 = VECTOR('',#1602,1.);
#1602 = DIRECTION('',(-0.999999963576,2.699054994106E-04,0.));
#1603 = ORIENTED_EDGE('',*,*,#763,.T.);
#1604 = ORIENTED_EDGE('',*,*,#1529,.T.);
#1605 = ORIENTED_EDGE('',*,*,#811,.F.);
#1606 = PLANE('',#1607);
#1607 = AXIS2_PLACEMENT_3D('',#1608,#1609,#1610);
#1608 = CARTESIAN_POINT('',(61.215000326795,20.25,0.));
#1609 = DIRECTION('',(2.699054994106E-04,0.999999963576,0.));
#1610 = DIRECTION('',(-0.999999963576,2.699054994106E-04,0.));
#1611 = ADVANCED_FACE('',(#1612),#1617,.T.);
#1612 = FACE_BOUND('',#1613,.T.);
#1613 = EDGE_LOOP('',(#1614,#1615,#1616));
#1614 = ORIENTED_EDGE('',*,*,#788,.F.);
#1615 = ORIENTED_EDGE('',*,*,#1598,.T.);
#1616 = ORIENTED_EDGE('',*,*,#837,.F.);
#1617 = PLANE('',#1618);
#1618 = AXIS2_PLACEMENT_3D('',#1619,#1620,#1621);
#1619 = CARTESIAN_POINT('',(30.870546618599,20.914689570817,0.));
#1620 = DIRECTION('',(0.,0.,1.));
#1621 = DIRECTION('',(1.,0.,0.));
#1622 = ADVANCED_FACE('',(#1623),#1628,.T.);
#1623 = FACE_BOUND('',#1624,.T.);
#1624 = EDGE_LOOP('',(#1625,#1626,#1627));
#1625 = ORIENTED_EDGE('',*,*,#908,.T.);
#1626 = ORIENTED_EDGE('',*,*,#891,.T.);
#1627 = ORIENTED_EDGE('',*,*,#1393,.T.);
#1628 = PLANE('',#1629);
#1629 = AXIS2_PLACEMENT_3D('',#1630,#1631,#1632);
#1630 = CARTESIAN_POINT('',(57.889032197388,18.75,-0.965841548433));
#1631 = DIRECTION('',(-1.060711425389E-14,1.,0.));
#1632 = DIRECTION('',(1.,1.060711425389E-14,0.));
#1633 = ADVANCED_FACE('',(#1634),#1639,.T.);
#1634 = FACE_BOUND('',#1635,.T.);
#1635 = EDGE_LOOP('',(#1636,#1637,#1638));
#1636 = ORIENTED_EDGE('',*,*,#1019,.F.);
#1637 = ORIENTED_EDGE('',*,*,#1057,.T.);
#1638 = ORIENTED_EDGE('',*,*,#1382,.F.);
#1639 = PLANE('',#1640);
#1640 = AXIS2_PLACEMENT_3D('',#1641,#1642,#1643);
#1641 = CARTESIAN_POINT('',(3.820968386832,18.75,-0.965841204449));
#1642 = DIRECTION('',(0.,1.,0.));
#1643 = DIRECTION('',(0.,0.,1.));
#1644 = ADVANCED_FACE('',(#1645),#1679,.T.);
#1645 = FACE_BOUND('',#1646,.T.);
#1646 = EDGE_LOOP('',(#1647,#1648,#1656,#1664,#1672,#1678));
#1647 = ORIENTED_EDGE('',*,*,#1376,.F.);
#1648 = ORIENTED_EDGE('',*,*,#1649,.T.);
#1649 = EDGE_CURVE('',#1369,#1650,#1652,.T.);
#1650 = VERTEX_POINT('',#1651);
#1651 = CARTESIAN_POINT('',(-2.34,18.75,-1.925));
#1652 = LINE('',#1653,#1654);
#1653 = CARTESIAN_POINT('',(-2.34,18.75,0.));
#1654 = VECTOR('',#1655,1.);
#1655 = DIRECTION('',(-0.,-0.,-1.));
#1656 = ORIENTED_EDGE('',*,*,#1657,.T.);
#1657 = EDGE_CURVE('',#1650,#1658,#1660,.T.);
#1658 = VERTEX_POINT('',#1659);
#1659 = CARTESIAN_POINT('',(2.735,18.75,-1.925));
#1660 = LINE('',#1661,#1662);
#1661 = CARTESIAN_POINT('',(-2.34,18.75,-1.925));
#1662 = VECTOR('',#1663,1.);
#1663 = DIRECTION('',(1.,7.66E-15,-7.88860905221E-31));
#1664 = ORIENTED_EDGE('',*,*,#1665,.T.);
#1665 = EDGE_CURVE('',#1658,#1666,#1668,.T.);
#1666 = VERTEX_POINT('',#1667);
#1667 = CARTESIAN_POINT('',(2.400063127097,18.75,-3.175));
#1668 = LINE('',#1669,#1670);
#1669 = CARTESIAN_POINT('',(2.735,18.75,-1.925));
#1670 = VECTOR('',#1671,1.);
#1671 = DIRECTION('',(-0.258819320778,-2.197034599243E-15,
    -0.965925752422));
#1672 = ORIENTED_EDGE('',*,*,#1673,.T.);
#1673 = EDGE_CURVE('',#1666,#1028,#1674,.T.);
#1674 = LINE('',#1675,#1676);
#1675 = CARTESIAN_POINT('',(0.504999673205,18.75,-3.175));
#1676 = VECTOR('',#1677,1.);
#1677 = DIRECTION('',(1.,0.,0.));
#1678 = ORIENTED_EDGE('',*,*,#1027,.F.);
#1679 = PLANE('',#1680);
#1680 = AXIS2_PLACEMENT_3D('',#1681,#1682,#1683);
#1681 = CARTESIAN_POINT('',(0.929999836603,18.75,-1.5875));
#1682 = DIRECTION('',(7.66E-15,-1.,0.));
#1683 = DIRECTION('',(-1.,-7.66E-15,0.));
#1684 = ADVANCED_FACE('',(#1685),#1695,.T.);
#1685 = FACE_BOUND('',#1686,.T.);
#1686 = EDGE_LOOP('',(#1687,#1688,#1694));
#1687 = ORIENTED_EDGE('',*,*,#1123,.F.);
#1688 = ORIENTED_EDGE('',*,*,#1689,.T.);
#1689 = EDGE_CURVE('',#1116,#1140,#1690,.T.);
#1690 = LINE('',#1691,#1692);
#1691 = CARTESIAN_POINT('',(4.199999673205,20.251,0.));
#1692 = VECTOR('',#1693,1.);
#1693 = DIRECTION('',(-0.999999963378,-2.706359846754E-04,0.));
#1694 = ORIENTED_EDGE('',*,*,#1139,.F.);
#1695 = PLANE('',#1696);
#1696 = AXIS2_PLACEMENT_3D('',#1697,#1698,#1699);
#1697 = CARTESIAN_POINT('',(30.870546618599,20.914689570817,0.));
#1698 = DIRECTION('',(0.,0.,1.));
#1699 = DIRECTION('',(1.,0.,0.));
#1700 = ADVANCED_FACE('',(#1701),#1712,.T.);
#1701 = FACE_BOUND('',#1702,.T.);
#1702 = EDGE_LOOP('',(#1703,#1704,#1705,#1711));
#1703 = ORIENTED_EDGE('',*,*,#1689,.F.);
#1704 = ORIENTED_EDGE('',*,*,#1115,.F.);
#1705 = ORIENTED_EDGE('',*,*,#1706,.T.);
#1706 = EDGE_CURVE('',#1108,#1164,#1707,.T.);
#1707 = LINE('',#1708,#1709);
#1708 = CARTESIAN_POINT('',(4.199999673205,20.251,-3.175));
#1709 = VECTOR('',#1710,1.);
#1710 = DIRECTION('',(-0.999999963378,-2.706359846754E-04,0.));
#1711 = ORIENTED_EDGE('',*,*,#1180,.F.);
#1712 = PLANE('',#1713);
#1713 = AXIS2_PLACEMENT_3D('',#1714,#1715,#1716);
#1714 = CARTESIAN_POINT('',(4.199999673205,20.251,0.));
#1715 = DIRECTION('',(-2.706359846754E-04,0.999999963378,0.));
#1716 = DIRECTION('',(-0.999999963378,-2.706359846754E-04,0.));
#1717 = ADVANCED_FACE('',(#1718),#1724,.F.);
#1718 = FACE_BOUND('',#1719,.F.);
#1719 = EDGE_LOOP('',(#1720,#1721,#1722,#1723));
#1720 = ORIENTED_EDGE('',*,*,#1472,.T.);
#1721 = ORIENTED_EDGE('',*,*,#1489,.T.);
#1722 = ORIENTED_EDGE('',*,*,#1519,.F.);
#1723 = ORIENTED_EDGE('',*,*,#1441,.F.);
#1724 = PLANE('',#1725);
#1725 = AXIS2_PLACEMENT_3D('',#1726,#1727,#1728);
#1726 = CARTESIAN_POINT('',(58.975,18.75,-1.925));
#1727 = DIRECTION('',(0.965925842078,5.746935953274E-17,0.258818986177)
  );
#1728 = DIRECTION('',(0.258818986177,-2.144786219911E-16,-0.965925842078
    ));
#1729 = ADVANCED_FACE('',(#1730),#1755,.T.);
#1730 = FACE_BOUND('',#1731,.T.);
#1731 = EDGE_LOOP('',(#1732,#1740,#1748,#1754));
#1732 = ORIENTED_EDGE('',*,*,#1733,.T.);
#1733 = EDGE_CURVE('',#1658,#1734,#1736,.T.);
#1734 = VERTEX_POINT('',#1735);
#1735 = CARTESIAN_POINT('',(2.735,17.75,-1.925));
#1736 = LINE('',#1737,#1738);
#1737 = CARTESIAN_POINT('',(2.735,18.75,-1.925));
#1738 = VECTOR('',#1739,1.);
#1739 = DIRECTION('',(7.66E-15,-1.,2.22044604925E-16));
#1740 = ORIENTED_EDGE('',*,*,#1741,.T.);
#1741 = EDGE_CURVE('',#1734,#1742,#1744,.T.);
#1742 = VERTEX_POINT('',#1743);
#1743 = CARTESIAN_POINT('',(2.400063127097,17.75,-3.175));
#1744 = LINE('',#1745,#1746);
#1745 = CARTESIAN_POINT('',(2.735,17.75,-1.925));
#1746 = VECTOR('',#1747,1.);
#1747 = DIRECTION('',(-0.258819320778,-2.197034599243E-15,
    -0.965925752422));
#1748 = ORIENTED_EDGE('',*,*,#1749,.F.);
#1749 = EDGE_CURVE('',#1666,#1742,#1750,.T.);
#1750 = LINE('',#1751,#1752);
#1751 = CARTESIAN_POINT('',(2.400063127097,18.75,-3.175));
#1752 = VECTOR('',#1753,1.);
#1753 = DIRECTION('',(7.66E-15,-1.,2.22044604925E-16));
#1754 = ORIENTED_EDGE('',*,*,#1665,.F.);
#1755 = PLANE('',#1756);
#1756 = AXIS2_PLACEMENT_3D('',#1757,#1758,#1759);
#1757 = CARTESIAN_POINT('',(2.735,18.75,-1.925));
#1758 = DIRECTION('',(0.965925752422,7.341521829723E-15,-0.258819320778)
  );
#1759 = DIRECTION('',(-0.258819320778,-2.197034599243E-15,
    -0.965925752422));
#1760 = ADVANCED_FACE('',(#1761),#1779,.T.);
#1761 = FACE_BOUND('',#1762,.T.);
#1762 = EDGE_LOOP('',(#1763,#1771,#1777,#1778));
#1763 = ORIENTED_EDGE('',*,*,#1764,.T.);
#1764 = EDGE_CURVE('',#1650,#1765,#1767,.T.);
#1765 = VERTEX_POINT('',#1766);
#1766 = CARTESIAN_POINT('',(-2.34,17.75,-1.925));
#1767 = LINE('',#1768,#1769);
#1768 = CARTESIAN_POINT('',(-2.34,18.75,-1.925));
#1769 = VECTOR('',#1770,1.);
#1770 = DIRECTION('',(7.66E-15,-1.,2.22044604925E-16));
#1771 = ORIENTED_EDGE('',*,*,#1772,.T.);
#1772 = EDGE_CURVE('',#1765,#1734,#1773,.T.);
#1773 = LINE('',#1774,#1775);
#1774 = CARTESIAN_POINT('',(-2.34,17.75,-1.925));
#1775 = VECTOR('',#1776,1.);
#1776 = DIRECTION('',(1.,7.66E-15,-7.88860905221E-31));
#1777 = ORIENTED_EDGE('',*,*,#1733,.F.);
#1778 = ORIENTED_EDGE('',*,*,#1657,.F.);
#1779 = PLANE('',#1780);
#1780 = AXIS2_PLACEMENT_3D('',#1781,#1782,#1783);
#1781 = CARTESIAN_POINT('',(-2.34,18.75,-1.925));
#1782 = DIRECTION('',(-9.120007685047E-31,2.22044604925E-16,1.));
#1783 = DIRECTION('',(1.,7.66E-15,-7.88860905221E-31));
#1784 = ADVANCED_FACE('',(#1785),#1803,.F.);
#1785 = FACE_BOUND('',#1786,.F.);
#1786 = EDGE_LOOP('',(#1787,#1795,#1796,#1797));
#1787 = ORIENTED_EDGE('',*,*,#1788,.T.);
#1788 = EDGE_CURVE('',#1789,#1765,#1791,.T.);
#1789 = VERTEX_POINT('',#1790);
#1790 = CARTESIAN_POINT('',(-2.34,17.75,-3.175));
#1791 = LINE('',#1792,#1793);
#1792 = CARTESIAN_POINT('',(-2.34,17.75,-3.175));
#1793 = VECTOR('',#1794,1.);
#1794 = DIRECTION('',(-9.120007685047E-31,2.22044604925E-16,1.));
#1795 = ORIENTED_EDGE('',*,*,#1772,.T.);
#1796 = ORIENTED_EDGE('',*,*,#1741,.T.);
#1797 = ORIENTED_EDGE('',*,*,#1798,.T.);
#1798 = EDGE_CURVE('',#1742,#1789,#1799,.T.);
#1799 = LINE('',#1800,#1801);
#1800 = CARTESIAN_POINT('',(2.400063127097,17.75,-3.175));
#1801 = VECTOR('',#1802,1.);
#1802 = DIRECTION('',(-1.,-7.66E-15,7.88860905221E-31));
#1803 = PLANE('',#1804);
#1804 = AXIS2_PLACEMENT_3D('',#1805,#1806,#1807);
#1805 = CARTESIAN_POINT('',(0.124789612893,17.75,-2.533062313961));
#1806 = DIRECTION('',(-7.990842063759E-15,1.,-1.77793577293E-15));
#1807 = DIRECTION('',(1.,7.990842063759E-15,0.));
#1808 = ADVANCED_FACE('',(#1809),#1824,.T.);
#1809 = FACE_BOUND('',#1810,.T.);
#1810 = EDGE_LOOP('',(#1811,#1812,#1818,#1819,#1820,#1821,#1822,#1823));
#1811 = ORIENTED_EDGE('',*,*,#1251,.F.);
#1812 = ORIENTED_EDGE('',*,*,#1813,.T.);
#1813 = EDGE_CURVE('',#1244,#1789,#1814,.T.);
#1814 = LINE('',#1815,#1816);
#1815 = CARTESIAN_POINT('',(-2.34,23.69999943266,-3.175));
#1816 = VECTOR('',#1817,1.);
#1817 = DIRECTION('',(-1.8E-16,-1.,0.));
#1818 = ORIENTED_EDGE('',*,*,#1788,.T.);
#1819 = ORIENTED_EDGE('',*,*,#1764,.F.);
#1820 = ORIENTED_EDGE('',*,*,#1649,.F.);
#1821 = ORIENTED_EDGE('',*,*,#1368,.T.);
#1822 = ORIENTED_EDGE('',*,*,#1275,.T.);
#1823 = ORIENTED_EDGE('',*,*,#292,.F.);
#1824 = PLANE('',#1825);
#1825 = AXIS2_PLACEMENT_3D('',#1826,#1827,#1828);
#1826 = CARTESIAN_POINT('',(-2.34,20.269401284582,-0.574613895216));
#1827 = DIRECTION('',(-1.,-0.,-0.));
#1828 = DIRECTION('',(0.,0.,-1.));
#1829 = ADVANCED_FACE('',(#1830),#1844,.T.);
#1830 = FACE_BOUND('',#1831,.T.);
#1831 = EDGE_LOOP('',(#1832,#1833,#1834,#1835,#1836,#1837,#1838,#1839,
    #1840,#1841,#1842,#1843));
#1832 = ORIENTED_EDGE('',*,*,#1243,.F.);
#1833 = ORIENTED_EDGE('',*,*,#1220,.T.);
#1834 = ORIENTED_EDGE('',*,*,#1195,.T.);
#1835 = ORIENTED_EDGE('',*,*,#1161,.T.);
#1836 = ORIENTED_EDGE('',*,*,#1706,.F.);
#1837 = ORIENTED_EDGE('',*,*,#1107,.T.);
#1838 = ORIENTED_EDGE('',*,*,#1082,.T.);
#1839 = ORIENTED_EDGE('',*,*,#1035,.F.);
#1840 = ORIENTED_EDGE('',*,*,#1673,.F.);
#1841 = ORIENTED_EDGE('',*,*,#1749,.T.);
#1842 = ORIENTED_EDGE('',*,*,#1798,.T.);
#1843 = ORIENTED_EDGE('',*,*,#1813,.F.);
#1844 = PLANE('',#1845);
#1845 = AXIS2_PLACEMENT_3D('',#1846,#1847,#1848);
#1846 = CARTESIAN_POINT('',(0.397703038448,21.492963160251,-3.175));
#1847 = DIRECTION('',(-0.,-0.,-1.));
#1848 = DIRECTION('',(-1.,0.,0.));
#1849 = ( GEOMETRIC_REPRESENTATION_CONTEXT(3) 
GLOBAL_UNCERTAINTY_ASSIGNED_CONTEXT((#1853)) 
GLOBAL_UNIT_ASSIGNED_CONTEXT((#1850,#1851,#1852)) REPRESENTATION_CONTEXT
('Context #1','3D Context with UNIT and UNCERTAINTY') );
#1850 = ( LENGTH_UNIT() NAMED_UNIT(*) SI_UNIT(.MILLI.,.METRE.) );
#1851 = ( NAMED_UNIT(*) PLANE_ANGLE_UNIT() SI_UNIT($,.RADIAN.) );
#1852 = ( NAMED_UNIT(*) SI_UNIT($,.STERADIAN.) SOLID_ANGLE_UNIT() );
#1853 = UNCERTAINTY_MEASURE_WITH_UNIT(LENGTH_MEASURE(2.E-05),#1850,
  'distance_accuracy_value','confusion accuracy');
#1854 = PRODUCT_RELATED_PRODUCT_CATEGORY('part',$,(#7));
#1855 = MECHANICAL_DESIGN_GEOMETRIC_PRESENTATION_REPRESENTATION('',(
    #1856),#1849);
#1856 = STYLED_ITEM('color',(#1857),#15);
#1857 = PRESENTATION_STYLE_ASSIGNMENT((#1858,#1864));
#1858 = SURFACE_STYLE_USAGE(.BOTH.,#1859);
#1859 = SURFACE_SIDE_STYLE('',(#1860));
#1860 = SURFACE_STYLE_FILL_AREA(#1861);
#1861 = FILL_AREA_STYLE('',(#1862));
#1862 = FILL_AREA_STYLE_COLOUR('',#1863);
#1863 = COLOUR_RGB('',0.447058818107,0.474509808674,0.501960817233);
#1864 = CURVE_STYLE('',#1865,POSITIVE_LENGTH_MEASURE(0.1),#1866);
#1865 = DRAUGHTING_PRE_DEFINED_CURVE_FONT('continuous');
#1866 = COLOUR_RGB('',9.803921802644E-02,9.803921802644E-02,
  9.803921802644E-02);
ENDSEC;
END-ISO-10303-21;
